<?xml version="1.0" encoding="UTF-8"?>
<svg version="1.1" xmlns="http://www.w3.org/2000/svg" width="1600" height="930">
<path d="M0 0 C528 0 1056 0 1600 0 C1600 306.9 1600 613.8 1600 930 C1072 930 544 930 0 930 C0 623.1 0 316.2 0 0 Z " fill="#26180D" transform="translate(0,0)"/>
<path d="M0 0 C7.07672046 2.49382585 13.13615916 7.75044913 19.19384766 12.07177734 C27.61027296 18.071624 36.10900867 23.67383843 45.1171875 28.74609375 C45.77654297 29.11831055 46.43589844 29.49052734 47.11523438 29.87402344 C58.10907422 36.02072227 69.40163222 41.13718241 81.1171875 45.74609375 C81.94250977 46.07464355 82.76783203 46.40319336 83.61816406 46.74169922 C152.17018792 73.76422651 234.63276561 79.60129136 306.22314453 61.4765625 C308.98151525 60.780338 311.7464645 60.13087366 314.51953125 59.49609375 C333.16658709 55.15675214 350.84330656 48.67965849 368.43359375 41.17578125 C369.35881836 40.78173096 370.28404297 40.38768066 371.23730469 39.98168945 C373.26307596 39.11254496 375.28417613 38.23247203 377.30175781 37.34448242 C378.35073242 36.89049072 379.39970703 36.43649902 380.48046875 35.96875 C381.42575439 35.55375244 382.37104004 35.13875488 383.3449707 34.71118164 C387.52668861 33.25540613 391.75539036 32.92065405 396.1171875 33.74609375 C398.1171875 35.74609375 398.1171875 35.74609375 398.1796875 39.37109375 C397.33637449 44.85758899 393.93770431 47.97350457 390.1171875 51.74609375 C389.36900757 52.52932007 389.36900757 52.52932007 388.60571289 53.32836914 C384.32953207 57.74975342 379.8035321 61.48302747 374.8046875 65.05859375 C374.02343506 65.61836914 373.24218262 66.17814453 372.43725586 66.75488281 C339.41050009 89.97914661 300.74135698 102.36563945 261.140625 108.37646484 C258.92394857 108.73239474 258.92394857 108.73239474 256.1171875 109.74609375 C222.32112562 113.74549158 187.14625834 113.05150501 153.5546875 107.87109375 C152.5745166 107.72188477 151.5943457 107.57267578 150.58447266 107.41894531 C144.46154284 106.39162925 138.78532339 104.73009361 132.92700195 102.68701172 C129.16364739 101.42678333 125.37050795 100.56498486 121.4921875 99.74609375 C115.80464055 98.480928 110.52454695 96.93884727 105.1640625 94.609375 C102.93601232 93.6183196 102.93601232 93.6183196 99.7421875 92.80859375 C71.64020789 84.57180662 44.47015245 66.4809458 23.234375 46.7109375 C21.26473258 44.88302212 19.23941102 43.158302 17.1796875 41.43359375 C6.8175654 32.34842003 -6.53638509 19.32536946 -8.1953125 5.05859375 C-7.8828125 2.74609375 -7.8828125 2.74609375 -6.8203125 0.87109375 C-4.41070781 -0.52803155 -2.7099708 -0.54536757 0 0 Z " fill="#EB821F" transform="translate(735.8828125,478.25390625)"/>
<path d="M0 0 C0.98871597 0.00771927 0.98871597 0.00771927 1.99740601 0.01559448 C12.58169682 0.12753892 21.09582553 1.08593554 30.1875 6.6875 C31.51007813 7.48220703 31.51007813 7.48220703 32.859375 8.29296875 C40.06145349 13.24733973 45.32269885 21.10941469 47.1875 29.6875 C47.1875 32.3275 47.1875 34.9675 47.1875 37.6875 C39.5975 37.6875 32.0075 37.6875 24.1875 37.6875 C23.1975 35.0475 22.2075 32.4075 21.1875 29.6875 C16.04393323 24.40105637 9.82623457 22.32898435 2.62744141 22.16845703 C1.86351074 22.17474121 1.09958008 22.18102539 0.3125 22.1875 C-0.4810791 22.19249512 -1.2746582 22.19749023 -2.09228516 22.20263672 C-8.29556762 22.38744789 -13.09138305 23.40581876 -17.8125 27.6875 C-20.73931447 30.97124306 -21.69200487 32.84403408 -22.3125 37.1875 C-21.69224574 41.52927982 -20.7745221 43.43650014 -17.8125 46.6875 C-11.26025167 50.57619648 -4.09149462 51.82491562 3.3125 53.125 C34.5505454 59.03514765 34.5505454 59.03514765 44.1875 72.6875 C48.5441411 79.71526203 49.15521503 86.54901662 48.1875 94.6875 C46.62157034 100.95920809 44.23001945 106.60547555 40.1875 111.6875 C39.75308594 112.23792969 39.31867188 112.78835938 38.87109375 113.35546875 C31.7274019 121.46597604 19.91430569 126.91922878 9.1875 127.6875 C-6.73713028 128.44673334 -21.18559691 127.56513639 -34.25 117.1875 C-35.5184375 115.95 -35.5184375 115.95 -36.8125 114.6875 C-37.658125 113.883125 -38.50375 113.07875 -39.375 112.25 C-44.60110735 105.75130158 -46.8125 96.80394719 -46.8125 88.6875 C-38.8925 88.6875 -30.9725 88.6875 -22.8125 88.6875 C-21.8225 91.6575 -20.8325 94.6275 -19.8125 97.6875 C-14.49370431 103.00629569 -10.42843867 104.94546052 -3.09765625 105.00976562 C-2.26105469 105.00654297 -1.42445313 105.00332031 -0.5625 105 C0.66919922 105.02416992 0.66919922 105.02416992 1.92578125 105.04882812 C8.5470072 105.05407474 14.27879957 104.06038719 19.5625 99.75 C22.84102526 95.58879487 23.78174812 92.12456779 23.609375 86.8671875 C23.04443807 83.94834671 21.70252034 82.39272307 19.2578125 80.73828125 C12.34286269 77.22861804 5.03163494 75.56971529 -2.5625 74.25 C-17.45888352 71.64568701 -31.31957391 67.91262828 -41.37109375 55.85546875 C-43.67613697 52.38853382 -44.83520513 48.70837031 -45.8125 44.6875 C-46.05484375 45.41195312 -46.2971875 46.13640625 -46.546875 46.8828125 C-50.12644574 57.20849733 -55.09678898 65.12679632 -64.7421875 70.828125 C-71.46903022 73.87762703 -78.36250546 73.82733445 -85.5859375 73.78515625 C-86.81534058 73.78364563 -86.81534058 73.78364563 -88.06958008 73.78210449 C-91.10890111 73.77690258 -94.14820207 73.76294147 -97.1875 73.75 C-107.396875 73.7190625 -107.396875 73.7190625 -117.8125 73.6875 C-117.8125 90.8475 -117.8125 108.0075 -117.8125 125.6875 C-125.4025 125.6875 -132.9925 125.6875 -140.8125 125.6875 C-140.8125 85.0975 -140.8125 44.5075 -140.8125 2.6875 C-129.613125 2.605 -118.41375 2.5225 -106.875 2.4375 C-103.35465088 2.40108398 -99.83430176 2.36466797 -96.20727539 2.32714844 C-91.86804199 2.30908203 -91.86804199 2.30908203 -89.82884216 2.3057251 C-88.42168602 2.29963147 -87.01454917 2.28566523 -85.60752869 2.26519775 C-77.27222425 2.15013623 -70.12448552 2.25276971 -62.8125 6.6875 C-61.61560547 7.37392578 -61.61560547 7.37392578 -60.39453125 8.07421875 C-52.77179729 13.67768544 -48.71921527 20.80587 -45.8125 29.6875 C-45.44125 28.553125 -45.07 27.41875 -44.6875 26.25 C-40.21069203 14.57316447 -32.64338293 8.17368905 -21.40234375 3.02734375 C-14.26596164 0.12921496 -7.63097164 -0.11564278 0 0 Z " fill="#FC832A" transform="translate(889.8125,316.3125)"/>
<path d="M0 0 C4.04064784 2.26897917 7.59933661 4.62032073 11.046875 7.7109375 C11.64628906 8.17113281 12.24570312 8.63132812 12.86328125 9.10546875 C17.74890825 12.93588474 20.92179683 17.38094306 24.046875 22.7109375 C24.71203125 23.83628906 24.71203125 23.83628906 25.390625 24.984375 C34.28142205 41.30224032 35.59273737 60.52256295 31.0859375 78.40234375 C27.96569395 88.33785611 24.06688148 96.96097459 17.046875 104.7109375 C16.52609375 105.32324219 16.0053125 105.93554688 15.46875 106.56640625 C6.10379093 116.86331513 -7.5216802 122.27753065 -21.265625 123.01953125 C-40.02213041 123.5321184 -54.60104765 118.98720895 -68.953125 106.7109375 C-81.3902016 92.73815231 -86.03956832 77.51970057 -86.203125 59.1484375 C-86.21263184 58.27372803 -86.22213867 57.39901855 -86.23193359 56.49780273 C-86.14107894 38.55737264 -79.79031593 22.79291791 -67.390625 9.8359375 C-50.23195115 -6.32245492 -21.32615242 -10.28299441 0 0 Z " fill="#FB822A" transform="translate(707.953125,321.2890625)"/>
<path d="M0 0 C72.63271997 0 72.63271997 0 90.8203125 17.62109375 C104.44153354 32.4872651 107.73523395 49.10464182 107.23828125 68.75 C106.60860773 82.79513156 100.06783792 97.99782669 90.18359375 108.11328125 C64.59460525 130.22326595 32.82069183 124 0 124 C0 83.08 0 42.16 0 0 Z " fill="#FA822A" transform="translate(413,318)"/>
<path d="M0 0 C1.38880371 0.00737183 1.38880371 0.00737183 2.80566406 0.01489258 C18.41367567 0.28140416 30.42020138 5.56419767 41.75 16.3125 C44.39066272 19.48230314 46.62474472 22.77990409 48.75 26.3125 C49.13800781 26.94671875 49.52601563 27.5809375 49.92578125 28.234375 C58.81040305 44.28844064 60.27546401 65.77362034 55.75 83.3125 C50.15794945 101.88250877 41.49203768 114.40052529 24.25390625 123.8671875 C11.25372717 129.22958021 -7.59049846 129.98421965 -20.6484375 124.640625 C-35.66492915 116.97454818 -46.10272689 106.4515333 -51.40625 90.15234375 C-51.6846875 89.21519531 -51.963125 88.27804687 -52.25 87.3125 C-52.69859375 85.92224609 -52.69859375 85.92224609 -53.15625 84.50390625 C-58.46130689 65.61692131 -56.26578099 44.28181226 -46.94140625 27.05859375 C-39.22274595 14.52691201 -28.77252928 5.51744502 -14.58203125 1.1953125 C-9.73066911 0.0499072 -4.96648399 -0.03111945 0 0 Z " fill="#311D0F" transform="translate(655.25,470.6875)"/>
<path d="M0 0 C15.901875 -0.12375 15.901875 -0.12375 32.125 -0.25 C37.10231201 -0.30462402 37.10231201 -0.30462402 42.18017578 -0.36035156 C44.85188147 -0.37204946 47.52359437 -0.38223867 50.1953125 -0.390625 C51.20523758 -0.40630524 51.20523758 -0.40630524 52.23556519 -0.42230225 C65.16852798 -0.61264776 79.07189458 0.76897432 89 10 C95.61141949 18.28870079 97.09703886 26.53242087 96 37 C93.58793702 44.96842235 88.54013381 51.31409501 81.3984375 55.5390625 C74.68924581 59 74.68924581 59 72 59 C72 59.99 72 60.98 72 62 C72.99 62.061875 73.98 62.12375 75 62.1875 C80.44847141 62.99263849 84.93465419 65.67457361 88.58203125 69.78125 C91.72221135 74.05261889 93.12787684 77.32495459 93.11352539 82.56323242 C93.11341209 83.94432442 93.11341209 83.94432442 93.11329651 85.35331726 C93.10813522 86.34402725 93.10297394 87.33473724 93.09765625 88.35546875 C93.0962413 89.37224197 93.09482635 90.3890152 93.09336853 91.43659973 C93.08776707 94.68692964 93.07521432 97.93719088 93.0625 101.1875 C93.05748519 103.38997296 93.05292225 105.59244701 93.04882812 107.79492188 C93.03864769 113.19666238 93.01907246 118.59825425 93 124 C85.74 124 78.48 124 71 124 C70.98582031 120.80957031 70.97164062 117.61914062 70.95703125 114.33203125 C70.92640558 111.23744157 70.88731806 108.14306625 70.84741211 105.04858398 C70.82423478 102.90022376 70.80983703 100.75174996 70.80444336 98.60327148 C70.79515209 95.51213827 70.75415649 92.42279088 70.70703125 89.33203125 C70.7109639 88.37351761 70.71489655 87.41500397 70.71894836 86.42744446 C70.61840487 81.81793365 70.51417577 79.6726951 67.64331055 75.91674805 C63.08769529 72.6133274 58.81682143 72.79455171 53.39453125 72.68359375 C52.27854553 72.65561707 52.27854553 72.65561707 51.14001465 72.6270752 C48.36429573 72.55884413 45.58838388 72.49865289 42.8125 72.4375 C33.5003125 72.2209375 33.5003125 72.2209375 24 72 C24 89.16 24 106.32 24 124 C16.08 124 8.16 124 0 124 C0 83.08 0 42.16 0 0 Z " fill="#F9812A" transform="translate(527,318)"/>
<path d="M0 0 C10.1475 -0.061875 20.295 -0.12375 30.75 -0.1875 C33.92979492 -0.21481201 37.10958984 -0.24212402 40.38574219 -0.27026367 C42.93944928 -0.27903522 45.4931606 -0.28667757 48.046875 -0.29296875 C49.9952124 -0.3159906 49.9952124 -0.3159906 51.98291016 -0.33947754 C65.18589891 -0.34322413 76.14162891 1.60938909 85.96875 10.8515625 C93.67353784 19.04606143 95.56269235 26.38098851 95.40258789 37.40356445 C95.02282645 47.72597533 91.80645092 56.58300616 84.078125 63.79296875 C75.40805077 70.59796887 67.1131554 72.16028801 56.32421875 72.09765625 C55.09330505 72.09614563 55.09330505 72.09614563 53.83752441 72.09460449 C50.78750195 72.08939319 47.7374995 72.07543197 44.6875 72.0625 C37.860625 72.041875 31.03375 72.02125 24 72 C24 89.16 24 106.32 24 124 C16.08 124 8.16 124 0 124 C0 83.08 0 42.16 0 0 Z " fill="#FB822A" transform="translate(1099,318)"/>
<path d="M0 0 C10.126875 -0.103125 20.25375 -0.20625 30.6875 -0.3125 C33.85819092 -0.35802002 37.02888184 -0.40354004 40.2956543 -0.45043945 C42.84683173 -0.46506097 45.39802096 -0.47779768 47.94921875 -0.48828125 C49.24299438 -0.51386108 50.53677002 -0.53944092 51.86975098 -0.5657959 C62.50314623 -0.57082541 71.99915311 1.56391223 80.5 8.25 C81.70905151 9.45905151 82.87855215 10.70927701 84 12 C84.78890625 12.88171875 84.78890625 12.88171875 85.59375 13.78125 C90.8110602 21.08548429 90.33169337 31.45348786 89 40 C87.63558213 43.79060092 85.8772789 46.21377423 83 49 C82.32710937 49.66386719 81.65421875 50.32773437 80.9609375 51.01171875 C78.37821602 53.39614139 75.99028744 55.51550453 72.8203125 57.06640625 C70.82087398 57.86510969 70.82087398 57.86510969 70 60 C70.87011719 60.23783203 70.87011719 60.23783203 71.7578125 60.48046875 C78.31465039 62.43886423 82.72972085 64.60451648 86.64575195 70.46142578 C88.55656405 75.45427067 88.37180085 80.00547809 88.29296875 85.3046875 C88.28872391 86.38380402 88.28447906 87.46292053 88.28010559 88.57473755 C88.2633642 92.00841624 88.22571944 95.44149983 88.1875 98.875 C88.17244734 101.20832483 88.15875995 103.5416589 88.14648438 105.875 C88.11347539 111.5835613 88.06172355 117.29167988 88 123 C83.38 123 78.76 123 74 123 C73.9906543 121.5365918 73.98130859 120.07318359 73.97167969 118.56542969 C73.9318209 113.13819895 73.86607286 107.71153753 73.79248047 102.28466797 C73.76424712 99.93545848 73.74304442 97.58615359 73.72900391 95.23681641 C73.70760776 91.86050482 73.66097263 88.48534333 73.609375 85.109375 C73.60814636 84.05820496 73.60691772 83.00703491 73.60565186 81.92401123 C73.59263767 76.26493098 73.59263767 76.26493098 71.08691406 71.36816406 C67.76918889 69.19309014 65.8597277 68.86023245 61.90771484 68.79467773 C60.83191162 68.77449585 59.7561084 68.75431396 58.64770508 68.73352051 C57.51357178 68.71704468 56.37943848 68.70056885 55.2109375 68.68359375 C54.17106689 68.66494263 53.13119629 68.6462915 52.05981445 68.6270752 C48.16496503 68.55863263 44.26997189 68.49857656 40.375 68.4375 C31.67125 68.293125 22.9675 68.14875 14 68 C14 86.15 14 104.3 14 123 C9.38 123 4.76 123 0 123 C0 82.41 0 41.82 0 0 Z " fill="#FAF9F9" transform="translate(509,473)"/>
<path d="M0 0 C7.92 0 15.84 0 24 0 C24 16.5 24 33 24 50 C41.49 50 58.98 50 77 50 C77 33.5 77 17 77 0 C84.92 0 92.84 0 101 0 C101 40.92 101 81.84 101 124 C93.08 124 85.16 124 77 124 C77 106.84 77 89.68 77 72 C59.51 72 42.02 72 24 72 C24 89.16 24 106.32 24 124 C16.08 124 8.16 124 0 124 C0 83.08 0 42.16 0 0 Z " fill="#F9812A" transform="translate(946,318)"/>
<path d="M0 0 C69.70046083 0 69.70046083 0 80 10 C87.60662468 18.3516927 89.67522932 25.91227202 89.40625 37.17578125 C88.44672585 46.20822495 84.82584957 53.30463887 78.1015625 59.38671875 C74.90382044 61.841491 71.72059564 63.49079953 68 65 C67.34379166 65.26754593 66.68758331 65.53509186 66.01148987 65.81074524 C59.99791045 68.03915014 54.65153136 68.39866425 48.27734375 68.29296875 C47.40178833 68.28994751 46.52623291 68.28692627 45.62414551 68.28381348 C42.39514145 68.26827529 39.1663072 68.226393 35.9375 68.1875 C28.698125 68.125625 21.45875 68.06375 14 68 C14 86.15 14 104.3 14 123 C9.38 123 4.76 123 0 123 C0 82.41 0 41.82 0 0 Z " fill="#FCFBFB" transform="translate(414,473)"/>
<path d="M0 0 C2.25 1.41015625 2.25 1.41015625 4.3125 3 C5.01375 3.53496094 5.715 4.06992187 6.4375 4.62109375 C14.01489467 11.29436747 19.74587282 22.01687298 20.46362305 32.12915039 C21.20209587 46.98557274 20.39264823 60.25427102 10.26953125 72.09765625 C1.45752179 80.66342193 -7.32924422 82.45731438 -19.21191406 82.43164062 C-25.83706262 82.28123447 -30.60000766 81.50637791 -35.6875 77 C-36.38875 76.41863281 -37.09 75.83726562 -37.8125 75.23828125 C-47.12378668 66.79992769 -51.20703677 55.18599942 -51.8515625 42.86328125 C-52.19652535 28.6100436 -49.16274554 16.93933196 -39.5 6.1875 C-29.31061498 -3.09958527 -12.74212193 -5.7990462 0 0 Z " fill="#352112" transform="translate(696.6875,340)"/>
<path d="M0 0 C1.38880371 0.00737183 1.38880371 0.00737183 2.80566406 0.01489258 C18.41367567 0.28140416 30.42020138 5.56419767 41.75 16.3125 C44.39066272 19.48230314 46.62474472 22.77990409 48.75 26.3125 C49.13800781 26.94671875 49.52601563 27.5809375 49.92578125 28.234375 C58.81040305 44.28844064 60.27546401 65.77362034 55.75 83.3125 C50.15794945 101.88250877 41.49203768 114.40052529 24.25390625 123.8671875 C11.25372717 129.22958021 -7.59049846 129.98421965 -20.6484375 124.640625 C-35.66492915 116.97454818 -46.10272689 106.4515333 -51.40625 90.15234375 C-51.6846875 89.21519531 -51.963125 88.27804687 -52.25 87.3125 C-52.69859375 85.92224609 -52.69859375 85.92224609 -53.15625 84.50390625 C-58.46130689 65.61692131 -56.26578099 44.28181226 -46.94140625 27.05859375 C-39.22274595 14.52691201 -28.77252928 5.51744502 -14.58203125 1.1953125 C-9.73066911 0.0499072 -4.96648399 -0.03111945 0 0 Z M-18.25 17.3125 C-18.92933594 17.74820312 -19.60867188 18.18390625 -20.30859375 18.6328125 C-31.61093672 26.45258098 -37.79021238 37.39186209 -40.625 50.8125 C-42.94823525 67.17095028 -41.03344303 85.48831261 -30.9375 99.0625 C-24.05512916 107.33009378 -17.38599214 110.93383595 -7.25 114.3125 C6.30501543 115.27061812 17.83098668 113.88485905 28.49609375 104.640625 C41.33078408 91.38330188 43.17255084 75.29027468 42.9609375 57.75390625 C42.60347326 44.83444261 38.01399154 32.57649154 28.75 23.3125 C19.90005918 16.09855176 11.6798844 12.7290718 0.25 12.875 C-1.0016394 12.88635986 -1.0016394 12.88635986 -2.27856445 12.89794922 C-8.35602681 13.06115854 -13.14540833 13.82273669 -18.25 17.3125 Z " fill="#FAF9F9" transform="translate(655.25,470.6875)"/>
<path d="M0 0 C38.03488372 0 38.03488372 0 49.90625 11.6015625 C59.07759167 22.10753971 59.9347969 34.21235062 59.22949219 47.578125 C58.35728373 56.78270784 54.03186879 64.29775512 47.6640625 70.8359375 C33.51426637 82.33005342 17.8717323 80 0 80 C0 53.6 0 27.2 0 0 Z " fill="#301E11" transform="translate(437,340)"/>
<path d="M0 0 C6.106035 2.05752736 11.36955647 4.43413612 14.75 10.11328125 C17.48547454 31.21551344 10.25014982 51.73260507 -2.1328125 68.66015625 C-8.28389459 76.56677328 -15.22046632 83.13343203 -24.8125 86.48828125 C-27.5625 86.67578125 -27.5625 86.67578125 -29.8125 86.48828125 C-31.38628612 84.91449513 -31.14390975 83.38377896 -31.265625 81.1953125 C-31.19126328 74.22142216 -27.95769483 69.09737908 -24.5625 63.17578125 C-15.02009573 46.82715329 -15.02009573 46.82715329 -13.8125 28.48828125 C-16.65637593 24.66936214 -19.31622722 22.86988528 -23.8125 21.48828125 C-26.87836156 21.17140899 -29.91974032 21.15691108 -33 21.17578125 C-33.87841553 21.17707031 -34.75683105 21.17835938 -35.66186523 21.1796875 C-42.46858169 21.27740618 -48.93984849 22.15503084 -55.61791992 23.40966797 C-61.28757981 24.4635081 -67.05506341 25.36788962 -72.8125 24.48828125 C-74.8125 22.48828125 -74.8125 22.48828125 -75.5 19.36328125 C-74.59265868 14.24917562 -72.57828413 12.59247053 -68.609375 9.40625 C-59.29868214 3.02140336 -49.39472498 0.40347892 -38.48828125 -1.75 C-25.06100706 -4.53248509 -13.34503885 -4.0735276 0 0 Z " fill="#F98129" transform="translate(1166.8125,473.51171875)"/>
<path d="M0 0 C7.92 0 15.84 0 24 0 C24 40.92 24 81.84 24 124 C16.08 124 8.16 124 0 124 C0 83.08 0 42.16 0 0 Z " fill="#F9812A" transform="translate(1061,318)"/>
<path d="M0 0 C6.01418998 -0.04598786 12.02776629 -0.08579097 18.04199219 -0.10986328 C20.08660961 -0.11990179 22.13121274 -0.13353542 24.17578125 -0.15087891 C27.11982761 -0.1752217 30.06368363 -0.18650478 33.0078125 -0.1953125 C33.9174173 -0.20563507 34.82702209 -0.21595764 35.76419067 -0.22659302 C43.42090547 -0.22793726 48.81391194 1.26171978 55 6 C60.3540195 11.61308496 61.37031529 15.23103822 61.26953125 22.890625 C60.79842012 28.32547226 59.10003565 31.91854873 55.234375 35.75 C47.99044552 41.68203674 40.29248291 42.30489221 31.25 42.1953125 C30.45207031 42.19329834 29.65414062 42.19128418 28.83203125 42.18920898 C25.88796127 42.17884649 22.94397407 42.15092496 20 42.125 C13.4 42.08375 6.8 42.0425 0 42 C0 28.14 0 14.28 0 0 Z " fill="#2F1D0F" transform="translate(523,486)"/>
<path d="M0 0 C10.1165625 -0.0928125 10.1165625 -0.0928125 20.4375 -0.1875 C22.54825928 -0.21481201 24.65901855 -0.24212402 26.83374023 -0.27026367 C28.53368561 -0.27903728 30.23363737 -0.28667914 31.93359375 -0.29296875 C32.79440552 -0.30831665 33.65521729 -0.32366455 34.54211426 -0.33947754 C43.02138057 -0.34308727 50.32177441 1.48112531 56.55859375 7.4140625 C60.98538366 12.28473108 61.55089855 16.95049455 61.34375 23.3203125 C60.62423297 28.9292748 57.85910162 32.3977599 53.875 36.25 C43.88035273 43.88984471 31.27986247 42.35029743 19.375 42.1875 C12.98125 42.125625 6.5875 42.06375 0 42 C0 28.14 0 14.28 0 0 Z " fill="#2D1C0F" transform="translate(428,486)"/>
<path d="M0 0 C5.42736812 -0.11514925 10.85045712 -0.21457031 16.27807617 -0.2746582 C18.12197268 -0.29971773 19.96577068 -0.33377515 21.80932617 -0.37719727 C24.46818406 -0.43822965 27.12572281 -0.4662947 29.78515625 -0.48828125 C31.01057884 -0.52699089 31.01057884 -0.52699089 32.26075745 -0.56648254 C38.10921285 -0.56931319 41.785856 0.88515687 46 5 C48.97661423 9.46492134 48.49203681 13.76442084 48 19 C46.30106982 23.20261675 43.6864981 25.41945133 40 28 C36.1784462 29.27385127 32.5931553 29.12353188 28.61328125 29.09765625 C27.79627243 29.0962413 26.97926361 29.09482635 26.13749695 29.09336853 C23.52912732 29.08777294 20.92084366 29.07522129 18.3125 29.0625 C16.54362103 29.05748443 14.77474072 29.05292162 13.00585938 29.04882812 C8.67051318 29.03865603 4.33535278 29.01907979 0 29 C0 19.43 0 9.86 0 0 Z " fill="#382213" transform="translate(772,340)"/>
<path d="M0 0 C5.14170605 -0.06910207 10.28178252 -0.12876436 15.42358398 -0.16479492 C17.1703845 -0.17982429 18.91714765 -0.20025354 20.66381836 -0.22631836 C23.18352515 -0.2629608 25.70273039 -0.27978492 28.22265625 -0.29296875 C29.3824575 -0.31619453 29.3824575 -0.31619453 30.56568909 -0.33988953 C35.78682349 -0.34148776 39.3639451 0.55342623 44 3 C47.51153329 6.60157261 48.31008996 9.61121601 48.5625 14.5 C48.41962373 18.12610113 48.11473981 20.60066044 45.875 23.5 C40.16478764 28.46540205 35.61328043 29.43804681 28.3203125 29.29296875 C27.50754852 29.28872391 26.69478455 29.28447906 25.85739136 29.28010559 C23.27958041 29.26340804 20.7025718 29.22577362 18.125 29.1875 C16.36980301 29.17244158 14.61459369 29.1587552 12.859375 29.14648438 C8.57236422 29.11609441 4.28707261 29.05735925 0 29 C0 19.43 0 9.86 0 0 Z " fill="#352113" transform="translate(551,340)"/>
<path d="M0 0 C5.30279683 -0.09204469 10.60280125 -0.17161406 15.90576172 -0.21972656 C17.70794081 -0.23979033 19.51005521 -0.26704813 21.31201172 -0.30175781 C23.90869136 -0.35050829 26.50450729 -0.37302082 29.1015625 -0.390625 C30.30191635 -0.42159271 30.30191635 -0.42159271 31.52651978 -0.45318604 C36.83452889 -0.45529521 39.7781451 0.502596 44 4 C47.31087662 7.83364661 48.68435866 10.82719102 48.37890625 15.98046875 C47.71864535 19.4995913 46.47348662 22.39632987 44 25 C38.53534373 28.72478813 34.76181278 29.56522622 28.22265625 29.390625 C27.41130722 29.38496521 26.59995819 29.37930542 25.76402283 29.37347412 C23.1962245 29.3512492 20.62986985 29.30108235 18.0625 29.25 C16.31186924 29.2299169 14.56121641 29.21166931 12.81054688 29.1953125 C8.53937359 29.15484662 4.27128463 29.0765387 0 29 C0 19.43 0 9.86 0 0 Z " fill="#311F12" transform="translate(1123,340)"/>
<path d="M0 0 C0.33 0 0.66 0 1 0 C1 20.13 1 40.26 1 61 C-19.13 61 -39.26 61 -60 61 C-56.47615566 59.23807783 -53.16062352 57.99797436 -49.4375 56.75 C-30.37223211 50.05708493 -15.76703481 38.01907114 -6.89453125 19.828125 C-3.8961794 13.31609128 -1.61271902 6.99361805 0 0 Z " fill="#4C6971" transform="translate(1599,869)"/>
<path d="M0 0 C20.13 0 40.26 0 61 0 C57.47615566 1.76192217 54.16062352 3.00202564 50.4375 4.25 C31.37223211 10.94291507 16.76703481 22.98092886 7.89453125 41.171875 C4.8961794 47.68390872 2.61271902 54.00638195 1 61 C0.67 61 0.34 61 0 61 C0 40.87 0 20.74 0 0 Z " fill="#4C6971" transform="translate(0,0)"/>
<path d="M0 0 C1.76192217 3.52384434 3.00202564 6.83937648 4.25 10.5625 C9.69062169 26.09414103 18.48349383 38.47128291 32 48 C32.76828125 48.54398438 33.5365625 49.08796875 34.328125 49.6484375 C40.43443776 53.6316945 46.76467339 55.79199386 53.6796875 57.921875 C57 59 57 59 61 61 C40.87 61 20.74 61 0 61 C0 40.87 0 20.74 0 0 Z " fill="#4C6971" transform="translate(0,869)"/>
<path d="M0 0 C20.13 0 40.26 0 61 0 C61 20.13 61 40.26 61 61 C59.23807783 57.47615566 57.99797436 54.16062352 56.75 50.4375 C51.30937831 34.90585897 42.51650617 22.52871709 29 13 C28.23171875 12.45601562 27.4634375 11.91203125 26.671875 11.3515625 C20.56556224 7.3683055 14.23532661 5.20800614 7.3203125 3.078125 C4 2 4 2 0 0 Z " fill="#4C6971" transform="translate(1539,0)"/>
<path d="M0 0 C3.125 2 3.125 2 5 5 C5.78601634 8.89155149 5.5832877 12.02785384 3.5 15.5 C3.005 15.995 2.51 16.49 2 17 C2.66 17.680625 3.32 18.36125 4 19.0625 C6.50978123 22.74874118 6.62608836 24.61738151 6 29 C4.20437595 31.75329021 2.94745078 33.52627461 0 35 C-5.20460087 35.51124099 -9.56445931 35.86132441 -14.125 33.125 C-17.04619805 29.81430888 -17.32496799 27.46914191 -17.30078125 23.04296875 C-16.84084984 19.91901903 -15.18000297 18.18000297 -13 16 C-13.495 15.484375 -13.99 14.96875 -14.5 14.4375 C-16.61006839 11.00863886 -16.62491523 8.95779649 -16 5 C-11.60137321 -0.44040682 -6.80617717 -1.38161999 0 0 Z " fill="#EEEDEC" transform="translate(893,738)"/>
<path d="M0 0 C3.41111881 2.77153404 5.76496698 4.94513992 6.2734375 9.390625 C6.58136511 18.05997149 6.58136511 18.05997149 3.625 21.625 C0.3322769 24.60413042 -1.12078934 25.15205903 -5.4375 25.1875 C-6.61119141 25.20876953 -6.61119141 25.20876953 -7.80859375 25.23046875 C-10 25 -10 25 -13 23 C-13.33 27.29 -13.66 31.58 -14 36 C-15.65 36 -17.3 36 -19 36 C-19 24.12 -19 12.24 -19 0 C-17.68 0 -16.36 0 -15 0 C-15 0.99 -15 1.98 -15 3 C-14.195625 2.319375 -13.39125 1.63875 -12.5625 0.9375 C-8.45676475 -1.78668453 -4.58473924 -1.48602966 0 0 Z " fill="#EF7D29" transform="translate(771,161)"/>
<path d="M0 0 C1.32 0 2.64 0 4 0 C4 11.55 4 23.1 4 35 C2.68 35 1.36 35 0 35 C0 34.01 0 33.02 0 32 C-0.639375 32.495 -1.27875 32.99 -1.9375 33.5 C-6.04376265 35.51123069 -9.50209723 35.74284783 -14 35 C-17.61918516 32.84388969 -19.4047467 30.8424797 -21 27 C-21.64095668 22.9113711 -21.95574033 18.77291608 -19.94921875 15.05078125 C-18.18833388 12.90551444 -16.49355028 11.24677514 -14 10 C-12.35857459 9.85359499 -10.7101859 9.77903411 -9.0625 9.75 C-7.74958984 9.71132813 -7.74958984 9.71132813 -6.41015625 9.671875 C-4 10 -4 10 -1 13 C-0.67 8.71 -0.34 4.42 0 0 Z " fill="#F2F1F0" transform="translate(730,738)"/>
<path d="M0 0 C3 2.5 3 2.5 5 5 C5.33 5.33 5.66 5.66 6 6 C6.42472334 10.86798291 6.64469503 15.45273192 4.75 20 C2.30577592 22.79339895 0.33205076 24.75958108 -3.40234375 25.43359375 C-7.63524639 25.44011594 -10.27798326 25.42117643 -14 23.25 C-17.75482297 19.02582416 -18.38491264 15.71244978 -18.2578125 10.18359375 C-17.74789909 5.86478167 -15.27016049 2.72513374 -12 0 C-7.82874825 -1.39041725 -4.24047431 -1.11591429 0 0 Z " fill="#EA7B28" transform="translate(573,161)"/>
<path d="M0 0 C3.92465988 2.1132784 6.63811003 4.22914397 9 8 C9.9148747 12.99472135 9.51986301 16.9961266 7.1875 21.5 C4.87637761 24.14128273 3.24160124 25.81902084 -0.3046875 26.3359375 C-7.26878642 26.44177487 -7.26878642 26.44177487 -11 24.1875 C-15.20314202 19.59031342 -15.37675313 16.66899206 -15.25 10.6640625 C-14.93754716 7.33448692 -14.25303965 5.48611272 -12 3 C-8.06805815 -0.1673976 -4.97806095 -0.61134082 0 0 Z " fill="#EC7C28" transform="translate(694,160)"/>
<path d="M0 0 C16 0 16 0 22 4 C23.61429923 7.22859847 23.59570657 10.50993653 23 14 C21.26397895 17.02508145 19.16419863 19.41790069 16 21 C12.32984725 21.1377685 8.67388652 21.04271961 5 21 C5 25.62 5 30.24 5 35 C3.35 35 1.7 35 0 35 C0 23.45 0 11.9 0 0 Z " fill="#F08029" transform="translate(888,151)"/>
<path d="M0 0 C3.23857278 1.30921027 4.60256422 2.52033613 6.8125 5.1875 C8.66322017 9.57078462 8.92346203 13.5753202 7.23828125 18 C5.34558332 21.59088935 3.75562995 23.55865013 0 25 C-3.39847993 25.52496844 -6.60250035 25.54514176 -10 25 C-13.40132369 22.44900724 -15.39896163 19.90479493 -17 16 C-17.1956857 10.79103303 -16.26840513 6.14836036 -13 2 C-8.74178609 -0.83880927 -4.99661255 -0.51165313 0 0 Z " fill="#EBE9E8" transform="translate(1081,748)"/>
<path d="M0 0 C4.20475482 1.6997945 6.20472472 3.8425204 8 8 C8.75206173 13.6941817 7.41630229 18.41329786 4 23 C-0.29279977 25.81915209 -5.04619771 25.78682759 -10 25 C-13.76041161 22.2580332 -15.8213751 19.50020417 -17 15 C-17.47374178 10.65736698 -17.30130129 8.55065408 -15.1875 4.6875 C-10.73573636 -0.78180961 -6.60952141 -0.67681499 0 0 Z " fill="#EBE9E8" transform="translate(968,748)"/>
<path d="M0 0 C3.12291165 1.68012647 5.39164837 3.78329674 7 7 C8.03037808 16.00844834 8.03037808 16.00844834 5.953125 20.0234375 C3.55684486 22.91306943 1.56568856 24.83096106 -2.20703125 25.23828125 C-9.24770268 25.43884011 -9.24770268 25.43884011 -13 23.25 C-16.70767415 19.07886658 -17.44145407 15.72789368 -17.32421875 10.25390625 C-16.82304045 6.76981134 -15.25055134 4.63636014 -13 2 C-8.7581081 -0.82792793 -4.98126257 -0.78122286 0 0 Z " fill="#F1F0EF" transform="translate(487,748)"/>
<path d="M0 0 C1.65 0 3.3 0 5 0 C6.83979221 3.6217573 8.67072866 7.24791898 10.5 10.875 C11.02464844 11.90753906 11.54929687 12.94007813 12.08984375 14.00390625 C12.58613281 14.99003906 13.08242188 15.97617187 13.59375 16.9921875 C14.28500977 18.35899658 14.28500977 18.35899658 14.99023438 19.75341797 C16 22 16 22 16 24 C16.66 24 17.32 24 18 24 C18.11786865 23.27079346 18.2357373 22.54158691 18.35717773 21.7902832 C19.00532598 18.97688164 19.92283161 16.89042726 21.28515625 14.35546875 C21.73310547 13.51435547 22.18105469 12.67324219 22.64257812 11.80664062 C23.11115234 10.94232422 23.57972656 10.07800781 24.0625 9.1875 C24.53494141 8.30384766 25.00738281 7.42019531 25.49414062 6.50976562 C26.65703284 4.33668422 27.82578375 2.16697716 29 0 C30.65 0 32.3 0 34 0 C34 11.55 34 23.1 34 35 C32.68 35 31.36 35 30 35 C29.505 22.625 29.505 22.625 29 10 C25.7 16.6 22.4 23.2 19 30 C17.68 30 16.36 30 15 30 C11.7 23.73 8.4 17.46 5 11 C4.67 18.92 4.34 26.84 4 35 C2.68 35 1.36 35 0 35 C0 23.45 0 11.9 0 0 Z " fill="#EFEDED" transform="translate(640,738)"/>
<path d="M0 0 C4.25676762 0.0546518 6.94723214 0.34756764 10.25 3.25 C13.10093881 6.69078822 13.78349219 9.71148216 13.60546875 14.1875 C12.9686007 17.88273441 11.44258437 20.20474394 9.25 23.25 C4.90998575 26.01687476 0.23154668 26.06413627 -4.75 25.25 C-7.57424288 23.05977082 -9.16508603 21.41982793 -10.75 18.25 C-11.80290309 8.06692301 -11.80290309 8.06692301 -9.66796875 4.3828125 C-8.3125 3.0625 -8.3125 3.0625 -5.75 1.25 C-4.11069007 -0.38930993 -2.25256326 0.03998633 0 0 Z " fill="#EDECEB" transform="translate(1169.75,747.75)"/>
<path d="M0 0 C3.12578143 1.6720747 5.39281175 3.7856235 7 7 C7.55601425 12.06793316 7.55831633 15.92187191 5.1875 20.5 C2.87637761 23.14128273 1.24160124 24.81902084 -2.3046875 25.3359375 C-6.57276853 25.40080195 -9.24596584 25.43985326 -13 23.25 C-16.89633357 18.86662474 -17.48802294 15.23445706 -17.39453125 9.48046875 C-16.75198843 5.44071935 -14.9613537 3.74982843 -12 1 C-8.27533151 -0.86233425 -4.05504687 -0.57130829 0 0 Z " fill="#F1F0EF" transform="translate(697,748)"/>
<path d="M0 0 C0.66 0 1.32 0 2 0 C1.80664062 0.67804688 1.61328125 1.35609375 1.4140625 2.0546875 C1.15367187 2.98539062 0.89328125 3.91609375 0.625 4.875 C0.24214844 6.23238281 0.24214844 6.23238281 -0.1484375 7.6171875 C-0.42945313 8.73351562 -0.71046875 9.84984375 -1 11 C-1.27009888 12.05912598 -1.27009888 12.05912598 -1.5456543 13.13964844 C-3.19090887 20.29115746 -3.19802905 27.18964524 -3.0625 34.5 C-3.02819085 36.82285635 -2.99802203 39.14577878 -2.97265625 41.46875 C-2.94570679 42.99145508 -2.94570679 42.99145508 -2.91821289 44.54492188 C-3 47 -3 47 -4 49 C-4.11747478 50.41882881 -4.17685428 51.84271414 -4.20532227 53.26611328 C-4.22526749 54.14687531 -4.24521271 55.02763733 -4.26576233 55.93508911 C-4.29083107 57.36327469 -4.29083107 57.36327469 -4.31640625 58.8203125 C-4.33718735 59.79410858 -4.35796844 60.76790466 -4.37937927 61.77120972 C-4.44488598 64.88906647 -4.50376497 68.00700903 -4.5625 71.125 C-4.60568415 73.23568604 -4.6492984 75.34636333 -4.69335938 77.45703125 C-4.80056847 82.6379295 -4.90233278 87.81891356 -5 93 C-5.33 93 -5.66 93 -6 93 C-6.00364563 92.44147339 -6.00729126 91.88294678 -6.01104736 91.30749512 C-6.05302852 85.46662568 -6.12248222 79.62653065 -6.20751953 73.78613281 C-6.23565367 71.60977951 -6.2569056 69.43332547 -6.27099609 67.25683594 C-6.29253006 64.11861882 -6.33923506 60.98160337 -6.390625 57.84375 C-6.39185364 56.87884644 -6.39308228 55.91394287 -6.39434814 54.9197998 C-6.55147495 47.58603861 -8.01519052 41.90626186 -13.375 36.6875 C-17.78319827 33.85365826 -21.77842245 31.76787905 -27 31 C-27 30.01 -27 29.02 -27 28 C-26.21496094 27.64808594 -25.42992187 27.29617188 -24.62109375 26.93359375 C-13.05678363 21.49907746 -8.22545758 16.61074694 -3.26171875 4.79296875 C-2 2 -2 2 0 0 Z " fill="#3B2413" transform="translate(626,349)"/>
<path d="M0 0 C1.65 0 3.3 0 5 0 C5 7.92 5 15.84 5 24 C6.65 24 8.3 24 10 24 C10 24.99 10 25.98 10 27 C8.35 27 6.7 27 5 27 C5 29.64 5 32.28 5 35 C3.68 35 2.36 35 1 35 C1 32.36 1 29.72 1 27 C-4.94 27 -10.88 27 -17 27 C-15.87521932 21.3760966 -15.87521932 21.3760966 -13.671875 18.4765625 C-12.96611328 17.53296875 -12.96611328 17.53296875 -12.24609375 16.5703125 C-11.75238281 15.92835938 -11.25867188 15.28640625 -10.75 14.625 C-9.78604999 13.34666198 -8.82250636 12.06801742 -7.859375 10.7890625 C-7.38048828 10.16676758 -6.90160156 9.54447266 -6.40820312 8.90332031 C-5.46055297 7.6224811 -4.55803162 6.30713979 -3.70117188 4.96386719 C-2.453125 3.0234375 -2.453125 3.0234375 0 0 Z " fill="#ECEBEA" transform="translate(612,738)"/>
<path d="M0 0 C1.65 0 3.3 0 5 0 C5 7.59 5 15.18 5 23 C6.65 23 8.3 23 10 23 C10 23.99 10 24.98 10 26 C8.35 26 6.7 26 5 26 C5 28.64 5 31.28 5 34 C3.68 34 2.36 34 1 34 C1 31.36 1 28.72 1 26 C-4.61 26 -10.22 26 -16 26 C-14.87462687 20.37313433 -14.87462687 20.37313433 -12.63671875 17.1875 C-12.16169922 16.50429688 -11.68667969 15.82109375 -11.19726562 15.1171875 C-10.44993164 14.06917969 -10.44993164 14.06917969 -9.6875 13 C-9.20087891 12.30132813 -8.71425781 11.60265625 -8.21289062 10.8828125 C-7.26115145 9.52501502 -6.29904357 8.17441414 -5.32568359 6.83203125 C-4.1746456 5.24135186 -3.06219872 3.62288455 -1.95703125 2 C-1.31121094 1.34 -0.66539062 0.68 0 0 Z " fill="#F1F0EF" transform="translate(311,739)"/>
<path d="M0 0 C2.4375 1.0625 2.4375 1.0625 4 2 C4.515625 1.505 5.03125 1.01 5.5625 0.5 C8.93763128 -1.57700386 11.09800946 -1.47919182 15 -1 C17.75329021 0.79562405 19.52627461 2.05254922 21 5 C21.08372659 6.52148326 21.10730027 8.04655778 21.09765625 9.5703125 C21.09443359 10.46621094 21.09121094 11.36210937 21.08789062 12.28515625 C21.07532227 13.69087891 21.07532227 13.69087891 21.0625 15.125 C21.05798828 16.06988281 21.05347656 17.01476562 21.04882812 17.98828125 C21.03702357 20.32558387 21.02055759 22.66276061 21 25 C19.68 25 18.36 25 17 25 C16.970271 24.15236084 16.970271 24.15236084 16.93994141 23.28759766 C16.84481764 20.73292003 16.73508942 18.17907459 16.625 15.625 C16.5940625 14.73554688 16.563125 13.84609375 16.53125 12.9296875 C16.47324219 11.65351563 16.47324219 11.65351563 16.4140625 10.3515625 C16.3826416 9.56604004 16.3512207 8.78051758 16.31884766 7.97119141 C16.1600535 5.76997061 16.1600535 5.76997061 14 4 C11 3.66666667 11 3.66666667 8 4 C5.6031335 6.3968665 5.71718867 7.07028314 5.5859375 10.3515625 C5.54726563 11.20234375 5.50859375 12.053125 5.46875 12.9296875 C5.42234375 14.26386719 5.42234375 14.26386719 5.375 15.625 C5.33632813 16.5221875 5.29765625 17.419375 5.2578125 18.34375 C5.16340643 20.5622927 5.07783252 22.78082403 5 25 C3.35 25 1.7 25 0 25 C-0.01981934 24.43490723 -0.03963867 23.86981445 -0.06005859 23.28759766 C-0.15518236 20.73292003 -0.26491058 18.17907459 -0.375 15.625 C-0.4059375 14.73554688 -0.436875 13.84609375 -0.46875 12.9296875 C-0.50742187 12.07890625 -0.54609375 11.228125 -0.5859375 10.3515625 C-0.6173584 9.56604004 -0.6487793 8.78051758 -0.68115234 7.97119141 C-0.8399465 5.76997061 -0.8399465 5.76997061 -3 4 C-6.58343976 3.83322718 -6.58343976 3.83322718 -10 4 C-10.88639389 6.65918166 -11.17989025 8.48064641 -11.31640625 11.23046875 C-11.35830078 12.03291016 -11.40019531 12.83535156 -11.44335938 13.66210938 C-11.50233398 14.91217773 -11.50233398 14.91217773 -11.5625 16.1875 C-11.60568359 17.03248047 -11.64886719 17.87746094 -11.69335938 18.74804688 C-11.79931518 20.83184433 -11.9001502 22.91590103 -12 25 C-13.32 25 -14.64 25 -16 25 C-16 16.75 -16 8.5 -16 0 C-14.68 0 -13.36 0 -12 0 C-12 0.66 -12 1.32 -12 2 C-11.319375 1.484375 -10.63875 0.96875 -9.9375 0.4375 C-6.13136744 -1.42507551 -4.07156016 -0.96236877 0 0 Z " fill="#EA7B28" transform="translate(725,161)"/>
<path d="M0 0 C2.96922861 1.79349379 5.42452071 3.84904142 7 7 C7.08342159 8.44848582 7.10732861 9.90070869 7.09765625 11.3515625 C7.09443359 12.20234375 7.09121094 13.053125 7.08789062 13.9296875 C7.07951172 14.81914062 7.07113281 15.70859375 7.0625 16.625 C7.05798828 17.5221875 7.05347656 18.419375 7.04882812 19.34375 C7.03702591 21.56256648 7.02056155 23.78125018 7 26 C5.68 26 4.36 26 3 26 C2.67 25.01 2.34 24.02 2 23 C1.505 23.495 1.01 23.99 0.5 24.5 C-2.95961849 26.5757711 -6.12045027 26.81432133 -10 26 C-13.4752331 23.53837655 -14.77086776 22.12274796 -15.625 17.9375 C-15 15 -15 15 -13.25 12.625 C-8.29290434 10.14645217 -3.44231023 10.68752286 2 11 C1.65555119 8.52733235 1.65555119 8.52733235 1 6 C-1.79870027 4.60064987 -3.90498792 4.74734595 -7 5 C-8.62514468 6.45833358 -8.62514468 6.45833358 -10 8 C-11.32 8 -12.64 8 -14 8 C-13.07870137 4.90108642 -12.32841931 3.27211886 -9.8125 1.1875 C-6.18809156 -0.34280578 -3.90521954 -0.54810099 0 0 Z " fill="#EA7B28" transform="translate(797,160)"/>
<path d="M0 0 C3.70390021 2.02666238 5.65363011 3.48044516 8 7 C8 9.31 8 11.62 8 14 C1.73 14 -4.54 14 -11 14 C-9.68702878 19.98538237 -9.68702878 19.98538237 -6 22 C-2.42823885 21.91832511 -2.42823885 21.91832511 1 21 C1.66 20.01 2.32 19.02 3 18 C4.32 18 5.64 18 7 18 C6.69025617 20.89094238 5.95829554 22.04691751 4 24.25 C-0.06523094 26.62138471 -3.39477896 26.84415122 -8 26 C-11.33600367 23.94161475 -12.8262176 22.2606736 -15 19 C-15.65868019 13.62333145 -15.93047242 8.6615579 -13.25 3.875 C-8.82359904 0.18633253 -5.86942273 -0.60718166 0 0 Z " fill="#F48029" transform="translate(948,160)"/>
<path d="M0 0 C3.10039543 1.75494081 5.48825667 3.48825667 8 6 C8 8.64 8 11.28 8 14 C1.73 14 -4.54 14 -11 14 C-8.66151858 19.91731018 -8.66151858 19.91731018 -5 22 C-2.54258463 22.50014953 -2.54258463 22.50014953 0 22 C1.35368596 20.68733482 2.68799596 19.35432675 4 18 C5.32 18 6.64 18 8 18 C6.71814661 21.95238127 5.55188824 23.82905605 2 26 C-1.40336711 26.66407163 -4.5862581 26.59201035 -8 26 C-11.75870899 23.2592747 -13.84745279 20.50541181 -15 16 C-15.85578343 9.36767842 -15.85578343 9.36767842 -13.7265625 5.96484375 C-9.41955729 0.84896195 -6.91320835 -0.5761007 0 0 Z " fill="#ED7C28" transform="translate(1000,160)"/>
<path d="M0 0 C2.93423195 1.79646854 4.47205355 2.9441071 6 6 C6 8.31 6 10.62 6 13 C-0.27 13 -6.54 13 -13 13 C-10.5797509 18.63106761 -10.5797509 18.63106761 -8 21 C-5.04211431 21.4167552 -5.04211431 21.4167552 -2 21 C-0.37485532 19.54166642 -0.37485532 19.54166642 1 18 C2.32 18 3.64 18 5 18 C4.63595523 20.63932462 4.24498227 21.77318495 2.26171875 23.609375 C-1.61871078 25.99526949 -5.59360027 25.64274874 -10 25 C-13.15460202 23.22553637 -14.50737276 21.84450384 -16.3125 18.75 C-17.68394523 13.26421908 -17.83999618 9.56413081 -15.1875 4.625 C-10.76045604 -0.68745276 -6.53777195 -0.87587375 0 0 Z " fill="#ECEBEA" transform="translate(1251,748)"/>
<path d="M0 0 C2.82424288 2.19022918 4.41508603 3.83017207 6 7 C6 8.98 6 10.96 6 13 C-0.27 13 -6.54 13 -13 13 C-10.98848737 19.77489892 -10.98848737 19.77489892 -8 21 C-4.62177584 21.14375422 -2.22609045 21.07536348 1 20 C1 19.34 1 18.68 1 18 C2.32 18 3.64 18 5 18 C3.75023244 21.65316671 3.32901247 22.78065836 0 25 C-4.79689791 25.69920885 -8.77459282 25.71482085 -13 23.25 C-16.89633357 18.86662474 -17.48802294 15.23445706 -17.39453125 9.48046875 C-16.75198843 5.44071935 -14.9613537 3.74982843 -12 1 C-8.28546768 -0.85726616 -4.04420575 -0.58501089 0 0 Z " fill="#EFEEED" transform="translate(410,748)"/>
<path d="M0 0 C3.0625 2.4375 3.0625 2.4375 5 5 C5.33 5.33 5.66 5.66 6 6 C6 8.31 6 10.62 6 13 C-0.27 13 -6.54 13 -13 13 C-10.98848737 19.77489892 -10.98848737 19.77489892 -8 21 C-5.04195427 21.33340471 -5.04195427 21.33340471 -2 21 C-0.37485532 19.54166642 -0.37485532 19.54166642 1 18 C2.32 18 3.64 18 5 18 C3.52559727 22.66894198 3.52559727 22.66894198 1.1953125 24.13671875 C-2.53840568 25.60496024 -6.06286389 25.68116542 -10 25 C-13.57236674 23.0729972 -15.69560702 20.91317895 -17 17 C-17.494097 12.89899494 -17.95235971 8.7767905 -15.953125 5.046875 C-11.39916621 -0.47145153 -6.85271801 -1.00204839 0 0 Z " fill="#EFEEED" transform="translate(796,748)"/>
<path d="M0 0 C5.21065418 1.73688473 7.36198362 4.23127809 10 9 C10 9.66 10 10.32 10 11 C7.6875 11.3125 7.6875 11.3125 5 11 C3.3125 8.5625 3.3125 8.5625 2 6 C-0.47378124 4.76310938 -2.17915317 4.86689913 -4.9375 4.875 C-5.81277344 4.87242187 -6.68804688 4.86984375 -7.58984375 4.8671875 C-10.14459056 4.90177997 -10.14459056 4.90177997 -13 6 C-15.06270507 9.80807089 -15.29749068 13.21733959 -15.3125 17.5 C-15.32925781 18.6034375 -15.34601563 19.706875 -15.36328125 20.84375 C-14.95835973 24.36177785 -14.11512254 26.18644122 -12 29 C-7.72337542 31.85108306 -4.17324505 31.144883 0.8125 30.8125 C3.27252014 30.17907982 3.27252014 30.17907982 4.3125 27.4375 C4.539375 26.633125 4.76625 25.82875 5 25 C6.32 25 7.64 25 9 25 C8.52153935 29.30614589 7.34073619 31.24880549 4 34 C-2.06763422 36.02254474 -8.78306016 36.0501294 -14.5625 33.3125 C-18.71458097 29.37334626 -20.65938988 25.54365527 -21.203125 19.88671875 C-21.31644871 14.56994809 -20.72178367 10.71775837 -18 6 C-12.36364729 0.19831428 -7.83547506 -0.65094716 0 0 Z " fill="#E9E8E6" transform="translate(1144,738)"/>
<path d="M0 0 C1.32 0 2.64 0 4 0 C4 4.95 4 9.9 4 15 C9.94 15 15.88 15 22 15 C22 10.05 22 5.1 22 0 C23.32 0 24.64 0 26 0 C26 11.22 26 22.44 26 34 C24.68 34 23.36 34 22 34 C22 28.72 22 23.44 22 18 C16.06 18 10.12 18 4 18 C4 23.28 4 28.56 4 34 C2.68 34 1.36 34 0 34 C0 22.78 0 11.56 0 0 Z " fill="#F2F1F1" transform="translate(919,739)"/>
<path d="M0 0 C6.27 0 12.54 0 19 0 C19 1.32 19 2.64 19 4 C13.72 4 8.44 4 3 4 C3 6.97 3 9.94 3 13 C3.33 12.67 3.66 12.34 4 12 C8.76514923 11.3718259 13.50553914 11.05804729 17.5625 13.9375 C20.72747435 17.91400623 21.3901036 20.97298321 21 26 C19.49002285 30.29151399 17.85358021 32.63376654 14 35 C10.27161399 35.66677544 6.73735231 35.59797637 3 35 C-0.12912033 32.74703336 -1.54157218 31.30475611 -2.8125 27.6875 C-2.9053125 26.8521875 -2.9053125 26.8521875 -3 26 C-1.68 26 -0.36 26 1 26 C1.8971875 27.2375 1.8971875 27.2375 2.8125 28.5 C4.84653958 31.37427045 4.84653958 31.37427045 8.5625 31.5 C11.91662233 31.28658745 11.91662233 31.28658745 13.875 29.625 C16.16466729 26.31770281 16.40162165 24.01621646 16 20 C14.56338689 17.47993156 14.56338689 17.47993156 12 16 C8.45769191 15.41657647 8.45769191 15.41657647 5 16 C3.31201173 17.43750191 3.31201173 17.43750191 2 19 C0.68 19 -0.64 19 -2 19 C-1.85761163 16.95809019 -1.71092972 14.91647955 -1.5625 12.875 C-1.48128906 11.73804688 -1.40007812 10.60109375 -1.31640625 9.4296875 C-1.02485329 6.26939737 -0.52175475 3.13052852 0 0 Z " fill="#F0EFEE" transform="translate(329,738)"/>
<path d="M0 0 C3 1.3125 3 1.3125 5 3 C5.86625 3.7115625 5.86625 3.7115625 6.75 4.4375 C8.20432332 6.25540415 8.60772535 7.72480703 9 10 C6.75 10.3125 6.75 10.3125 4 10 C1.8125 7.5625 1.8125 7.5625 0 5 C-3.75098851 3.12450575 -7.81907359 3.73757191 -11.8125 4.625 C-14.17460895 5.86377646 -14.17460895 5.86377646 -15.3125 8.375 C-16.48854886 14.57598488 -17.85666388 22.16648975 -14.1875 27.75 C-10.13823596 30.60830403 -7.393253 30.7843713 -2.51953125 30.54296875 C1.01851115 29.7805069 2.07910023 27.95523041 4 25 C6.75 24.6875 6.75 24.6875 9 25 C7.68954637 28.93136089 6.16791954 31.31206827 3 34 C-1.62835514 35.54278505 -6.1664845 35.50478774 -11 35 C-16.14853681 32.4257316 -19.182008 29.45397599 -21 24 C-21.90747098 12.02435835 -21.90747098 12.02435835 -19.375 6.375 C-13.25165907 0.25165907 -8.52629628 -1.09344868 0 0 Z " fill="#F17E29" transform="translate(665,151)"/>
<path d="M0 0 C1.32 0 2.64 0 4 0 C4.06058594 1.27617187 4.12117187 2.55234375 4.18359375 3.8671875 C4.26799568 5.53647016 4.35264386 7.20574037 4.4375 8.875 C4.47681641 9.71675781 4.51613281 10.55851563 4.55664062 11.42578125 C4.59853516 12.23144531 4.64042969 13.03710938 4.68359375 13.8671875 C4.72025146 14.61081543 4.75690918 15.35444336 4.79467773 16.12060547 C4.89955865 18.08864312 4.89955865 18.08864312 6 20 C7.27875 20.061875 8.5575 20.12375 9.875 20.1875 C10.59429688 20.22230469 11.31359375 20.25710937 12.0546875 20.29296875 C13.01761719 20.14794922 13.01761719 20.14794922 14 20 C15.9756562 17.03651571 16.26376859 16.31979627 16.4140625 12.98828125 C16.45273437 12.23095703 16.49140625 11.47363281 16.53125 10.69335938 C16.57765625 9.51483398 16.57765625 9.51483398 16.625 8.3125 C16.66367187 7.51521484 16.70234375 6.71792969 16.7421875 5.89648438 C16.83632494 3.93136525 16.91924632 1.9657146 17 0 C18.65 0 20.3 0 22 0 C22 8.25 22 16.5 22 25 C20.35 25 18.7 25 17 25 C16.67 24.34 16.34 23.68 16 23 C15.01 23.66 14.02 24.32 13 25 C6.02766798 25.55335968 6.02766798 25.55335968 2.5625 23.6875 C-0.04337431 20.87315574 -0.12220046 18.20786787 -0.09765625 14.55078125 C-0.09443359 13.70322266 -0.09121094 12.85566406 -0.08789062 11.98242188 C-0.07951172 11.10134766 -0.07113281 10.22027344 -0.0625 9.3125 C-0.05798828 8.41982422 -0.05347656 7.52714844 -0.04882812 6.60742188 C-0.03704983 4.40488013 -0.02060164 2.20247401 0 0 Z " fill="#DB7426" transform="translate(585,161)"/>
<path d="M0 0 C3.49406769 1.66762322 4.82670681 2.74006022 7 6 C7.22705078 8.17651367 7.22705078 8.17651367 7.1953125 10.66796875 C7.18886719 11.56064453 7.18242188 12.45332031 7.17578125 13.37304688 C7.15902344 14.30181641 7.14226563 15.23058594 7.125 16.1875 C7.11597656 17.12787109 7.10695313 18.06824219 7.09765625 19.03710938 C7.07409056 21.35832968 7.04119116 23.67903644 7 26 C5.35 26 3.7 26 2 26 C1.505 16.1 1.505 16.1 1 6 C-1.79870027 4.60064987 -3.90498792 4.74734595 -7 5 C-9.04845686 6.54455516 -9.8843424 7.46690401 -10.43237305 9.99291992 C-10.45855713 10.73131104 -10.48474121 11.46970215 -10.51171875 12.23046875 C-10.54716797 13.03291016 -10.58261719 13.83535156 -10.61914062 14.66210938 C-10.64169922 15.49548828 -10.66425781 16.32886719 -10.6875 17.1875 C-10.72166016 18.03248047 -10.75582031 18.87746094 -10.79101562 19.74804688 C-10.87341471 21.83156649 -10.93838645 23.91576216 -11 26 C-12.32 26 -13.64 26 -15 26 C-15 17.75 -15 9.5 -15 1 C-13.68 1 -12.36 1 -11 1 C-10.67 1.66 -10.34 2.32 -10 3 C-9.46375 2.505 -8.9275 2.01 -8.375 1.5 C-5.30142595 -0.44120466 -3.58544099 -0.43903359 0 0 Z " fill="#CC6C24" transform="translate(825,160)"/>
<path d="M0 0 C3.62532374 0.75527578 5.36306228 2.06340335 8 4.625 C9.75472073 8.13444146 8.95563207 11.91451133 8 15.625 C5.39023997 18.68214746 3.88726622 19.48014021 -0.0625 20.125 C-3 19.625 -3 19.625 -5.3125 18.1875 C-7.7621025 14.46773324 -8.44418356 11.05917723 -8 6.625 C-6.31527371 2.83050179 -4.14591473 0.86373223 0 0 Z " fill="#2A1B10" transform="translate(721,750.375)"/>
<path d="M0 0 C5.59366755 2.95514512 5.59366755 2.95514512 6.875 6.25 C6.91625 6.8275 6.9575 7.405 7 8 C4.625 8.1875 4.625 8.1875 2 8 C1.34 7.01 0.68 6.02 0 5 C-3.08365871 4.7497843 -3.08365871 4.7497843 -6 5 C-5.67 6.65 -5.34 8.3 -5 10 C-3.7625 10.268125 -2.525 10.53625 -1.25 10.8125 C4.83893557 12.38871382 4.83893557 12.38871382 7 15 C7.5625 18.4375 7.5625 18.4375 7 22 C4.85343816 24.70051329 3.25443901 25.77996278 -0.16015625 26.37890625 C-4.20988663 26.58849163 -6.49118715 26.2907502 -10.0625 24.25 C-12 22 -12 22 -12 18 C-10.68 18 -9.36 18 -8 18 C-7.34 18.99 -6.68 19.98 -6 21 C-4.02252878 21.36297936 -4.02252878 21.36297936 -1.875 21.1875 C-0.59625 21.125625 0.6825 21.06375 2 21 C1.67 19.35 1.34 17.7 1 16 C0.39671875 15.90203125 -0.2065625 15.8040625 -0.828125 15.703125 C-4.59472359 14.99840655 -7.40078682 14.42383372 -10.5625 12.1875 C-12.35320349 9.46251643 -12.63968736 8.19843682 -12 5 C-8.32973019 0.59567623 -5.71794906 -0.54980279 0 0 Z " fill="#E47827" transform="translate(973,160)"/>
<path d="M0 0 C2.5625 2.4375 2.5625 2.4375 4 5 C4 5.66 4 6.32 4 7 C2.35 7 0.7 7 -1 7 C-1 6.01 -1 5.02 -1 4 C-3.64 4 -6.28 4 -9 4 C-8.67 5.65 -8.34 7.3 -8 9 C-7.30132813 9.19335938 -6.60265625 9.38671875 -5.8828125 9.5859375 C-4.97273438 9.84632813 -4.06265625 10.10671875 -3.125 10.375 C-2.22007813 10.63023437 -1.31515625 10.88546875 -0.3828125 11.1484375 C2 12 2 12 4 14 C4.4375 17.375 4.4375 17.375 4 21 C1.85343816 23.70051329 0.25443901 24.77996278 -3.16015625 25.37890625 C-7.20988663 25.58849163 -9.49118715 25.2907502 -13.0625 23.25 C-15 21 -15 21 -15 17 C-13.68 17 -12.36 17 -11 17 C-10.34 17.99 -9.68 18.98 -9 20 C-7.02252878 20.36297936 -7.02252878 20.36297936 -4.875 20.1875 C-3.59625 20.125625 -2.3175 20.06375 -1 20 C-1 18.68 -1 17.36 -1 16 C-1.67546875 15.82984375 -2.3509375 15.6596875 -3.046875 15.484375 C-12.75615341 12.84659416 -12.75615341 12.84659416 -15 9 C-15.0625 5.4375 -15.0625 5.4375 -14 2 C-10.03794612 -1.96205388 -5.07438227 -1.58101089 0 0 Z " fill="#F17F29" transform="translate(1076,161)"/>
<path d="M0 0 C5.57894737 3.15789474 5.57894737 3.15789474 7 6 C7.08372659 7.52148326 7.10730027 9.04655778 7.09765625 10.5703125 C7.09443359 11.46621094 7.09121094 12.36210937 7.08789062 13.28515625 C7.07951172 14.22230469 7.07113281 15.15945312 7.0625 16.125 C7.05798828 17.06988281 7.05347656 18.01476562 7.04882812 18.98828125 C7.03702357 21.32558387 7.02055759 23.66276061 7 26 C5.68 26 4.36 26 3 26 C2.95101563 24.73542969 2.90203125 23.47085938 2.8515625 22.16796875 C2.7765262 20.50779053 2.70097873 18.84763536 2.625 17.1875 C2.5940625 16.35412109 2.563125 15.52074219 2.53125 14.66210938 C2.49257812 13.85966797 2.45390625 13.05722656 2.4140625 12.23046875 C2.36693115 11.12288208 2.36693115 11.12288208 2.31884766 9.99291992 C2.09165386 7.68650412 2.09165386 7.68650412 0 5 C-3.45769191 4.41657647 -3.45769191 4.41657647 -7 5 C-9.73390009 7.40964683 -10.2175448 9.61864069 -10.51171875 13.109375 C-10.58440698 14.65565179 -10.64259399 16.20266715 -10.6875 17.75 C-10.72166016 18.54277344 -10.75582031 19.33554688 -10.79101562 20.15234375 C-10.87319104 22.10107504 -10.93828045 24.05051362 -11 26 C-12.32 26 -13.64 26 -15 26 C-15 17.75 -15 9.5 -15 1 C-13.68 1 -12.36 1 -11 1 C-10.67 1.66 -10.34 2.32 -10 3 C-9.46375 2.505 -8.9275 2.01 -8.375 1.5 C-5.26366038 -0.4650566 -3.63288013 -0.50860322 0 0 Z " fill="#F17E29" transform="translate(1029,160)"/>
<path d="M0 0 C2.35565478 1.82373274 2.86435649 3.18461484 3.34765625 6.08984375 C3.62718959 10.39752426 3.38892688 12.43948773 0.875 16.0625 C-2 18 -2 18 -5 18.6875 C-8.43469938 17.90038139 -10.00706791 16.62844888 -12.08203125 13.78125 C-13.67808702 10.68422264 -13.55354193 8.38275623 -13 5 C-9.16674349 -0.87765998 -6.80962307 -1.55307193 0 0 Z " fill="#27190F" transform="translate(487,752)"/>
<path d="M0 0 C3.7742893 1.16659851 5.30801297 1.74050024 7.4375 5.0625 C8.03017464 8.71607657 7.82190809 11.9388456 6.625 15.4375 C5.4375 17.0625 5.4375 17.0625 2.4375 19.0625 C-0.5 19.4375 -0.5 19.4375 -3.5625 19.0625 C-5.86525556 17.1954009 -7.24073871 15.70602259 -8.5625 13.0625 C-9.24910598 6.08200585 -9.24910598 6.08200585 -6.5 2 C-3.5625 0.0625 -3.5625 0.0625 0 0 Z " fill="#291A0F" transform="translate(692.5625,750.9375)"/>
<path d="M0 0 C3.5625 0.625 3.5625 0.625 6.5 2.625 C8.80588863 5.97901983 9.26618257 7.71360524 8.97265625 11.6875 C8.2706633 15.00358099 7.19933762 16.5155299 4.5625 18.625 C1.60598869 19.24366635 -0.34288837 19.01796656 -3.4375 18.625 C-5.61226401 17.08161909 -6.25582637 15.98834727 -7.4375 13.625 C-7.80817927 9.10271296 -7.97869588 6.66409608 -5.875 2.625 C-3.4375 0.625 -3.4375 0.625 0 0 Z " fill="#332215" transform="translate(764.4375,163.375)"/>
<path d="M0 0 C2.23046875 0.02734375 2.23046875 0.02734375 5 1 C6.81967457 3.33019225 8.03515671 5.90576976 9.3125 8.5625 C10.529375 11.016875 11.74625 13.47125 13 16 C15.64 10.72 18.28 5.44 21 0 C22.65 0 24.3 0 26 0 C18 16 18 16 16.90429688 18.01367188 C15.48756208 21.12559259 15.52771973 24.38380253 15.375 27.75 C15.31699219 28.79607422 15.31699219 28.79607422 15.2578125 29.86328125 C15.16401376 31.57510818 15.08093826 33.28751682 15 35 C13.35 35 11.7 35 10 35 C10.03222656 34.04222656 10.06445312 33.08445313 10.09765625 32.09765625 C10.11774107 21.53839854 7.2742488 14.38621527 1.93359375 5.3515625 C0 2 0 2 0 0 Z " fill="#E77A28" transform="translate(530,151)"/>
<path d="M0 0 C2.38009357 1.72695161 2.93318561 2.63530481 3.46875 5.55859375 C3.55279112 13.30088182 3.55279112 13.30088182 0.875 16.6875 C-2.50063378 18.22855021 -4.34155928 18.70055248 -8 18 C-10.787499 15.7993429 -11.81242728 14.08511694 -12.41796875 10.58203125 C-12.65547275 6.23634995 -12.63674365 3.82969627 -9.9375 0.3125 C-6.11518198 -1.39534422 -4.00116096 -1.1114336 0 0 Z " fill="#24160C" transform="translate(1175,752)"/>
<path d="M0 0 C1.32 0 2.64 0 4 0 C4.03738281 1.26457031 4.07476563 2.52914062 4.11328125 3.83203125 C4.17893833 5.4922173 4.24538576 7.15237222 4.3125 8.8125 C4.33505859 9.64587891 4.35761719 10.47925781 4.38085938 11.33789062 C4.41630859 12.14033203 4.45175781 12.94277344 4.48828125 13.76953125 C4.51446533 14.50792236 4.54064941 15.24631348 4.56762695 16.00708008 C5.11852315 18.54630405 5.90879535 19.48134755 8 21 C11.57756686 21.00082535 11.57756686 21.00082535 15 20 C16.9756562 17.03651571 17.26376859 16.31979627 17.4140625 12.98828125 C17.45273437 12.23095703 17.49140625 11.47363281 17.53125 10.69335938 C17.57765625 9.51483398 17.57765625 9.51483398 17.625 8.3125 C17.66367187 7.51521484 17.70234375 6.71792969 17.7421875 5.89648438 C17.83632494 3.93136525 17.91924632 1.9657146 18 0 C19.32 0 20.64 0 22 0 C22 8.25 22 16.5 22 25 C20.68 25 19.36 25 18 25 C17.67 24.34 17.34 23.68 17 23 C16.01 23.66 15.02 24.32 14 25 C11.9140625 25.40625 11.9140625 25.40625 9.625 25.5 C8.49964844 25.57734375 8.49964844 25.57734375 7.3515625 25.65625 C4.39787411 24.83196487 2.82013229 23.35826855 0.97265625 20.93847656 C-0.91713025 17.1721852 -0.51394827 13.24074306 -0.3125 9.125 C-0.28994141 8.24585938 -0.26738281 7.36671875 -0.24414062 6.4609375 C-0.18559748 4.30654993 -0.09592783 2.1530469 0 0 Z " fill="#EBEAE9" transform="translate(740,748)"/>
<path d="M0 0 C1.32 0 2.64 0 4 0 C4.33 0.66 4.66 1.32 5 2 C5.99 1.34 6.98 0.68 8 0 C11.04453491 -0.48219153 13.95291087 -0.46284898 17 0 C19.50160818 1.87620613 20.61945652 3.23891303 22 6 C22.08342159 7.44848582 22.10732861 8.90070869 22.09765625 10.3515625 C22.09443359 11.20234375 22.09121094 12.053125 22.08789062 12.9296875 C22.07951172 13.81914063 22.07113281 14.70859375 22.0625 15.625 C22.05798828 16.5221875 22.05347656 17.419375 22.04882812 18.34375 C22.03702591 20.56256648 22.02056155 22.78125018 22 25 C20.68 25 19.36 25 18 25 C17.96261719 23.73542969 17.92523437 22.47085938 17.88671875 21.16796875 C17.82106167 19.5077827 17.75461424 17.84762778 17.6875 16.1875 C17.66494141 15.35412109 17.64238281 14.52074219 17.61914062 13.66210938 C17.5659668 12.45844727 17.5659668 12.45844727 17.51171875 11.23046875 C17.48553467 10.49207764 17.45935059 9.75368652 17.43237305 8.99291992 C16.88147685 6.45369595 16.09120465 5.51865245 14 4 C10.42243314 3.99917465 10.42243314 3.99917465 7 5 C5.0243438 7.96348429 4.73623141 8.68020373 4.5859375 12.01171875 C4.54726562 12.76904297 4.50859375 13.52636719 4.46875 14.30664062 C4.4378125 15.09232422 4.406875 15.87800781 4.375 16.6875 C4.33632812 17.48478516 4.29765625 18.28207031 4.2578125 19.10351562 C4.16367506 21.06863475 4.08075368 23.0342854 4 25 C2.68 25 1.36 25 0 25 C0 16.75 0 8.5 0 0 Z " fill="#EEEDEC" transform="translate(1263,748)"/>
<path d="M0 0 C2.3125 1.27734375 2.3125 1.27734375 4 3 C4 4.32 4 5.64 4 7 C1.13275314 6.42655063 0.1385485 6.1385485 -2 4 C-5.08347826 3.83318891 -5.08347826 3.83318891 -8 4 C-7.67 5.65 -7.34 7.3 -7 9 C-6.30132813 9.19335938 -5.60265625 9.38671875 -4.8828125 9.5859375 C-3.97273437 9.84632813 -3.06265625 10.10671875 -2.125 10.375 C-1.22007812 10.63023437 -0.31515625 10.88546875 0.6171875 11.1484375 C3 12 3 12 5 14 C5.41652031 17.74868276 5.4979164 20.11733001 3.625 23.4375 C-0.45996574 25.86902722 -4.37080115 25.7490613 -9 25 C-12.16025526 23.19413985 -13.57721965 22.17077636 -14.8125 18.75 C-14.9053125 17.88375 -14.9053125 17.88375 -15 17 C-12.6875 16.75 -12.6875 16.75 -10 17 C-9.525625 17.66 -9.05125 18.32 -8.5625 19 C-7.7890625 19.99 -7.7890625 19.99 -7 21 C-3.87413125 21.33397787 -3.87413125 21.33397787 -1 21 C-0.67 19.35 -0.34 17.7 0 16 C-0.67546875 15.82984375 -1.3509375 15.6596875 -2.046875 15.484375 C-11.45874587 12.92739274 -11.45874587 12.92739274 -14 9 C-14.6407669 5.79616552 -14.2921273 4.49130501 -12.625 1.6875 C-8.67157969 -0.85398448 -4.57820943 -0.81439302 0 0 Z " fill="#ECEBE9" transform="translate(821,748)"/>
<path d="M0 0 C1.32 0 2.64 0 4 0 C4.07347656 1.77117188 4.07347656 1.77117188 4.1484375 3.578125 C4.22348879 5.13543937 4.29903561 6.69272991 4.375 8.25 C4.4059375 9.02730469 4.436875 9.80460938 4.46875 10.60546875 C4.72658242 16.07379907 4.72658242 16.07379907 7 21 C11.19018386 21.39827408 11.19018386 21.39827408 14.8125 19.625 C17.49359252 15.95613655 17.33124714 12.26501332 17.5625 7.875 C17.60568359 7.12089844 17.64886719 6.36679687 17.69335938 5.58984375 C17.7994832 3.72678112 17.90025001 1.86341476 18 0 C19.32 0 20.64 0 22 0 C22 8.25 22 16.5 22 25 C20.68 25 19.36 25 18 25 C17.67 24.01 17.34 23.02 17 22 C16.39478516 22.72896484 16.39478516 22.72896484 15.77734375 23.47265625 C13.03088444 25.83280041 10.65276952 25.47118312 7.16015625 25.36328125 C5 25 5 25 2.5 23.125 C0.31918813 20.03551652 -0.12254714 18.3820715 -0.09765625 14.6484375 C-0.09443359 13.79765625 -0.09121094 12.946875 -0.08789062 12.0703125 C-0.07951172 11.18085937 -0.07113281 10.29140625 -0.0625 9.375 C-0.05798828 8.4778125 -0.05347656 7.580625 -0.04882812 6.65625 C-0.03702591 4.43743352 -0.02056155 2.21874982 0 0 Z " fill="#F1F0EF" transform="translate(981,748)"/>
<path d="M0 0 C4.10703441 0.85563217 5.55401113 2.24378009 8 5.625 C8.71665654 10.64159576 7.98766868 13.5617706 5 17.625 C4 18.625 4 18.625 0.1875 19 C-3.11111229 18.94077895 -3.80437593 18.78149926 -6.5 16.625 C-8.41597124 12.79305752 -8.97383359 9.8251866 -8 5.625 C-5.56226471 2.18349135 -4.14182881 0.862881 0 0 Z " fill="#352315" transform="translate(691,163.375)"/>
<path d="M0 0 C2.22626814 1.66193505 2.91039959 2.55946464 3.46875 5.3046875 C3.52373332 9.82706598 3.44893476 12.30619173 0.9375 16.1875 C-2 18 -2 18 -5.625 18.0625 C-9.37957305 16.88050478 -10.06489929 16.29196126 -12 13 C-12.65485226 9.59476825 -12.59450505 6.41415758 -12 3 C-8.46365762 -1.60796128 -5.39003434 -1.49723176 0 0 Z " fill="#25160C" transform="translate(968,752)"/>
<path d="M0 0 C1.32 0 2.64 0 4 0 C4.33 0.99 4.66 1.98 5 3 C5.40476562 2.5153125 5.80953125 2.030625 6.2265625 1.53125 C8.41052792 -0.35446464 9.52149 -0.46104423 12.375 -0.5 C13.50035156 -0.54640625 13.50035156 -0.54640625 14.6484375 -0.59375 C18.4085815 0.35565513 19.74876874 1.8577385 22 5 C22.59753095 8.46168612 22.47325204 11.81305184 22.3125 15.3125 C22.28994141 16.24384766 22.26738281 17.17519531 22.24414062 18.13476562 C22.18542078 20.4248396 22.10336858 22.71157875 22 25 C20.68 25 19.36 25 18 25 C17.96261719 23.73542969 17.92523437 22.47085938 17.88671875 21.16796875 C17.82106167 19.5077827 17.75461424 17.84762778 17.6875 16.1875 C17.66494141 15.35412109 17.64238281 14.52074219 17.61914062 13.66210938 C17.5659668 12.45844727 17.5659668 12.45844727 17.51171875 11.23046875 C17.48553467 10.49207764 17.45935059 9.75368652 17.43237305 8.99291992 C16.88147685 6.45369595 16.09120465 5.51865245 14 4 C10.42243314 3.99917465 10.42243314 3.99917465 7 5 C5.0243438 7.96348429 4.73623141 8.68020373 4.5859375 12.01171875 C4.54726563 12.76904297 4.50859375 13.52636719 4.46875 14.30664062 C4.4378125 15.09232422 4.406875 15.87800781 4.375 16.6875 C4.33632813 17.48478516 4.29765625 18.28207031 4.2578125 19.10351562 C4.16367506 21.06863475 4.08075368 23.0342854 4 25 C2.68 25 1.36 25 0 25 C0 16.75 0 8.5 0 0 Z " fill="#F0EEEE" transform="translate(500,748)"/>
<path d="M0 0 C3.33581133 0.98838854 4.35160864 1.33008122 6.375 4 C7.3905337 8.99304068 7.08381017 12.9045661 4.3125 17.1875 C1.375 19 1.375 19 -2.25 19.0625 C-5.625 18 -5.625 18 -7.5625 16.5 C-9.20182935 12.64275448 -9.39245652 9.11502876 -8.625 5 C-5.97395572 0.98326624 -4.85306273 0 0 0 Z " fill="#24150B" transform="translate(1077.625,751)"/>
<path d="M0 0 C1.65 0 3.3 0 5 0 C5.98350025 2.08129104 6.96164458 4.16511359 7.9375 6.25 C8.48277344 7.41015625 9.02804687 8.5703125 9.58984375 9.765625 C10.66448266 12.23044777 11.48780081 14.38065227 12 17 C13.14829977 14.730384 14.29371978 12.45939222 15.4375 10.1875 C15.76298828 9.54490234 16.08847656 8.90230469 16.42382812 8.24023438 C17.79232676 5.51734534 19.03483265 2.89550206 20 0 C21.65 0 23.3 0 25 0 C20.23070248 11.77420325 15.2158166 23.41682288 10 35 C8.68 35 7.36 35 6 35 C6.49890563 31.70722287 7.09584661 29.85159235 8.9375 27 C10.24356996 24.11785524 10.02651982 23.07924868 9 20.01171875 C7.41074197 16.6305723 5.7112818 13.32074821 4 10 C3.18175953 8.07357199 2.38653858 6.13703876 1.625 4.1875 C1.30789063 3.37667969 0.99078125 2.56585938 0.6640625 1.73046875 C0.44492187 1.15941406 0.22578125 0.58835938 0 0 Z " fill="#EF7E29" transform="translate(835,161)"/>
<path d="M0 0 C3.70619232 0.64917381 5.31736045 2.43961713 7.453125 5.4296875 C7.453125 6.0896875 7.453125 6.7496875 7.453125 7.4296875 C2.703125 6.6796875 2.703125 6.6796875 0.453125 4.4296875 C-2.63035326 4.26287641 -2.63035326 4.26287641 -5.546875 4.4296875 C-5.216875 6.0796875 -4.886875 7.7296875 -4.546875 9.4296875 C-3.84820313 9.62304688 -3.14953125 9.81640625 -2.4296875 10.015625 C-1.51960938 10.27601563 -0.60953125 10.53640625 0.328125 10.8046875 C1.23304687 11.05992187 2.13796875 11.31515625 3.0703125 11.578125 C5.453125 12.4296875 5.453125 12.4296875 7.453125 14.4296875 C7.9944094 20.11317374 7.9944094 20.11317374 7.453125 22.4296875 C5.36771202 24.5293516 3.96853208 25.33666281 1.05078125 25.86328125 C-3.22363657 25.86986741 -5.87625084 25.80523703 -9.671875 23.6796875 C-11.546875 21.4296875 -11.546875 21.4296875 -11.546875 17.4296875 C-10.226875 17.4296875 -8.906875 17.4296875 -7.546875 17.4296875 C-7.093125 18.0896875 -6.639375 18.7496875 -6.171875 19.4296875 C-5.635625 20.0896875 -5.099375 20.7496875 -4.546875 21.4296875 C-1.42100625 21.76366537 -1.42100625 21.76366537 1.453125 21.4296875 C1.783125 19.7796875 2.113125 18.1296875 2.453125 16.4296875 C1.68226562 16.16414062 0.91140625 15.89859375 0.1171875 15.625 C-1.38714844 15.09519531 -1.38714844 15.09519531 -2.921875 14.5546875 C-3.91960937 14.20664062 -4.91734375 13.85859375 -5.9453125 13.5 C-8.546875 12.4296875 -8.546875 12.4296875 -10.546875 10.4296875 C-11.11174267 4.21614313 -11.11174267 4.21614313 -9.33203125 1.73828125 C-6.36814037 -0.43437399 -3.5629597 -0.0937621 0 0 Z " fill="#EEEDEC" transform="translate(1038.546875,747.5703125)"/>
<path d="M0 0 C2.625 1.8125 2.625 1.8125 4 4 C4 4.99 4 5.98 4 7 C2.68 7 1.36 7 0 7 C-0.66 6.01 -1.32 5.02 -2 4 C-5.08365871 3.7497843 -5.08365871 3.7497843 -8 4 C-8.33 5.65 -8.66 7.3 -9 9 C-8.15695312 9.19335938 -7.31390625 9.38671875 -6.4453125 9.5859375 C-5.34960938 9.84632813 -4.25390625 10.10671875 -3.125 10.375 C-2.03445313 10.63023437 -0.94390625 10.88546875 0.1796875 11.1484375 C3 12 3 12 5 14 C5.41652031 17.74868276 5.4979164 20.11733001 3.625 23.4375 C-0.45996574 25.86902722 -4.37080115 25.7490613 -9 25 C-12.16025526 23.19413985 -13.57721965 22.17077636 -14.8125 18.75 C-14.9053125 17.88375 -14.9053125 17.88375 -15 17 C-10.34074074 17.62962963 -10.34074074 17.62962963 -8.5625 19.5625 C-6.96161036 21.33952866 -6.96161036 21.33952866 -3.8125 21.1875 C-2.884375 21.125625 -1.95625 21.06375 -1 21 C-0.67 19.35 -0.34 17.7 0 16 C-0.67546875 15.82984375 -1.3509375 15.6596875 -2.046875 15.484375 C-11.45874587 12.92739274 -11.45874587 12.92739274 -14 9 C-14.6407669 5.79616552 -14.2921273 4.49130501 -12.625 1.6875 C-8.59066116 -0.90600354 -4.66139075 -0.78206057 0 0 Z " fill="#EEEDEC" transform="translate(460,748)"/>
<path d="M0 0 C2.625 1.8125 2.625 1.8125 4 4 C4 4.99 4 5.98 4 7 C2.68 7 1.36 7 0 7 C-0.66 6.01 -1.32 5.02 -2 4 C-5.08365871 3.7497843 -5.08365871 3.7497843 -8 4 C-8.33 5.32 -8.66 6.64 -9 8 C-8.32453125 8.17015625 -7.6490625 8.3403125 -6.953125 8.515625 C2.54630552 11.09639514 2.54630552 11.09639514 5 15 C5.58338557 18.50031342 5.40455522 20.26794769 3.6875 23.375 C-0.65846026 26.00278993 -5.06822564 25.86087186 -10 25 C-13.1875 22.6875 -13.1875 22.6875 -15 20 C-15 19.01 -15 18.02 -15 17 C-12.625 17.3125 -12.625 17.3125 -10 18 C-9.34 18.99 -8.68 19.98 -8 21 C-4.41642759 21.25015873 -4.41642759 21.25015873 -1 21 C-0.67 19.35 -0.34 17.7 0 16 C-0.67546875 15.82984375 -1.3509375 15.6596875 -2.046875 15.484375 C-11.45874587 12.92739274 -11.45874587 12.92739274 -14 9 C-14.6407669 5.79616552 -14.2921273 4.49130501 -12.625 1.6875 C-8.59066116 -0.90600354 -4.66139075 -0.78206057 0 0 Z " fill="#EFEEED" transform="translate(542,748)"/>
<path d="M0 0 C0.99 0 1.98 0 3 0 C3 0.99 3 1.98 3 3 C3.474375 2.505 3.94875 2.01 4.4375 1.5 C8.11167123 -0.65073438 11.85971977 -1.06125227 16 0 C18.765625 1.88671875 18.765625 1.88671875 21 5 C21.59788759 8.46161016 21.47325086 11.81307748 21.3125 15.3125 C21.28994141 16.24384766 21.26738281 17.17519531 21.24414062 18.13476562 C21.18542078 20.4248396 21.10336858 22.71157875 21 25 C19.68 25 18.36 25 17 25 C16.98541748 24.43490723 16.97083496 23.86981445 16.95581055 23.28759766 C16.88143942 20.73269981 16.78474758 18.17912502 16.6875 15.625 C16.66494141 14.73554687 16.64238281 13.84609375 16.61914062 12.9296875 C16.5659668 11.65351562 16.5659668 11.65351562 16.51171875 10.3515625 C16.48553467 9.56604004 16.45935059 8.78051758 16.43237305 7.97119141 C16.15110403 5.59959844 16.15110403 5.59959844 13 4 C10.17046252 3.64630781 8.67067156 3.48174921 6.37573242 5.25512695 C4.69576493 7.38586833 4.58361201 8.54214138 4.48828125 11.23046875 C4.45283203 12.03291016 4.41738281 12.83535156 4.38085938 13.66210938 C4.35830078 14.49548828 4.33574219 15.32886719 4.3125 16.1875 C4.27833984 17.03248047 4.24417969 17.87746094 4.20898438 18.74804688 C4.12658529 20.83156649 4.06161355 22.91576216 4 25 C2.68 25 1.36 25 0 25 C0 16.75 0 8.5 0 0 Z " fill="#F3F2F1" transform="translate(1189,748)"/>
<path d="M0 0 C3.0625 2.375 3.0625 2.375 5 5 C5 5.66 5 6.32 5 7 C2.525 6.505 2.525 6.505 0 6 C0 5.34 0 4.68 0 4 C-2.64 4 -5.28 4 -8 4 C-7.67 5.65 -7.34 7.3 -7 9 C-6.30132812 9.19335938 -5.60265625 9.38671875 -4.8828125 9.5859375 C-3.97273438 9.84632813 -3.06265625 10.10671875 -2.125 10.375 C-1.22007812 10.63023437 -0.31515625 10.88546875 0.6171875 11.1484375 C3 12 3 12 5 14 C5.5412844 19.68348624 5.5412844 19.68348624 5 22 C2.91458702 24.0996641 1.51540708 24.90697531 -1.40234375 25.43359375 C-5.67676157 25.44017991 -8.32937584 25.37554953 -12.125 23.25 C-14 21 -14 21 -14 17 C-12.68 17 -11.36 17 -10 17 C-9.54625 17.66 -9.0925 18.32 -8.625 19 C-8.08875 19.66 -7.5525 20.32 -7 21 C-3.87413125 21.33397787 -3.87413125 21.33397787 -1 21 C-0.67 19.35 -0.34 17.7 0 16 C-0.77085937 15.73445312 -1.54171875 15.46890625 -2.3359375 15.1953125 C-3.84027344 14.66550781 -3.84027344 14.66550781 -5.375 14.125 C-6.37273437 13.77695312 -7.37046875 13.42890625 -8.3984375 13.0703125 C-11 12 -11 12 -13 10 C-13.66574776 3.8973122 -13.66574776 3.8973122 -11.5625 1.0625 C-7.68584487 -0.54489359 -4.12400981 -0.80719053 0 0 Z " fill="#EFEEED" transform="translate(435,748)"/>
<path d="M0 0 C1.65 0 3.3 0 5 0 C5 10.23 5 20.46 5 31 C9.95 31 14.9 31 20 31 C20 32.32 20 33.64 20 35 C13.4 35 6.8 35 0 35 C0 23.45 0 11.9 0 0 Z " fill="#D7D5D2" transform="translate(369,738)"/>
<path d="M0 0 C2.85272289 1.98450288 4.64267017 3.4588209 5.44921875 6.9375 C5.65143725 10.61927137 5.18151135 12.67188333 3.375 15.9375 C0.43011986 18.49489592 -1.09332162 19.15945626 -5 19 C-7.875 17.1875 -7.875 17.1875 -10 14 C-10.8642242 9.34070433 -10.89957927 5.45316651 -8.375 1.375 C-5.22568648 -0.44828677 -3.58638897 -0.6587245 0 0 Z " fill="#322215" transform="translate(570,164)"/>
<path d="M0 0 C3.625 -0.1875 3.625 -0.1875 7 0 C7 0.99 7 1.98 7 3 C5.68 3.33 4.36 3.66 3 4 C2.67 5.98 2.34 7.96 2 10 C3.98 10 5.96 10 8 10 C8 11.32 8 12.64 8 14 C6.02 14 4.04 14 2 14 C2 20.93 2 27.86 2 35 C0.68 35 -0.64 35 -2 35 C-2 28.07 -2 21.14 -2 14 C-3.32 14 -4.64 14 -6 14 C-6 12.68 -6 11.36 -6 10 C-4.68 10 -3.36 10 -2 10 C-2.04125 8.906875 -2.0825 7.81375 -2.125 6.6875 C-2 3 -2 3 0 0 Z " fill="#F1EFEF" transform="translate(1098,738)"/>
<path d="M0 0 C1.32 0 2.64 0 4 0 C4 1.98 4 3.96 4 6 C6.31 6 8.62 6 11 6 C11 7.32 11 8.64 11 10 C8.69 10 6.38 10 4 10 C4.33 15.28 4.66 20.56 5 26 C6.98 26.33 8.96 26.66 11 27 C11 28.32 11 29.64 11 31 C4.74289985 31.4813154 4.74289985 31.4813154 1.78125 29.5625 C-0.8806696 25.73307181 -0.43454474 22.29263985 -0.25 17.75 C-0.23195313 16.90953125 -0.21390625 16.0690625 -0.1953125 15.203125 C-0.14830798 13.13492605 -0.07656724 11.06731559 0 9 C-1.32 9 -2.64 9 -4 9 C-4 8.01 -4 7.02 -4 6 C-2.68 6 -1.36 6 0 6 C0 4.02 0 2.04 0 0 Z " fill="#EFEDEC" transform="translate(1294,742)"/>
<path d="M0 0 C1.32 0 2.64 0 4 0 C4 1.98 4 3.96 4 6 C6.31 6 8.62 6 11 6 C11 6.99 11 7.98 11 9 C8.69 9 6.38 9 4 9 C4.33 14.61 4.66 20.22 5 26 C6.98 26.33 8.96 26.66 11 27 C11 28.32 11 29.64 11 31 C4.74289985 31.4813154 4.74289985 31.4813154 1.78125 29.5625 C-0.8806696 25.73307181 -0.43454474 22.29263985 -0.25 17.75 C-0.23195313 16.90953125 -0.21390625 16.0690625 -0.1953125 15.203125 C-0.14830798 13.13492605 -0.07656724 11.06731559 0 9 C-1.32 9 -2.64 9 -4 9 C-4 8.01 -4 7.02 -4 6 C-2.68 6 -1.36 6 0 6 C0 4.02 0 2.04 0 0 Z " fill="#F9822A" transform="translate(1045,155)"/>
<path d="M0 0 C0.99 0 1.98 0 3 0 C3 1.98 3 3.96 3 6 C5.31 6 7.62 6 10 6 C10 6.99 10 7.98 10 9 C7.69 9 5.38 9 3 9 C3.33 14.94 3.66 20.88 4 27 C5.98 27 7.96 27 10 27 C10 28.32 10 29.64 10 31 C6.75 31.3125 6.75 31.3125 3 31 C0.67934483 28.90814182 -0.79556324 27.23880448 -1.31542969 24.08862305 C-1.39318844 21.94091627 -1.349754 19.83412936 -1.25 17.6875 C-1.23195313 16.94693359 -1.21390625 16.20636719 -1.1953125 15.44335938 C-1.14847337 13.6283429 -1.07673789 11.81399834 -1 10 C-2.32 10 -3.64 10 -5 10 C-5 8.68 -5 7.36 -5 6 C-3.35 6 -1.7 6 0 6 C0 4.02 0 2.04 0 0 Z " fill="#EDECEB" transform="translate(1220,742)"/>
<path d="M0 0 C10.49036431 -0.37024815 10.49036431 -0.37024815 12.828125 1.328125 C14.67772302 3.96688484 14.44692969 5.87149219 14 9 C12.625 11.375 12.625 11.375 10 13 C6.59266913 13.33111993 3.4389618 13.18099799 0 13 C0 8.71 0 4.42 0 0 Z " fill="#322215" transform="translate(893,155)"/>
<path d="M0 0 C5.28 0 10.56 0 16 0 C16 0.33 16 0.66 16 1 C11.05 1 6.1 1 1 1 C1 11.89 1 22.78 1 34 C1.99 34 2.98 34 4 34 C4 29.38 4 24.76 4 20 C7.3 20 10.6 20 14 20 C14 19.34 14 18.68 14 18 C11.03 18 8.06 18 5 18 C5 17.67 5 17.34 5 17 C5.68707031 16.96261719 6.37414062 16.92523438 7.08203125 16.88671875 C7.98308594 16.82097656 8.88414062 16.75523437 9.8125 16.6875 C10.70582031 16.62949219 11.59914063 16.57148438 12.51953125 16.51171875 C15.3466463 15.92848714 16.31808598 15.31607832 18 13 C18.30152754 9.45705143 18.04478472 6.39555034 17 3 C18.32 3 19.64 3 21 3 C23.45917586 6.6887638 23.81591937 9.7184429 23 14 C21.25549494 17.0220794 19.16697836 19.41651082 16 21 C12.32984725 21.1377685 8.67388652 21.04271961 5 21 C5 25.62 5 30.24 5 35 C3.35 35 1.7 35 0 35 C0 23.45 0 11.9 0 0 Z " fill="#CF6D25" transform="translate(888,151)"/>
<path d="M0 0 C0.7734375 -0.00773438 1.546875 -0.01546875 2.34375 -0.0234375 C5.0062007 0.46853709 5.897004 1.2208161 7.5 3.375 C7.92478586 7.45294425 7.81282587 8.90576119 5.5 12.375 C2.52078558 13.33548032 -0.38094758 13.55228184 -3.5 13.375 C-6.0625 11.8125 -6.0625 11.8125 -7.5 9.375 C-7.9375 6.3125 -7.9375 6.3125 -7.5 3.375 C-5.27846112 0.41526952 -3.63823964 -0.0363824 0 0 Z " fill="#27180D" transform="translate(887.5,756.625)"/>
<path d="M0 0 C0 1.65 0 3.3 0 5 C-1.134375 5.309375 -2.26875 5.61875 -3.4375 5.9375 C-6.78775099 6.62924531 -6.78775099 6.62924531 -8 8 C-8.15582303 9.34015221 -8.25044142 10.68758903 -8.31640625 12.03515625 C-8.35830078 12.84404297 -8.40019531 13.65292969 -8.44335938 14.48632812 C-8.48267578 15.33646484 -8.52199219 16.18660156 -8.5625 17.0625 C-8.60568359 17.91650391 -8.64886719 18.77050781 -8.69335938 19.65039062 C-8.79976702 21.76672037 -8.90041731 23.88333813 -9 26 C-10.65 26 -12.3 26 -14 26 C-14 17.75 -14 9.5 -14 1 C-12.35 1 -10.7 1 -9 1 C-8.67 1.66 -8.34 2.32 -8 3 C-7.4225 2.505 -6.845 2.01 -6.25 1.5 C-4 0 -4 0 0 0 Z " fill="#DC7426" transform="translate(930,160)"/>
<path d="M0 0 C0.66 0 1.32 0 2 0 C2 13.2 2 26.4 2 40 C15.53 40 29.06 40 43 40 C41 42 41 42 37.00927734 42.22705078 C35.28479835 42.22654992 33.56029868 42.21547582 31.8359375 42.1953125 C31.03196533 42.19329834 30.22799316 42.19128418 29.3996582 42.18920898 C26.39138091 42.17873113 23.38318483 42.15080859 20.375 42.125 C10.289375 42.063125 10.289375 42.063125 0 42 C0 28.14 0 14.28 0 0 Z " fill="#54483F" transform="translate(523,486)"/>
<path d="M0 0 C0.66 0 1.32 0 2 0 C2 13.2 2 26.4 2 40 C15.2 40 28.4 40 42 40 C40 42 40 42 36.10107422 42.22705078 C34.41891212 42.22654999 32.73672879 42.21547858 31.0546875 42.1953125 C30.27037354 42.19329834 29.48605957 42.19128418 28.67797852 42.18920898 C25.74359299 42.17873207 22.80929072 42.15080952 19.875 42.125 C13.31625 42.08375 6.7575 42.0425 0 42 C0 28.14 0 14.28 0 0 Z " fill="#483A30" transform="translate(428,486)"/>
<path d="M0 0 C0.99 0 1.98 0 3 0 C3 0.99 3 1.98 3 3 C8.28 3 13.56 3 19 3 C19.33 2.01 19.66 1.02 20 0 C20.66 0 21.32 0 22 0 C22 1.65 22 3.3 22 5 C15.73 5 9.46 5 3 5 C5.33848142 10.91731018 5.33848142 10.91731018 9 13 C11.45741537 13.50014953 11.45741537 13.50014953 14 13 C15.35368596 11.68733482 16.68799596 10.35432675 18 9 C19.32 9 20.64 9 22 9 C20.71814661 12.95238127 19.55188824 14.82905605 16 17 C12.5994267 17.6635265 9.40852716 17.61221119 6 17 C2.9375 14.5625 2.9375 14.5625 1 12 C0.67 11.67 0.34 11.34 0 11 C-0.07226502 9.14712498 -0.0838122 7.29166122 -0.0625 5.4375 C-0.05347656 4.42558594 -0.04445313 3.41367188 -0.03515625 2.37109375 C-0.02355469 1.58863281 -0.01195312 0.80617187 0 0 Z " fill="#EE7D29" transform="translate(986,169)"/>
<path d="M0 0 C0 1.65 0 3.3 0 5 C-1.134375 5.309375 -2.26875 5.61875 -3.4375 5.9375 C-6.78775099 6.62924531 -6.78775099 6.62924531 -8 8 C-8.15582303 9.34015221 -8.25044142 10.68758903 -8.31640625 12.03515625 C-8.35830078 12.84404297 -8.40019531 13.65292969 -8.44335938 14.48632812 C-8.48267578 15.33646484 -8.52199219 16.18660156 -8.5625 17.0625 C-8.60568359 17.91650391 -8.64886719 18.77050781 -8.69335938 19.65039062 C-8.79976702 21.76672037 -8.90041731 23.88333813 -9 26 C-10.65 26 -12.3 26 -14 26 C-14 17.75 -14 9.5 -14 1 C-12.68 1 -11.36 1 -10 1 C-9.67 1.99 -9.34 2.98 -9 4 C-8.2575 3.34 -7.515 2.68 -6.75 2 C-4 0 -4 0 0 0 Z " fill="#D17125" transform="translate(627,160)"/>
<path d="M0 0 C13.53 0 27.06 0 41 0 C41 0.33 41 0.66 41 1 C22.19 1.495 22.19 1.495 3 2 C3 18.5 3 35 3 52 C2.01 52 1.02 52 0 52 C0 34.84 0 17.68 0 0 Z " fill="#482A14" transform="translate(772,390)"/>
<path d="M0 0 C1.32 0 2.64 0 4 0 C4 11.55 4 23.1 4 35 C2.68 35 1.36 35 0 35 C0 23.45 0 11.9 0 0 Z " fill="#F8F8F7" transform="translate(769,738)"/>
<path d="M0 0 C6.27 0 12.54 0 19 0 C19 1.32 19 2.64 19 4 C13.72 4 8.44 4 3 4 C3 6.97 3 9.94 3 13 C3.66 13.33 4.32 13.66 5 14 C4.3125 15.9375 4.3125 15.9375 3 18 C0.41796875 18.62890625 0.41796875 18.62890625 -2 19 C-1.85761163 16.95809019 -1.71092972 14.91647955 -1.5625 12.875 C-1.48128906 11.73804688 -1.40007812 10.60109375 -1.31640625 9.4296875 C-1.02485329 6.26939737 -0.52175475 3.13052852 0 0 Z " fill="#E6E4E3" transform="translate(329,738)"/>
<path d="M0 0 C1.32 0 2.64 0 4 0 C4.33 0.66 4.66 1.32 5 2 C5.99 1.34 6.98 0.68 8 0 C10.6875 -0.125 10.6875 -0.125 13 0 C13 1.32 13 2.64 13 4 C11.865625 4.309375 10.73125 4.61875 9.5625 4.9375 C6.21224901 5.62924531 6.21224901 5.62924531 5 7 C4.84417697 8.34015221 4.74955858 9.68758903 4.68359375 11.03515625 C4.64169922 11.84404297 4.59980469 12.65292969 4.55664062 13.48632812 C4.51732422 14.33646484 4.47800781 15.18660156 4.4375 16.0625 C4.39431641 16.91650391 4.35113281 17.77050781 4.30664062 18.65039062 C4.20023298 20.76672037 4.09958269 22.88333813 4 25 C2.68 25 1.36 25 0 25 C0 16.75 0 8.5 0 0 Z " fill="#F1EFEF" transform="translate(1010,748)"/>
<path d="M0 0 C0.33 0 0.66 0 1 0 C1 5.94 1 11.88 1 18 C-3.29 18 -7.58 18 -12 18 C-9.95729023 13.91458046 -7.59137715 10.44365646 -4.9375 6.75 C-4.47794922 6.1003125 -4.01839844 5.450625 -3.54492188 4.78125 C-2.39061476 3.16759306 -1.19851004 1.58110319 0 0 Z " fill="#302118" transform="translate(612,744)"/>
<path d="M0 0 C1.19109375 0.00773438 1.19109375 0.00773438 2.40625 0.015625 C3.2003125 0.01046875 3.994375 0.0053125 4.8125 0 C6.90625 0.265625 6.90625 0.265625 8.90625 2.265625 C9.2329607 5.33670555 9.38763276 7.41612601 7.84375 10.140625 C4.7993214 11.90835774 2.3431488 11.63386416 -1.09375 11.265625 C-3.03125 10.140625 -3.03125 10.140625 -4.09375 8.265625 C-4.40625 5.203125 -4.40625 5.203125 -4.09375 2.265625 C-2.09375 0.265625 -2.09375 0.265625 0 0 Z " fill="#28190E" transform="translate(885.09375,741.734375)"/>
<path d="M0 0 C6.27 0 12.54 0 19 0 C18.67 1.32 18.34 2.64 18 4 C16.68 4 15.36 4 14 4 C13.814375 4.639375 13.62875 5.27875 13.4375 5.9375 C12 8 12 8 8.6875 9.0625 C5 9 5 9 2.0625 6.8125 C0 4 0 4 0 0 Z " fill="#3B2615" transform="translate(937,174)"/>
<path d="M0 0 C1.32 0 2.64 0 4 0 C4.03738281 1.26457031 4.07476563 2.52914062 4.11328125 3.83203125 C4.17893833 5.4922173 4.24538576 7.15237222 4.3125 8.8125 C4.33505859 9.64587891 4.35761719 10.47925781 4.38085938 11.33789062 C4.41630859 12.14033203 4.45175781 12.94277344 4.48828125 13.76953125 C4.51446533 14.50792236 4.54064941 15.24631348 4.56762695 16.00708008 C5.11374556 18.52428288 5.9892936 19.42858239 8 21 C10.60611077 21.72197162 10.60611077 21.72197162 13 22 C13 22.99 13 23.98 13 25 C5.67973856 25.36601307 5.67973856 25.36601307 2.5625 23.6875 C-0.04337431 20.87315574 -0.12220046 18.20786787 -0.09765625 14.55078125 C-0.09443359 13.70322266 -0.09121094 12.85566406 -0.08789062 11.98242188 C-0.07951172 11.10134766 -0.07113281 10.22027344 -0.0625 9.3125 C-0.05798828 8.41982422 -0.05347656 7.52714844 -0.04882812 6.60742188 C-0.03704983 4.40488013 -0.02060164 2.20247401 0 0 Z " fill="#F37F29" transform="translate(585,161)"/>
<path d="M0 0 C0.33 0 0.66 0 1 0 C1 5.94 1 11.88 1 18 C-2.96 18 -6.92 18 -11 18 C-9.22445948 13.5611487 -7.15832915 10.04308255 -4.4375 6.1875 C-4.02564453 5.59001953 -3.61378906 4.99253906 -3.18945312 4.37695312 C-2.15591414 2.8968441 -1.08145584 1.44546837 0 0 Z " fill="#23160E" transform="translate(311,744)"/>
<path d="M0 0 C0.33 0 0.66 0 1 0 C1 11.55 1 23.1 1 35 C1.99 35 2.98 35 4 35 C4 30.38 4 25.76 4 21 C3.34 21 2.68 21 2 21 C1.80377759 16.78121808 2.19769832 13.82989106 4 10 C4.33 10 4.66 10 5 10 C5.66 13.3 6.32 16.6 7 20 C9.64 20.33 12.28 20.66 15 21 C14.01 21.66 13.02 22.32 12 23 C13.98 23.33 15.96 23.66 18 24 C18 24.33 18 24.66 18 25 C16.5629191 25.05422947 15.12524538 25.09289723 13.6875 25.125 C12.48673828 25.15980469 12.48673828 25.15980469 11.26171875 25.1953125 C9 25 9 25 6 23 C5.67 27.29 5.34 31.58 5 36 C3.35 36 1.7 36 0 36 C0 24.12 0 12.24 0 0 Z " fill="#C16623" transform="translate(752,161)"/>
<path d="M0 0 C4.875 1.875 4.875 1.875 6 3 C6.46054122 7.06811409 6.66005471 9.16960859 4.0625 12.4375 C-0.06598875 14.54387181 -3.45112421 14.82258152 -8 14 C-11.0625 12.25 -11.0625 12.25 -13 10 C-13 8.68 -13 7.36 -13 6 C-11.68 6 -10.36 6 -9 6 C-8.01 7.485 -8.01 7.485 -7 9 C-5.02252878 9.36297936 -5.02252878 9.36297936 -2.875 9.1875 C-1.59625 9.125625 -0.3175 9.06375 1 9 C0.835 8.2575 0.67 7.515 0.5 6.75 C0 4 0 4 0 0 Z " fill="#F7812A" transform="translate(974,172)"/>
<path d="M0 0 C0.99 0 1.98 0 3 0 C3 0.99 3 1.98 3 3 C4.32 2.01 5.64 1.02 7 0 C7.66 0.33 8.32 0.66 9 1 C8.35546875 1.79664063 7.7109375 2.59328125 7.046875 3.4140625 C4.30487956 7.52705566 4.33459749 11.55294285 4.25 16.375 C4.22035156 17.20644531 4.19070313 18.03789063 4.16015625 18.89453125 C4.08999601 20.92917827 4.04267105 22.96459091 4 25 C2.68 25 1.36 25 0 25 C0 16.75 0 8.5 0 0 Z " fill="#ECEAE9" transform="translate(1189,748)"/>
<path d="M0 0 C3.5 0.25 3.5 0.25 5.5 2.25 C5.75 5.75 5.75 5.75 5.5 9.25 C3.5 11.25 3.5 11.25 0 11.5 C-3.5 11.25 -3.5 11.25 -5.5 9.25 C-5.75 5.75 -5.75 5.75 -5.5 2.25 C-3.5 0.25 -3.5 0.25 0 0 Z " fill="#F4F3F3" transform="translate(571.5,750.75)"/>
<path d="M0 0 C6.27 0 12.54 0 19 0 C18.67 0.99 18.34 1.98 18 3 C17.401875 3.144375 16.80375 3.28875 16.1875 3.4375 C13.80329604 3.83714968 13.80329604 3.83714968 12.125 6.0625 C10 8 10 8 7 8.5 C3.33738205 7.88956367 2.15774857 6.98765186 0 4 C0 2.68 0 1.36 0 0 Z " fill="#1E1009" transform="translate(1239,762)"/>
<path d="M0 0 C3.5625 0.1875 3.5625 0.1875 5.5625 2.1875 C5.8125 5.6875 5.8125 5.6875 5.5625 9.1875 C3.5625 11.1875 3.5625 11.1875 0.0625 11.5 C-1.67 11.3453125 -1.67 11.3453125 -3.4375 11.1875 C-5.4375 8.1875 -5.4375 8.1875 -5.125 4.5625 C-4.24274345 0.23142237 -4.24274345 0.23142237 0 0 Z " fill="#F6F5F4" transform="translate(850.4375,750.8125)"/>
<path d="M0 0 C6.27 0 12.54 0 19 0 C19 0.99 19 1.98 19 3 C17.35 3 15.7 3 14 3 C14 3.99 14 4.98 14 6 C10.50875983 8.32749345 9.10777749 8.50299316 5 8 C1.61335615 5.43713439 1.05583865 4.22335459 0 0 Z " fill="#1F110A" transform="translate(397,762)"/>
<path d="M0 0 C0.99 0 1.98 0 3 0 C3 1.32 3 2.64 3 4 C3.99 4 4.98 4 6 4 C5.80664062 4.556875 5.61328125 5.11375 5.4140625 5.6875 C3.68625575 10.75117127 2.2306933 15.79322065 1 21 C1.66 21 2.32 21 3 21 C3 25.62 3 30.24 3 35 C2.01 35 1.02 35 0 35 C0 23.45 0 11.9 0 0 Z " fill="#FC862B" transform="translate(753,161)"/>
<path d="M0 0 C0.99 0 1.98 0 3 0 C3 1.32 3 2.64 3 4 C3.99 4 4.98 4 6 4 C5.67 4.99 5.34 5.98 5 7 C4.85507877 8.40664926 4.75371069 9.8181133 4.68359375 11.23046875 C4.64169922 12.03291016 4.59980469 12.83535156 4.55664062 13.66210938 C4.49766602 14.91217773 4.49766602 14.91217773 4.4375 16.1875 C4.39431641 17.03248047 4.35113281 17.87746094 4.30664062 18.74804688 C4.20068482 20.83184433 4.0998498 22.91590103 4 25 C2.68 25 1.36 25 0 25 C0 16.75 0 8.5 0 0 Z " fill="#F58029" transform="translate(810,161)"/>
<path d="M0 0 C0.90492188 0.02320313 1.80984375 0.04640625 2.7421875 0.0703125 C4.10730469 0.09738281 4.10730469 0.09738281 5.5 0.125 C6.19867187 0.14820313 6.89734375 0.17140625 7.6171875 0.1953125 C7.13297697 5.64268092 7.13297697 5.64268092 4.8671875 8.0703125 C2.20033478 9.40373886 0.56240255 9.5828408 -2.3828125 9.1953125 C-4.3828125 7.1953125 -4.3828125 7.1953125 -4.6328125 4.6953125 C-4.29201434 1.28733086 -3.44583467 0.28244546 0 0 Z " fill="#3A2515" transform="translate(791.3828125,173.8046875)"/>
<path d="M0 0 C2.5625 2.4375 2.5625 2.4375 4 5 C4 5.66 4 6.32 4 7 C2.35 7 0.7 7 -1 7 C-1 6.01 -1 5.02 -1 4 C-2.27875 3.938125 -3.5575 3.87625 -4.875 3.8125 C-5.95394531 3.76029297 -5.95394531 3.76029297 -7.0546875 3.70703125 C-7.69664063 3.80371094 -8.33859375 3.90039062 -9 4 C-9.99 5.485 -9.99 5.485 -11 7 C-13.125 8.1875 -13.125 8.1875 -15 9 C-14.64 2.64 -14.64 2.64 -12 0 C-7.79392829 -1.4020239 -4.23816673 -1.32047359 0 0 Z " fill="#E37827" transform="translate(1076,161)"/>
<path d="M0 0 C2.4375 1.25 2.4375 1.25 4 3 C4 4.32 4 5.64 4 7 C-0.95 7 -5.9 7 -11 7 C-9.29040517 0.16162067 -7.00695356 -0.73757406 0 0 Z " fill="#3B2616" transform="translate(948,164)"/>
<path d="M0 0 C1.9375 1.25 1.9375 1.25 3 3 C3 4.32 3 5.64 3 7 C-1.95 7 -6.9 7 -12 7 C-9.2519752 0.12993801 -7.11256969 -0.63505087 0 0 Z " fill="#392415" transform="translate(1001,164)"/>
<path d="M0 0 C0.66 0.66 1.32 1.32 2 2 C0 4 0 4 -3.4375 4.4375 C-6.89804559 4.70496689 -6.89804559 4.70496689 -8.875 6.375 C-10.19583333 8.12083333 -10.19583333 8.12083333 -11 11 C-6.05 11 -1.1 11 4 11 C4 11.33 4 11.66 4 12 C-1.28 12 -6.56 12 -12 12 C-12.33 11.01 -12.66 10.02 -13 9 C-13.66 9.66 -14.32 10.32 -15 11 C-14.58534283 6.16233301 -12.5801385 4.14353624 -9 1 C-5.98675805 -0.50662097 -3.31713623 -0.17770373 0 0 Z " fill="#E47727" transform="translate(948,160)"/>
<path d="M0 0 C2.375 1.8125 2.375 1.8125 4 4 C4 4.99 4 5.98 4 7 C-0.95 7 -5.9 7 -11 7 C-8.49235175 0.73087936 -6.6312331 -0.81198773 0 0 Z " fill="#26180F" transform="translate(408,751)"/>
<path d="M0 0 C5.61 0 11.22 0 17 0 C17 0.66 17 1.32 17 2 C16.236875 2.268125 15.47375 2.53625 14.6875 2.8125 C11.97748444 3.76699988 11.97748444 3.76699988 10.625 5.6875 C9 7 9 7 5.5 6.875 C2.18834025 6.04708506 0.97471216 5.67166939 -1 3 C-0.67 2.01 -0.34 1.02 0 0 Z " fill="#362315" transform="translate(991,176)"/>
<path d="M0 0 C2.375 1.25 2.375 1.25 4 3 C4 4.32 4 5.64 4 7 C-0.62 7 -5.24 7 -10 7 C-9.67 5.35 -9.34 3.7 -9 2 C-5.51131349 -0.32579101 -4.10281481 -0.41865457 0 0 Z " fill="#25180E" transform="translate(1249,751)"/>
<path d="M0 0 C1.9375 1.375 1.9375 1.375 3 3 C3 3.99 3 4.98 3 6 C-1.95 6 -6.9 6 -12 6 C-11 2 -11 2 -9.375 0.1875 C-5.92246609 -1.53876696 -3.67500368 -0.93545548 0 0 Z " fill="#29190F" transform="translate(795,752)"/>
<path d="M0 0 C3.0625 0.25 3.0625 0.25 6.0625 2.25 C6.25 4.875 6.25 4.875 6.0625 7.25 C3.96155026 7.52573092 1.85642365 7.76978976 -0.25 8 C-1.42175781 8.13921875 -2.59351563 8.2784375 -3.80078125 8.421875 C-6.9375 8.25 -6.9375 8.25 -8.85546875 6.265625 C-9.21253906 5.60046875 -9.56960938 4.9353125 -9.9375 4.25 C-8.761875 3.816875 -8.761875 3.816875 -7.5625 3.375 C-4.33864697 1.9933487 -3.57292416 0.30407865 0 0 Z " fill="#3D2715" transform="translate(792.9375,163.75)"/>
<path d="M0 0 C5.54621849 -0.3697479 5.54621849 -0.3697479 7.6875 1.375 C8.120625 1.91125 8.55375 2.4475 9 3 C9.99 3.66 10.98 4.32 12 5 C11.34 5 10.68 5 10 5 C10 5.99 10 6.98 10 8 C8.54077307 7.88590407 7.08259402 7.75834456 5.625 7.625 C4.40683594 7.52058594 4.40683594 7.52058594 3.1640625 7.4140625 C1 7 1 7 -1 5 C-0.625 2.375 -0.625 2.375 0 0 Z " fill="#2D1F15" transform="translate(1033,751)"/>
<path d="M0 0 C0.94875 0.04125 1.8975 0.0825 2.875 0.125 C3.535 1.445 4.195 2.765 4.875 4.125 C6.525 3.795 8.175 3.465 9.875 3.125 C9.875 3.785 9.875 4.445 9.875 5.125 C8.225 5.455 6.575 5.785 4.875 6.125 C4.875 6.785 4.875 7.445 4.875 8.125 C0.42 7.135 0.42 7.135 -4.125 6.125 C-4.455 4.805 -4.785 3.485 -5.125 2.125 C-3.125 0.125 -3.125 0.125 0 0 Z " fill="#291B11" transform="translate(537.125,750.875)"/>
<path d="M0 0 C0.99 0 1.98 0 3 0 C3 0.99 3 1.98 3 3 C8.28 3 13.56 3 19 3 C19.33 2.01 19.66 1.02 20 0 C20.66 0 21.32 0 22 0 C22 1.65 22 3.3 22 5 C15.73 5 9.46 5 3 5 C2.67 6.32 2.34 7.64 2 9 C1.34 9 0.68 9 0 9 C0 6.03 0 3.06 0 0 Z " fill="#FD852A" transform="translate(986,169)"/>
<path d="M0 0 C0.99 0 1.98 0 3 0 C3 7.59 3 15.18 3 23 C2.34 23 1.68 23 1 23 C-0.77504706 19.95879308 -1.21305767 17.95325346 -0.9765625 14.453125 C-0.925 13.60878906 -0.8734375 12.76445313 -0.8203125 11.89453125 C-0.75585938 11.02183594 -0.69140625 10.14914062 -0.625 9.25 C-0.53992188 7.91775391 -0.53992188 7.91775391 -0.453125 6.55859375 C-0.31202454 4.37153668 -0.1606567 2.1856931 0 0 Z " fill="#FBFBFB" transform="translate(758,749)"/>
<path d="M0 0 C0.2509302 4.51674367 0.2509302 4.51674367 -0.98788452 6.90252686 C-2.10806092 9.22394171 -2.27255021 10.74777823 -2.31884766 13.30957031 C-2.33871735 14.15013977 -2.35858704 14.99070923 -2.37905884 15.85675049 C-2.39061005 16.75480408 -2.40216125 17.65285767 -2.4140625 18.578125 C-2.43342865 19.5046991 -2.4527948 20.43127319 -2.4727478 21.38592529 C-2.53244767 24.34052371 -2.57889068 27.29516129 -2.625 30.25 C-2.6631886 32.25522517 -2.70224085 34.26043409 -2.7421875 36.265625 C-2.8381414 41.17695111 -2.92220803 46.088354 -3 51 C-3.33 51 -3.66 51 -4 51 C-4.07596188 44.219067 -4.1285625 37.4382434 -4.16479492 30.65698242 C-4.17989676 28.34932352 -4.20037969 26.04169339 -4.22631836 23.73413086 C-4.26263975 20.42033801 -4.27971236 17.10692408 -4.29296875 13.79296875 C-4.30845261 12.7585112 -4.32393646 11.72405365 -4.33988953 10.6582489 C-4.34011612 9.6974794 -4.34034271 8.7367099 -4.34057617 7.74682617 C-4.34723801 6.90077316 -4.35389984 6.05472015 -4.36076355 5.18302917 C-3.97439352 2.8450517 -2.79472197 0 0 0 Z " fill="#342215" transform="translate(601,545)"/>
<path d="M0 0 C1.32 0 2.64 0 4 0 C4.66 0.99 5.32 1.98 6 3 C9.56769552 3.73606499 9.56769552 3.73606499 13 4 C12.67 4.66 12.34 5.32 12 6 C12.66 6.66 13.32 7.32 14 8 C9.37368315 8.36284838 6.04949666 8.59971238 1.9375 6.25 C0 4 0 4 0 0 Z " fill="#F07E29" transform="translate(961,178)"/>
<path d="M0 0 C0 5.94 0 11.88 0 18 C-0.99 18 -1.98 18 -3 18 C-3 12.39 -3 6.78 -3 1 C-1 0 -1 0 0 0 Z " fill="#FD872B" transform="translate(831,167)"/>
<path d="M0 0 C0 0.33 0 0.66 0 1 C-1.98 1.33 -3.96 1.66 -6 2 C-6 2.99 -6 3.98 -6 5 C-11.46511628 10 -11.46511628 10 -13 10 C-13.33 11.98 -13.66 13.96 -14 16 C-14.33 16 -14.66 16 -15 16 C-15.71920089 9.16759156 -15.71920089 9.16759156 -13.734375 5.9453125 C-9.25918516 0.70977487 -7.02214689 -0.13003976 0 0 Z " fill="#D57025" transform="translate(1000,160)"/>
<path d="M0 0 C0.33 0 0.66 0 1 0 C1.33 5.61 1.66 11.22 2 17 C3.98 17.33 5.96 17.66 8 18 C8 19.32 8 20.64 8 22 C5.69 22 3.38 22 1 22 C-0.71948485 19.03051422 -1.22039127 17.08547775 -0.9765625 13.671875 C-0.89921875 12.47304687 -0.89921875 12.47304687 -0.8203125 11.25 C-0.75585938 10.425 -0.69140625 9.6 -0.625 8.75 C-0.56828125 7.90953125 -0.5115625 7.0690625 -0.453125 6.203125 C-0.31209668 4.13470958 -0.15738212 2.0672354 0 0 Z " fill="#E67927" transform="translate(1048,164)"/>
<path d="M0 0 C0.99 0 1.98 0 3 0 C2.34 3.96 1.68 7.92 1 12 C-0.65 12 -2.3 12 -4 12 C-3.45660208 7.43545749 -2.20536179 4.0271824 0 0 Z " fill="#DB7426" transform="translate(524,151)"/>
<path d="M0 0 C0.66 0.33 1.32 0.66 2 1 C1.51917969 1.47953125 1.03835938 1.9590625 0.54296875 2.453125 C-1.68312178 6.1275833 -1.56493144 9.5266376 -1.6875 13.75 C-1.72166016 14.54277344 -1.75582031 15.33554688 -1.79101562 16.15234375 C-1.87319104 18.10107504 -1.93828045 20.05051362 -2 22 C-2.66 22 -3.32 22 -4 22 C-4.1083667 19.2697611 -4.18746694 16.54385457 -4.25 13.8125 C-4.28351562 13.04357422 -4.31703125 12.27464844 -4.3515625 11.48242188 C-4.42243849 7.35389569 -4.32932056 5.49844836 -1.984375 1.94921875 C-1.32953125 1.30597656 -0.6746875 0.66273438 0 0 Z " fill="#4A2C16" transform="translate(1022,164)"/>
<path d="M0 0 C3.63 0 7.26 0 11 0 C11 1.32 11 2.64 11 4 C7.37 4 3.74 4 0 4 C0 2.68 0 1.36 0 0 Z " fill="#E57927" transform="translate(654,182)"/>
<path d="M0 0 C0 1.65 0 3.3 0 5 C-2.64 5.66 -5.28 6.32 -8 7 C-8 6.34 -8 5.68 -8 5 C-8.66 5 -9.32 5 -10 5 C-9.67 3.68 -9.34 2.36 -9 1 C-8.67 1.66 -8.34 2.32 -8 3 C-7.4225 2.505 -6.845 2.01 -6.25 1.5 C-4 0 -4 0 0 0 Z " fill="#E17727" transform="translate(930,160)"/>
<path d="M0 0 C1.65 0 3.3 0 5 0 C4.52269162 1.4589426 4.04308958 2.91713496 3.5625 4.375 C3.29566406 5.18710938 3.02882813 5.99921875 2.75390625 6.8359375 C2 9 2 9 1 11 C0.01 11 -0.98 11 -2 11 C-1.34 7.37 -0.68 3.74 0 0 Z " fill="#EC7C28" transform="translate(865,151)"/>
<path d="M0 0 C0.66 0.66 1.32 1.32 2 2 C2.99 1.34 3.98 0.68 5 0 C7.6875 -0.125 7.6875 -0.125 10 0 C10 1.32 10 2.64 10 4 C8.71073008 4.36279456 7.41846728 4.71496698 6.125 5.0625 C5.04605469 5.35833984 5.04605469 5.35833984 3.9453125 5.66015625 C2 6 2 6 0 5 C0 3.35 0 1.7 0 0 Z " fill="#E2E0DE" transform="translate(1013,748)"/>
<path d="M0 0 C-0.33589994 3.13506611 -1.02665172 4.025249 -3.375 6.25 C-6 8 -6 8 -9 8 C-8.20944111 2.46608774 -5.52734603 0 0 0 Z " fill="#E87A28" transform="translate(955,178)"/>
<path d="M0 0 C1.32 0 2.64 0 4 0 C4.66 0.99 5.32 1.98 6 3 C9.56769552 3.73606499 9.56769552 3.73606499 13 4 C13 4.33 13 4.66 13 5 C9.26513121 5.5745952 5.78706732 6 2 6 C1.34 5.34 0.68 4.68 0 4 C0 2.68 0 1.36 0 0 Z " fill="#DC7426" transform="translate(1061,178)"/>
<path d="M0 0 C0.66 0 1.32 0 2 0 C2 3.63 2 7.26 2 11 C0.68 11.33 -0.64 11.66 -2 12 C-1.85904936 10.3745692 -1.71207913 8.74965949 -1.5625 7.125 C-1.48128906 6.22007812 -1.40007813 5.31515625 -1.31640625 4.3828125 C-1 2 -1 2 0 0 Z " fill="#F7812A" transform="translate(577,167)"/>
<path d="M0 0 C0 1.65 0 3.3 0 5 C-3.375 5.625 -3.375 5.625 -7 6 C-7.66 5.34 -8.32 4.68 -9 4 C-4.5 0 -4.5 0 0 0 Z " fill="#E27727" transform="translate(627,160)"/>
<path d="M0 0 C1.98 0.495 1.98 0.495 4 1 C3.34 2.65 2.68 4.3 2 6 C1.34 6 0.68 6 0 6 C0 10.62 0 15.24 0 20 C-0.33 20 -0.66 20 -1 20 C-1.02689449 17.04160645 -1.04678741 14.08345573 -1.0625 11.125 C-1.07087891 10.28324219 -1.07925781 9.44148437 -1.08789062 8.57421875 C-1.09111328 7.76855469 -1.09433594 6.96289062 -1.09765625 6.1328125 C-1.10289307 5.38918457 -1.10812988 4.64555664 -1.11352539 3.87939453 C-1 2 -1 2 0 0 Z " fill="#F68029" transform="translate(616,164)"/>
<path d="M0 0 C0.8353125 0.37125 0.8353125 0.37125 1.6875 0.75 C0.6975 0.75 -0.2925 0.75 -1.3125 0.75 C-0.9825 1.74 -0.6525 2.73 -0.3125 3.75 C-0.9725 4.41 -1.6325 5.07 -2.3125 5.75 C-3.3025 5.75 -4.2925 5.75 -5.3125 5.75 C-5.9725 7.07 -6.6325 8.39 -7.3125 9.75 C-7.625 7 -7.625 7 -7.3125 3.75 C-3.50153592 -0.37854442 -3.50153592 -0.37854442 0 0 Z " fill="#D47025" transform="translate(789.3125,171.25)"/>
<path d="M0 0 C1.19109375 -0.00386719 1.19109375 -0.00386719 2.40625 -0.0078125 C4.5 0.125 4.5 0.125 6.5 1.125 C6.17 1.785 5.84 2.445 5.5 3.125 C4.89671875 3.01800781 4.2934375 2.91101563 3.671875 2.80078125 C-1.33426522 1.89834438 -1.33426522 1.89834438 -5.9375 3.5625 C-6.453125 4.078125 -6.96875 4.59375 -7.5 5.125 C-8.16 5.125 -8.82 5.125 -9.5 5.125 C-9.5 4.135 -9.5 3.145 -9.5 2.125 C-10.82 1.795 -12.14 1.465 -13.5 1.125 C-12.38625 1.145625 -11.2725 1.16625 -10.125 1.1875 C-6.45331428 1.12419507 -3.70407899 -0.01202623 0 0 Z " fill="#422916" transform="translate(765.5,158.875)"/>
<path d="M0 0 C0.66 0 1.32 0 2 0 C0.59155282 3.21524305 -1.10344786 5.32183868 -3.625 7.75 C-4.57246094 8.67039062 -4.57246094 8.67039062 -5.5390625 9.609375 C-6.02117188 10.06828125 -6.50328125 10.5271875 -7 11 C-7.66 10.67 -8.32 10.34 -9 10 C-7.5484451 8.32742645 -6.08855591 6.66208242 -4.625 5 C-3.81289063 4.071875 -3.00078125 3.14375 -2.1640625 2.1875 C-1.44992187 1.465625 -0.73578125 0.74375 0 0 Z " fill="#3E2D20" transform="translate(632,491)"/>
<path d="M0 0 C1.32 0 2.64 0 4 0 C3.25 2.4375 3.25 2.4375 2 5 C-0.15342034 5.87482701 -1.69010775 6 -4 6 C-2.84826645 3.53199953 -1.95216435 1.95216435 0 0 Z " fill="#DC7426" transform="translate(1004,178)"/>
<path d="M0 0 C4.8 2.46153846 4.8 2.46153846 5.8125 5.1875 C5.874375 5.785625 5.93625 6.38375 6 7 C4.35 7 2.7 7 1 7 C-0.0625 5.1875 -0.0625 5.1875 -1 3 C-0.67 2.01 -0.34 1.02 0 0 Z " fill="#DB7426" transform="translate(974,161)"/>
<path d="M0 0 C1.65 0.33 3.3 0.66 5 1 C3.95125002 3.62187494 3.35068687 4.79371361 0.875 6.25 C0.25625 6.4975 -0.3625 6.745 -1 7 C-0.67 4.69 -0.34 2.38 0 0 Z " fill="#DC7426" transform="translate(1062,163)"/>
<path d="M0 0 C2 1 2 1 2.6328125 2.84765625 C2.79523437 3.57855469 2.95765625 4.30945313 3.125 5.0625 C3.29257812 5.79597656 3.46015625 6.52945312 3.6328125 7.28515625 C3.75398437 7.85105469 3.87515625 8.41695313 4 9 C3.34 9 2.68 9 2 9 C2 8.34 2 7.68 2 7 C1.34 7 0.68 7 0 7 C-0.33 7.99 -0.66 8.98 -1 10 C-2.27351308 7.45297384 -1.80191925 6.5717055 -1.0625 3.875 C-0.86785156 3.15054687 -0.67320312 2.42609375 -0.47265625 1.6796875 C-0.31667969 1.12539063 -0.16070313 0.57109375 0 0 Z " fill="#533016" transform="translate(843,360)"/>
<path d="M0 0 C1.4540625 0.0309375 1.4540625 0.0309375 2.9375 0.0625 C2.9375 1.0525 2.9375 2.0425 2.9375 3.0625 C1.2875 3.0625 -0.3625 3.0625 -2.0625 3.0625 C-2.3925 3.7225 -2.7225 4.3825 -3.0625 5.0625 C-3.7225 5.0625 -4.3825 5.0625 -5.0625 5.0625 C-3.9375 0.08035714 -3.9375 0.08035714 0 0 Z " fill="#392C24" transform="translate(537.0625,750.9375)"/>
<path d="M0 0 C1.32 0 2.64 0 4 0 C3.67 1.32 3.34 2.64 3 4 C0.36 3.67 -2.28 3.34 -5 3 C-5 2.67 -5 2.34 -5 2 C-3.35 2 -1.7 2 0 2 C0 1.34 0 0.68 0 0 Z " fill="#D47025" transform="translate(970,171)"/>
<path d="M0 0 C2.96175123 0.61277612 4.38058783 1.25372522 7 3 C7 3.66 7 4.32 7 5 C5.35 5 3.7 5 2 5 C1.34 3.35 0.68 1.7 0 0 Z " fill="#F8812A" transform="translate(963,168)"/>
<path d="M0 0 C0 0.33 0 0.66 0 1 C-1.11375 1.12375 -1.11375 1.12375 -2.25 1.25 C-5.51221354 2.1396946 -6.80954878 3.48503749 -9 6 C-9.66 5.34 -10.32 4.68 -11 4 C-7.26280719 0.48264206 -5.13496308 -0.47767098 0 0 Z " fill="#D16E25" transform="translate(1029,160)"/>
<path d="M0 0 C1.98 0 3.96 0 6 0 C5.67 0.66 5.34 1.32 5 2 C5.66 2.66 6.32 3.32 7 4 C4.03 4 1.06 4 -2 4 C-1.01 3.34 -0.02 2.68 1 2 C0.67 1.34 0.34 0.68 0 0 Z " fill="#CD6B24" transform="translate(968,182)"/>
<path d="M0 0 C0.66 0 1.32 0 2 0 C2 0.99 2 1.98 2 3 C4.64 3 7.28 3 10 3 C10 3.33 10 3.66 10 4 C8.72125 4.144375 7.4425 4.28875 6.125 4.4375 C3.74307106 4.70642746 2.15547309 4.92226346 0 6 C0 4.02 0 2.04 0 0 Z " fill="#574C45" transform="translate(331,746)"/>
<path d="M0 0 C0.66 0.66 1.32 1.32 2 2 C2.66 1.67 3.32 1.34 4 1 C4 1.66 4 2.32 4 3 C5.98 3 7.96 3 10 3 C10 3.33 10 3.66 10 4 C7.36 4.66 4.72 5.32 2 6 C2 5.34 2 4.68 2 4 C1.34 4 0.68 4 0 4 C0 2.68 0 1.36 0 0 Z " fill="#C96B24" transform="translate(920,161)"/>
<path d="M0 0 C0.33 0 0.66 0 1 0 C1.4726477 8.19256018 1.4726477 8.19256018 -0.5 11.5625 C-0.995 12.036875 -1.49 12.51125 -2 13 C-2.33 11.68 -2.66 10.36 -3 9 C-2.01 8.67 -1.02 8.34 0 8 C0 5.36 0 2.72 0 0 Z " fill="#C86A24" transform="translate(559,169)"/>
<path d="M0 0 C0.66 0.99 1.32 1.98 2 3 C0.02 3.99 0.02 3.99 -2 5 C-2 4.34 -2 3.68 -2 3 C-3.65 3 -5.3 3 -7 3 C-7 2.67 -7 2.34 -7 2 C-4.69 1.34 -2.38 0.68 0 0 Z " fill="#CD6C25" transform="translate(600,180)"/>
</svg>
