<?xml version="1.0" encoding="UTF-8"?>
<svg version="1.1" xmlns="http://www.w3.org/2000/svg" width="1600" height="930">
<path d="M0 0 C528 0 1056 0 1600 0 C1600 306.9 1600 613.8 1600 930 C1072 930 544 930 0 930 C0 623.1 0 316.2 0 0 Z " fill="#3A0D10" transform="translate(0,0)"/>
<path d="M0 0 C1.98229992 -0.00067634 3.96459977 -0.00164908 5.94689941 -0.00289917 C10.08179522 -0.0043634 14.21666925 -0.00226482 18.3515625 0.00244141 C23.57788643 0.00810855 28.8041592 0.00476266 34.03048134 -0.00097656 C70.7774071 -0.03576614 70.7774071 -0.03576614 85.6484375 0.5 C87.01506531 0.54240311 87.01506531 0.54240311 88.40930176 0.58566284 C95.06227217 0.88840486 100.60992409 2.27877107 106.15625 6.1328125 C106.74921875 6.51566406 107.3421875 6.89851563 107.953125 7.29296875 C113.46299107 11.31626204 117.01777103 17.76638527 119.15625 24.1328125 C119.36163243 26.65087825 119.4702767 29.06076368 119.47851562 31.57836914 C119.49341034 32.67708847 119.49341034 32.67708847 119.50860596 33.79800415 C119.53772798 36.21303124 119.55143623 38.62779514 119.5625 41.04296875 C119.57098213 42.28788495 119.57098213 42.28788495 119.57963562 43.55795097 C119.60958078 47.95490661 119.62806078 52.35173181 119.63671875 56.7487793 C119.64764827 61.26226492 119.69562605 65.77453158 119.75266266 70.28763676 C119.79016837 73.78211279 119.80034006 77.27630348 119.8033905 80.77096367 C119.80939369 82.43297384 119.82528003 84.09498203 119.85176086 85.75679207 C120.03442304 98.10697051 118.38661826 107.56079337 109.78125 117.1328125 C103.14741963 123.16356738 96.14434809 125.18697993 87.34741211 125.44482422 C86.66742975 125.46531452 85.9874474 125.48580482 85.28685951 125.50691605 C83.02338744 125.57269395 80.75980845 125.63071794 78.49609375 125.6875 C77.70768538 125.70843594 76.919277 125.72937187 76.10697746 125.75094223 C58.06401139 126.22373196 40.02305706 126.28695141 21.97485352 126.26318359 C17.53349334 126.25738453 13.0921923 126.26085392 8.65083408 126.26675606 C5.15469422 126.27038679 1.65856821 126.2692133 -1.8375721 126.26662827 C-3.47635976 126.26597121 -5.11514877 126.26674354 -6.75393486 126.26910782 C-40.85258099 126.30769046 -40.85258099 126.30769046 -51.66397095 115.65559387 C-59.99706291 106.01123604 -60.72631101 95.12251044 -60.5703125 83.02734375 C-60.56927188 81.41078188 -60.57032046 79.79421748 -60.57333374 78.17765808 C-60.57315569 74.81311555 -60.55258432 71.44954546 -60.51611328 68.08520508 C-60.47063068 63.79831679 -60.46968481 59.5128374 -60.48314857 55.22577381 C-60.48986623 51.89600859 -60.47649909 48.56655793 -60.45689011 45.23685265 C-60.44925941 43.6570062 -60.44685882 42.07712458 -60.4500618 40.49726295 C-60.45426708 28.10235134 -58.86001845 17.39666727 -49.84375 8.1328125 C-35.86406161 -2.66093512 -16.75072947 -0.02048727 0 0 Z " fill="#FD3E3E" transform="translate(487.84375,315.8671875)"/>
<path d="M0 0 C1.04881348 -0.01023193 2.09762695 -0.02046387 3.17822266 -0.03100586 C18.94811793 0.14597539 32.53199796 5.78084695 43.90234375 16.7421875 C57.56924303 31.63975544 61.34877259 50.62956234 60.51416016 70.20800781 C59.37352555 88.48217488 51.50996747 103.15283914 38.2265625 115.421875 C24.82473059 126.74327813 8.2166417 128.39426585 -8.625 127.4375 C-24.1560076 125.81757743 -36.55984487 116.96261791 -46.625 105.4375 C-58.76712936 89.55729151 -59.80191467 69.61662367 -58.625 50.4375 C-57.97204324 45.833244 -56.51479928 41.67977357 -54.625 37.4375 C-54.31304688 36.62925781 -54.00109375 35.82101562 -53.6796875 34.98828125 C-47.73433564 20.27478443 -37.04809277 10.0093395 -22.91015625 3.11328125 C-15.3686284 0.22826724 -8.00343416 0.06042763 0 0 Z " fill="#FC3E3E" transform="translate(920.625,316.5625)"/>
<path d="M0 0 C11.17122408 8.70145126 17.49057547 17.63751409 22 31 C22.309375 31.85335937 22.61875 32.70671875 22.9375 33.5859375 C29.64256646 52.47617281 25.71476459 72.05309659 18.40625 90.1015625 C16.2023979 94.64394654 13.3861181 98.28163232 10 102 C9.39285156 102.69867187 8.78570313 103.39734375 8.16015625 104.1171875 C-1.06694447 114.11793061 -12.81167004 118.6503602 -26.23046875 119.31640625 C-43.6488316 119.84292467 -56.9931403 116.44873973 -70.1875 104.4375 C-84.87789212 88.72359695 -88.05938036 69.1192946 -87.4140625 48.359375 C-86.47737538 30.51522363 -79.2186621 15.13166492 -66 3 C-47.94402449 -11.40721968 -19.26136653 -13.04532494 0 0 Z " fill="#430C16" transform="translate(1004,479)"/>
<path d="M0 0 C25.08 0 50.16 0 76 0 C76 4.29 76 8.58 76 13 C55.54 13 35.08 13 14 13 C14 26.86 14 40.72 14 55 C32.48 55 50.96 55 70 55 C70 58.96 70 62.92 70 67 C51.52 67 33.04 67 14 67 C14 81.19 14 95.38 14 110 C34.46 110 54.92 110 76 110 C76.495 113.465 76.495 113.465 77 117 C77.51916992 115.52575562 77.51916992 115.52575562 78.04882812 114.02172852 C81.85409488 103.22386272 85.68412707 92.43494732 89.53173828 81.65209961 C90.17781265 79.84077815 90.82331953 78.02925419 91.46826172 76.2175293 C95.13968006 65.90431648 98.86561528 55.61720827 102.73144531 45.37524414 C104.24437211 41.349799 105.70546009 37.30916737 107.125 33.25 C107.37161377 32.54883057 107.61822754 31.84766113 107.87231445 31.12524414 C109.68084491 25.96382675 111.41437664 20.77932594 113.12890625 15.5859375 C114.90373711 10.3171571 116.93518724 5.1620319 119 0 C125.6 0 132.2 0 139 0 C143.29376654 10.90616702 147.42688322 21.82831348 151.27050781 32.89990234 C156.19526937 47.0775459 161.2762602 61.19793425 166.6015625 75.23046875 C169.45726611 82.75988342 172.12971193 90.31220708 174.6328125 97.96875 C176.52363866 103.64410645 178.64898901 109.23693176 180.76538086 114.83129883 C181.05550049 115.60497803 181.34562012 116.37865723 181.64453125 117.17578125 C182.03668823 118.21085815 182.03668823 118.21085815 182.43676758 119.2668457 C183 121 183 121 183 123 C178.71 123 174.42 123 170 123 C167.25509532 117.19347088 164.9577611 111.29803092 162.8125 105.25 C162.55065918 104.51724854 162.28881836 103.78449707 162.01904297 103.02954102 C161.64803467 101.97077759 161.64803467 101.97077759 161.26953125 100.890625 C160.93852417 99.94751465 160.93852417 99.94751465 160.60083008 98.98535156 C159.90889203 96.69894757 159.46848452 94.34242262 159 92 C139.2 92 119.4 92 99 92 C98.67 93.65 98.34 95.3 98 97 C97.2592968 99.38456868 96.48525382 101.75890662 95.6875 104.125 C95.07455078 105.95417969 95.07455078 105.95417969 94.44921875 107.8203125 C92.68804863 112.89969803 90.83722665 117.94762672 89 123 C59.63 123 30.26 123 0 123 C0 82.41 0 41.82 0 0 Z " fill="#FBFAFA" transform="translate(672,473)"/>
<path d="M0 0 C1.83691406 -0.04253906 1.83691406 -0.04253906 3.7109375 -0.0859375 C18.68554299 -0.11766336 31.79208336 6.02834632 42.8125 16.0625 C48.78170814 22.35236808 54.12475966 30.93487556 55.625 39.5 C51.60542082 39.76287913 47.58805806 39.9216837 43.5625 40.0625 C42.42876953 40.13791016 41.29503906 40.21332031 40.12695312 40.29101562 C31.79553473 40.50962427 31.79553473 40.50962427 28.37304688 37.55761719 C26.52734375 35.14453125 26.52734375 35.14453125 25.03100586 32.72973633 C21.81742943 27.63343601 16.21018894 24.69746596 10.5390625 23.01171875 C0.67041332 21.27875221 -9.69001518 20.92310415 -18.52734375 26.11328125 C-20.41676542 27.45778477 -20.41676542 27.45778477 -22.00390625 29.16796875 C-23.375 30.5 -23.375 30.5 -25.375 30.5 C-25.6534375 31.07878906 -25.931875 31.65757812 -26.21875 32.25390625 C-27.32900874 34.41065887 -28.55446873 36.40436496 -29.875 38.4375 C-36.72223923 49.37294383 -37.06789637 64.86182105 -34.6875 77.4375 C-31.9521918 87.32669119 -26.74055017 96.201749 -17.75 101.375 C-9.36087207 105.81976603 1.58264929 105.88800566 10.75390625 103.78125 C18.94036505 100.68164423 24.10346624 95.75351174 28.4296875 88.2109375 C30.24702139 84.08927174 30.83376841 79.99305921 30.625 75.5 C28.7019111 73.5769111 25.15429515 74.24678162 22.52734375 74.18359375 C21.81848526 74.16281265 21.10962677 74.14203156 20.37928772 74.12062073 C18.10712695 74.05505402 15.83484736 73.9962077 13.5625 73.9375 C12.02537817 73.89432151 10.4882685 73.85070745 8.95117188 73.80664062 C5.17590144 73.69854266 1.40054534 73.59952363 -2.375 73.5 C-2.375 66.24 -2.375 58.98 -2.375 51.5 C4.63656319 51.40807856 11.64602878 51.32846372 18.65771484 51.28027344 C21.04190157 51.26018107 23.42603915 51.23290219 25.81005859 51.19824219 C29.24068338 51.14962141 32.67065555 51.12700688 36.1015625 51.109375 C37.16428375 51.08872986 38.227005 51.06808472 39.32192993 51.04681396 C45.26745374 51.04501873 49.01213751 51.33902093 53.625 55.5 C56.84551056 58.91603135 56.99207382 61.38443901 56.96557617 66.01269531 C56.96623329 66.97917496 56.96623329 66.97917496 56.96690369 67.96517944 C56.96482024 70.08647381 56.94151181 72.20696938 56.91796875 74.328125 C56.91237118 75.80213998 56.90810184 77.27616055 56.90510559 78.75018311 C56.89366941 82.62353006 56.86421314 86.49653776 56.83099365 90.36975098 C56.80026611 94.32457897 56.78659454 98.27946196 56.77148438 102.234375 C56.73934189 109.98975566 56.6865844 117.74478701 56.625 125.5 C49.365 125.5 42.105 125.5 34.625 125.5 C34.625 110.57379488 38.84070583 98.43483739 43.625 84.5 C42.635 84.5 41.645 84.5 40.625 84.5 C40.56183594 85.05945313 40.49867188 85.61890625 40.43359375 86.1953125 C38.41574587 99.40690598 31.58507893 111.19341866 20.9375 119.1875 C9.33487419 126.97508444 -4.63107834 129.17543243 -18.375 127.5 C-26.83716805 125.51978258 -35.06079164 121.49148216 -41.375 115.5 C-42.03757812 114.87738281 -42.70015625 114.25476563 -43.3828125 113.61328125 C-57.86681591 98.71623592 -60.73357977 79.76585341 -60.51953125 59.890625 C-60.19610009 44.58680904 -55.95113592 29.90137855 -45.375 18.5 C-44.69566406 17.73042969 -44.01632812 16.96085937 -43.31640625 16.16796875 C-31.32684263 3.28079074 -17.09041797 -0.03575401 0 0 Z " fill="#FB3E3E" transform="translate(687.375,316.5)"/>
<path d="M0 0 C14.97375 -0.12375 14.97375 -0.12375 30.25 -0.25 C33.37758789 -0.28641602 36.50517578 -0.32283203 39.72753906 -0.36035156 C42.24022742 -0.37204731 44.75292342 -0.38223703 47.265625 -0.390625 C48.5429248 -0.41108887 49.82022461 -0.43155273 51.13623047 -0.45263672 C62.55697655 -0.45702762 73.28545334 1.61972731 81.8046875 9.71484375 C87.73079995 15.92373749 90.0526 21.89753132 90.4375 30.4375 C90.20259612 38.41304601 87.35153372 45.11048141 82 51 C79.23828125 52.9140625 79.23828125 52.9140625 76.3125 54.625 C72.05899383 56.8873738 72.05899383 56.8873738 70 61 C71.5778125 61.1546875 71.5778125 61.1546875 73.1875 61.3125 C79.38412615 62.42992439 82.40060321 64.91119764 86 70 C87.84605384 73.10838254 88.24561745 75.35021469 88.22705078 78.95214844 C88.22689972 79.93286316 88.22674866 80.91357788 88.22659302 81.92401123 C88.21627045 82.97518127 88.20594788 84.02635132 88.1953125 85.109375 C88.1924826 86.19132141 88.18965271 87.27326782 88.18673706 88.38800049 C88.17554609 91.84211304 88.1504432 95.29596588 88.125 98.75 C88.11496881 101.09244417 88.1058432 103.43489241 88.09765625 105.77734375 C88.07561025 111.51832917 88.04108755 117.25912056 88 123 C83.71 123 79.42 123 75 123 C74.9906543 121.57212158 74.98130859 120.14424316 74.97167969 118.6730957 C74.93177951 113.37069611 74.86601976 108.06887669 74.79248047 102.7668457 C74.76427118 100.47297626 74.74305647 98.17900962 74.72900391 95.88500977 C74.70757449 92.58559407 74.66092217 89.28734698 74.609375 85.98828125 C74.60814636 84.96414627 74.60691772 83.94001129 74.60565186 82.88484192 C74.51399491 78.41965547 74.45612478 75.74489902 72.08691406 71.87573242 C68.91032939 69.02059672 67.0932094 68.86410537 62.90771484 68.79467773 C61.83191162 68.77449585 60.7561084 68.75431396 59.64770508 68.73352051 C58.51357178 68.71704468 57.37943848 68.70056885 56.2109375 68.68359375 C55.17106689 68.66494263 54.13119629 68.6462915 53.05981445 68.6270752 C49.16496503 68.55863263 45.26997189 68.49857656 41.375 68.4375 C32.67125 68.293125 23.9675 68.14875 15 68 C15 86.15 15 104.3 15 123 C10.05 123 5.1 123 0 123 C0 82.41 0 41.82 0 0 Z " fill="#F8F7F7" transform="translate(1038,473)"/>
<path d="M0 0 C10.126875 -0.103125 20.25375 -0.20625 30.6875 -0.3125 C33.85819092 -0.35802002 37.02888184 -0.40354004 40.2956543 -0.45043945 C42.84683173 -0.46506097 45.39802096 -0.47779768 47.94921875 -0.48828125 C49.24299438 -0.51386108 50.53677002 -0.53944092 51.86975098 -0.5657959 C63.25879228 -0.57118283 73.93794309 1.90991542 82.34765625 10.03515625 C88.75470854 17.65394419 90.79202321 25.20771299 90 35 C88.48653781 42.3408875 85.51935192 48.57667482 79.265625 52.8828125 C77.30665819 54.09574791 75.32796419 55.27758199 73.328125 56.421875 C70.71197261 57.85101337 70.71197261 57.85101337 70 61 C71.175625 61.04125 72.35125 61.0825 73.5625 61.125 C78.59873021 61.75899352 81.79905784 64.13455846 85 68 C88.68740646 73.63093892 88.38952323 78.8141542 88.29296875 85.3046875 C88.28872391 86.38380402 88.28447906 87.46292053 88.28010559 88.57473755 C88.2633642 92.00841624 88.22571944 95.44149983 88.1875 98.875 C88.17244734 101.20832483 88.15875995 103.5416589 88.14648438 105.875 C88.11347539 111.5835613 88.06172355 117.29167988 88 123 C83.71 123 79.42 123 75 123 C74.99589111 121.57212158 74.99178223 120.14424316 74.98754883 118.6730957 C74.96576177 113.37064618 74.91147544 108.06893915 74.84741211 102.7668457 C74.82422858 100.47297283 74.80983559 98.17899345 74.80444336 95.88500977 C74.7951568 92.58542484 74.75417012 89.28751586 74.70703125 85.98828125 C74.7109639 84.96414627 74.71489655 83.94001129 74.71894836 82.88484192 C74.61502729 76.90410379 74.61502729 76.90410379 71.51831055 71.87573242 C70.27174683 70.94724487 70.27174683 70.94724487 69 70 C68.67 69.67 68.34 69.34 68 69 C66.31290653 68.87700834 64.62079097 68.82214742 62.92944336 68.79467773 C61.83321655 68.77449585 60.73698975 68.75431396 59.60754395 68.73352051 C58.44670288 68.71704468 57.28586182 68.70056885 56.08984375 68.68359375 C54.49903992 68.65561707 54.49903992 68.65561707 52.87609863 68.6270752 C48.89665428 68.55853504 44.91706644 68.49854154 40.9375 68.4375 C32.048125 68.293125 23.15875 68.14875 14 68 C14 86.15 14 104.3 14 123 C9.38 123 4.76 123 0 123 C0 82.41 0 41.82 0 0 Z " fill="#FBFAFA" transform="translate(572,473)"/>
<path d="M0 0 C7.59 0 15.18 0 23 0 C23 16.17 23 32.34 23 49 C40.82 49 58.64 49 77 49 C77 32.83 77 16.66 77 0 C84.59 0 92.18 0 100 0 C100 40.59 100 81.18 100 123 C92.41 123 84.82 123 77 123 C77 105.51 77 88.02 77 70 C59.18 70 41.36 70 23 70 C23 87.49 23 104.98 23 123 C15.41 123 7.82 123 0 123 C0 82.41 0 41.82 0 0 Z " fill="#FE3E3E" transform="translate(754,319)"/>
<path d="M0 0 C1.97712132 -0.01178719 3.95390024 -0.0613968 5.93041992 -0.11157227 C19.04668942 -0.18396512 29.80426046 3.39325817 39.4440918 12.42553711 C47.01623408 20.16977353 49.4440918 26.62881936 49.4440918 37.42553711 C41.5240918 37.42553711 33.6040918 37.42553711 25.4440918 37.42553711 C24.7840918 35.11553711 24.1240918 32.80553711 23.4440918 30.42553711 C20.18529776 26.32876747 16.58482661 23.55420616 11.4440918 22.42553711 C2.12431869 21.70776878 -7.94577858 21.21243341 -15.5559082 27.30053711 C-19.15795568 30.48568094 -19.44255257 33.1786252 -19.8684082 37.86303711 C-19.4926603 42.14656321 -18.46141874 43.33719682 -15.5559082 46.42553711 C-8.25350807 51.01839443 -0.00656846 52.15971548 8.35986328 53.33666992 C22.31449608 55.33555797 35.44263241 59.6147347 45.14331055 70.29663086 C50.67464072 77.73620547 50.75663203 86.17380752 49.84155273 95.08959961 C48.44103447 103.32065536 43.74619568 111.45704797 37.5065918 116.97241211 C23.59707997 126.77229544 8.03814159 128.9240196 -8.5559082 127.42553711 C-20.139038 125.3313451 -30.23348246 120.07844982 -37.79418945 110.98413086 C-42.9406602 103.50976647 -44.5559082 97.52278145 -44.5559082 88.42553711 C-36.9659082 88.42553711 -29.3759082 88.42553711 -21.5559082 88.42553711 C-20.5659082 91.06553711 -19.5759082 93.70553711 -18.5559082 96.42553711 C-15.04041883 100.70113229 -11.0677046 103.92304339 -5.43505859 104.72900391 C-3.02938889 104.86481812 -0.65270566 104.89333678 1.7565918 104.86303711 C2.60237793 104.85401367 3.44816406 104.84499023 4.31958008 104.83569336 C10.26265776 104.67032076 15.70530451 104.38747402 20.4440918 100.42553711 C23.75135459 96.78675872 25.24795682 93.5827335 26.0690918 88.73803711 C25.25816116 84.44010474 23.86099927 83.09963861 20.4440918 80.42553711 C15.06348479 77.2123533 9.50880304 76.1988111 3.4440918 74.98803711 C-29.58855967 68.04377621 -29.58855967 68.04377621 -39.5559082 55.42553711 C-44.58224567 47.39565653 -45.75936239 38.79023107 -44.5559082 29.42553711 C-40.68852018 18.00522514 -34.12401343 10.15443353 -23.3684082 4.55053711 C-15.46849861 0.80364798 -8.68904348 0.02440444 0 0 Z " fill="#FB3E3E" transform="translate(1026.555908203125,316.574462890625)"/>
<path d="M0 0 C10.12561744 6.09952701 15.88129477 15.93372276 18.96484375 27.18359375 C21.97259958 41.25377358 19.48442145 54.99955395 11.96484375 67.18359375 C6.94393017 74.0071477 1.51122281 79.43807887 -7.03515625 81.18359375 C-19.14206163 82.27917854 -29.53035464 82.33726352 -39.2265625 74.38671875 C-48.30857802 66.0239052 -52.37447692 55.70907227 -53.3203125 43.50390625 C-53.66270452 28.9448022 -50.55453803 16.03328842 -40.40234375 5.3046875 C-29.60862852 -4.36690882 -13.12278525 -6.48288024 0 0 Z " fill="#481019" transform="translate(938.03515625,340.81640625)"/>
<path d="M0 0 C11.17122408 8.70145126 17.49057547 17.63751409 22 31 C22.309375 31.85335937 22.61875 32.70671875 22.9375 33.5859375 C29.64256646 52.47617281 25.71476459 72.05309659 18.40625 90.1015625 C16.2023979 94.64394654 13.3861181 98.28163232 10 102 C9.39285156 102.69867187 8.78570313 103.39734375 8.16015625 104.1171875 C-1.06694447 114.11793061 -12.81167004 118.6503602 -26.23046875 119.31640625 C-43.6488316 119.84292467 -56.9931403 116.44873973 -70.1875 104.4375 C-84.87789212 88.72359695 -88.05938036 69.1192946 -87.4140625 48.359375 C-86.47737538 30.51522363 -79.2186621 15.13166492 -66 3 C-47.94402449 -11.40721968 -19.26136653 -13.04532494 0 0 Z M-64 21 C-65.62088665 23.57089272 -66.83498937 26.19829151 -68 29 C-68.804375 30.670625 -68.804375 30.670625 -69.625 32.375 C-75.83809192 48.75496961 -73.99208767 66.25424424 -67.71484375 82.28125 C-63.36408258 91.87958662 -56.68041869 99.59980968 -47 104 C-36.3238424 107.10353419 -23.89361807 107.94925061 -13.48828125 103.44921875 C-2.85685693 97.2572903 5.65554019 86.87624502 9 75 C12.53014048 60.5237122 12.89788911 44.85906615 7 31 C6.66097656 30.1234375 6.32195312 29.246875 5.97265625 28.34375 C1.69025917 18.46832898 -6.08531105 11.03309381 -16 7 C-16.69996094 6.64679688 -17.39992188 6.29359375 -18.12109375 5.9296875 C-22.32818403 4.57108847 -26.35537488 4.63150092 -30.75 4.625 C-32.03390625 4.58826172 -32.03390625 4.58826172 -33.34375 4.55078125 C-45.94001573 4.4935255 -56.03382497 11.63505334 -64 21 Z " fill="#FAF9F9" transform="translate(1004,479)"/>
<path d="M0 0 C31.02 0 62.04 0 94 0 C94 6.93 94 13.86 94 21 C82.45 21 70.9 21 59 21 C59 54.66 59 88.32 59 123 C51.08 123 43.16 123 35 123 C35 89.34 35 55.68 35 21 C23.45 21 11.9 21 0 21 C0 14.07 0 7.14 0 0 Z " fill="#FB3E3E" transform="translate(1075,319)"/>
<path d="M0 0 C6.22929291 4.5593921 10.86303459 9.77254198 15.0625 16.1875 C15.63605225 17.06051758 15.63605225 17.06051758 16.22119141 17.95117188 C18.48726037 21.60766499 19.57837829 24.72540452 20 29 C14.8202059 29.65997377 10.15960994 29.95706754 5 29 C2.44521054 26.5254657 1.19163899 24.13242581 -0.40234375 20.96484375 C-4.25581502 13.81378093 -11.49461709 8.84465262 -19 6 C-28.59563738 3.25097956 -43.12425672 3.28623936 -52 8 C-61.71335989 14.33479993 -68.00242131 22.17988702 -72 33 C-72.30035156 33.77472656 -72.60070312 34.54945313 -72.91015625 35.34765625 C-78.12155054 51.03031721 -75.44141637 68.60851844 -68.75 83.375 C-63.4381549 93.10798446 -56.43415477 98.93570399 -46.30859375 103.109375 C-42.03835721 104.25886016 -38.0893647 104.32989867 -33.6875 104.3125 C-32.88376953 104.32861328 -32.08003906 104.34472656 -31.25195312 104.36132812 C-20.61737664 104.3698837 -11.65399589 100.4867179 -4.01953125 93.078125 C-0.33576209 89.02519347 2.47367205 84.85054966 5 80 C9.95 80 14.9 80 20 80 C15.62602777 95.69484152 6.57633198 105.27253626 -7.20703125 113.203125 C-15.56138469 117.41065257 -23.59529975 118.53045931 -32.875 118.4375 C-33.93348145 118.42992676 -34.99196289 118.42235352 -36.08251953 118.41455078 C-43.64362717 118.25486653 -50.18659463 117.49322212 -57 114 C-57.87398438 113.55269531 -58.74796875 113.10539063 -59.6484375 112.64453125 C-74.90715851 104.09873104 -82.80101686 91.37266518 -87.97265625 74.90234375 C-92.99944679 55.28617045 -91.29412831 33.64332244 -81.0390625 16.03515625 C-73.07903779 4.18661372 -62.81434122 -4.48842445 -48.921875 -8.34375 C-31.86799589 -11.19738714 -14.59415299 -9.74374332 0 0 Z " fill="#FAF9F9" transform="translate(544,480)"/>
<path d="M0 0 C29.37 0 58.74 0 89 0 C89 4.29 89 8.58 89 13 C76.79 13 64.58 13 52 13 C52 49.3 52 85.6 52 123 C47.05 123 42.1 123 37 123 C37 86.7 37 50.4 37 13 C24.79 13 12.58 13 0 13 C0 8.71 0 4.42 0 0 Z " fill="#F9F7F7" transform="translate(834,473)"/>
<path d="M0 0 C5.97781594 -0.06909291 11.95423095 -0.12876033 17.93212891 -0.16479492 C19.9631013 -0.17982599 21.99404154 -0.20025647 24.02490234 -0.22631836 C26.95418259 -0.26295232 29.88303144 -0.27978351 32.8125 -0.29296875 C33.71178223 -0.30845261 34.61106445 -0.32393646 35.53759766 -0.33988953 C43.73690911 -0.34204916 50.52653857 1.70353156 57 7 C61.3384563 12.36598542 61.62498509 17.09025039 61.375 23.91015625 C60.62672563 30.07562527 57.9831371 33.42011882 53.1875 37.3125 C46.7655075 42.1455459 39.84022415 42.28589543 32.12890625 42.1953125 C31.31031128 42.19329834 30.49171631 42.19128418 29.64831543 42.18920898 C26.61965247 42.17882387 23.59107001 42.15090187 20.5625 42.125 C13.776875 42.08375 6.99125 42.0425 0 42 C0 28.14 0 14.28 0 0 Z " fill="#47101A" transform="translate(586,486)"/>
<path d="M0 0 C5.85347034 -0.04602991 11.70630703 -0.08582029 17.55981445 -0.10986328 C19.54909397 -0.11989136 21.53835886 -0.13351717 23.52758789 -0.15087891 C26.39473085 -0.17526791 29.2616781 -0.18651526 32.12890625 -0.1953125 C33.01147598 -0.20563507 33.89404572 -0.21595764 34.80335999 -0.22659302 C43.25109652 -0.2281116 49.49887279 1.4251992 56 7 C60.72699839 12.19969823 60.34529045 18.11781499 60.27734375 24.8671875 C59.78741745 30.40128458 57.00028314 33.20904772 53.0625 36.75 C46.95924322 41.23402539 42.01836609 41.27447152 34.66796875 41.1953125 C33.18034782 41.19106766 33.18034782 41.19106766 31.66267395 41.18673706 C28.50415841 41.17556804 25.34592943 41.15046927 22.1875 41.125 C20.04232181 41.11496597 17.89713917 41.10584086 15.75195312 41.09765625 C10.50110363 41.07734349 5.25087151 41.03818816 0 41 C0 27.47 0 13.94 0 0 Z " fill="#410D15" transform="translate(1053,486)"/>
<path d="M0 0 C0.99 0 1.98 0 3 0 C9.36819349 17.50727284 15.71971624 35.01961276 21.8125 52.625 C22.23837402 53.84985107 22.66424805 55.07470215 23.10302734 56.33666992 C23.48797363 57.45533447 23.87291992 58.57399902 24.26953125 59.7265625 C24.60573486 60.70189941 24.94193848 61.67723633 25.28833008 62.68212891 C26 65 26 65 26 67 C9.5 67 -7 67 -24 67 C-19.51557093 52.42560554 -19.51557093 52.42560554 -17.625 47.25 C-15.72621811 42.0079641 -13.85073682 36.75911803 -12 31.5 C-11.49229089 30.06246348 -10.98447923 28.62496318 -10.4765625 27.1875 C-9.5282079 24.50193782 -8.58586029 21.81439557 -7.6484375 19.125 C-5.35766659 12.60403251 -2.91735705 6.26691514 0 0 Z " fill="#470F19" transform="translate(800,486)"/>
<path d="M0 0 C3.73386575 1.4935463 6.95338794 2.99328677 10.4296875 4.94140625 C11.46617432 5.52116211 12.50266113 6.10091797 13.57055664 6.69824219 C14.66102295 7.31344727 15.75148926 7.92865234 16.875 8.5625 C18.54453735 9.50270996 18.54453735 9.50270996 20.24780273 10.46191406 C26.54224015 14.01803148 32.83271283 17.58152082 39.0625 21.25 C39.68044434 21.60779541 40.29838867 21.96559082 40.93505859 22.33422852 C42.32585515 23.16564302 43.67001474 24.07441676 45 25 C45 25.66 45 26.32 45 27 C43.09838867 28.33764648 43.09838867 28.33764648 40.41796875 29.87109375 C39.43135254 30.44069824 38.44473633 31.01030273 37.42822266 31.59716797 C36.35878418 32.20447754 35.2893457 32.81178711 34.1875 33.4375 C31.99088491 34.69921787 29.79427034 35.96093664 27.59765625 37.22265625 C26.49180176 37.85445801 25.38594727 38.48625977 24.24658203 39.13720703 C21.23593069 40.86462993 18.23825829 42.61189198 15.24609375 44.37109375 C13.94345581 45.13498413 13.94345581 45.13498413 12.61450195 45.91430664 C10.98008801 46.87328464 9.34706376 47.83463585 7.71557617 48.79858398 C2.2252661 52 2.2252661 52 0 52 C0 34.84 0 17.68 0 0 Z " fill="#60161D" transform="translate(500,353)"/>
<path d="M0 0 C20.13 0 40.26 0 61 0 C57.47615566 1.76192217 54.16062352 3.00202564 50.4375 4.25 C29.78331031 11.48501349 16.22149058 24.63066974 6.61450195 44.11157227 C4.04363128 49.56831627 2.2042829 55.0789424 1 61 C0.67 61 0.34 61 0 61 C0 40.87 0 20.74 0 0 Z " fill="#4C6971" transform="translate(0,0)"/>
<path d="M0 0 C20.13 0 40.26 0 61 0 C61 20.46 61 40.92 61 62 C60.67 62 60.34 62 60 62 C59.8040625 61.175 59.608125 60.35 59.40625 59.5 C53.76528222 37.71419341 42.42069241 20.91639217 22.9921875 9.18359375 C15.63039596 5.26712065 8.04976093 3.02434816 0 1 C0 0.67 0 0.34 0 0 Z " fill="#4C6971" transform="translate(1539,0)"/>
<path d="M0 0 C0.33 0 0.66 0 1 0 C1 20.13 1 40.26 1 61 C-19.13 61 -39.26 61 -60 61 C-56.47615566 59.23807783 -53.16062352 57.99797436 -49.4375 56.75 C-30.37223211 50.05708493 -15.76703481 38.01907114 -6.89453125 19.828125 C-3.8961794 13.31609128 -1.61271902 6.99361805 0 0 Z " fill="#4C6971" transform="translate(1599,869)"/>
<path d="M0 0 C1.76192217 3.52384434 3.00202564 6.83937648 4.25 10.5625 C9.69062169 26.09414103 18.48349383 38.47128291 32 48 C32.76828125 48.54398438 33.5365625 49.08796875 34.328125 49.6484375 C40.43443776 53.6316945 46.76467339 55.79199386 53.6796875 57.921875 C57 59 57 59 61 61 C40.87 61 20.74 61 0 61 C0 40.87 0 20.74 0 0 Z " fill="#4C6971" transform="translate(0,869)"/>
<path d="M0 0 C1.32 0 2.64 0 4 0 C4 11.55 4 23.1 4 35 C2.68 35 1.36 35 0 35 C-0.33 34.34 -0.66 33.68 -1 33 C-1.99 33.66 -2.98 34.32 -4 35 C-7.39179204 35.54613601 -10.60689554 35.53660917 -14 35 C-17.27350867 32.5448685 -19.76270989 29.93683218 -21 26 C-21.47235231 21.11902613 -21.52269768 18.97329912 -19.1875 14.625 C-16.86521425 11.8382571 -15.31496725 10.14706871 -11.625 9.734375 C-10.325625 9.74210938 -10.325625 9.74210938 -9 9.75 C-8.13375 9.74484375 -7.2675 9.7396875 -6.375 9.734375 C-4 10 -4 10 -1 12 C-0.67 8.04 -0.34 4.08 0 0 Z " fill="#EDE8E9" transform="translate(728,738)"/>
<path d="M0 0 C4.31455798 2.28417775 7.13452098 4.43994016 9 9 C9.53635899 13.82723092 9.52017901 15.97890786 7.3125 20.3125 C4.51181721 23.56734756 2.40694814 25.65409129 -1.95703125 26.28125 C-6.74128196 26.49427786 -8.03525098 25.97356176 -12 23 C-12 27.29 -12 31.58 -12 36 C-13.32 36 -14.64 36 -16 36 C-16 24.45 -16 12.9 -16 1 C-14.68 1 -13.36 1 -12 1 C-11.67 1.66 -11.34 2.32 -11 3 C-10.29875 2.505 -9.5975 2.01 -8.875 1.5 C-5.48475614 -0.26882288 -3.77553457 -0.53936208 0 0 Z " fill="#F03C3C" transform="translate(769,160)"/>
<path d="M0 0 C15 0 15 0 21 3 C23.49040942 5.49040942 23.32391014 6.43154357 23.375 9.875 C23.30941754 13.3760944 23.28276945 14.60997318 21.1875 17.5 C15.29564628 21.54012827 12.1376661 21.16794508 5 21 C5 25.62 5 30.24 5 35 C3.35 35 1.7 35 0 35 C0 23.45 0 11.9 0 0 Z " fill="#E33839" transform="translate(888,151)"/>
<path d="M0 0 C3.8882078 2.13470232 6.67699527 4.22008191 9 8 C9.84212894 13.09070736 9.8363268 17.5868961 7.1875 22.0625 C2.79204789 25.95561473 0.1288209 26.43630247 -5.5546875 26.3203125 C-9.03107872 25.86493857 -10.69582526 24.59219658 -13 22 C-15.66951875 17.5094881 -15.91397219 13.09324674 -15 8 C-11.44006874 1.7560827 -7.26315546 -0.71207406 0 0 Z " fill="#F03B3C" transform="translate(694,160)"/>
<path d="M0 0 C3.6738527 2.02223032 6.79937649 4.91788006 8 9 C8.55941123 15.04164128 7.3792084 19.12512318 3.5 23.8125 C0.22731014 26.40337947 -3.68711967 26.5318702 -7.703125 26.453125 C-11.23963471 25.75544621 -12.8667083 24.19968784 -14.96484375 21.3359375 C-17.02931034 16.67725439 -16.82995283 11.951583 -16 7 C-12.4561798 0.67174964 -7.13352049 -1.35811255 0 0 Z " fill="#ED3B3B" transform="translate(572,160)"/>
<path d="M0 0 C3.12578143 1.6720747 5.39281175 3.7856235 7 7 C8.03037808 16.00844834 8.03037808 16.00844834 5.953125 20.0234375 C3.55684486 22.91306943 1.56568856 24.83096106 -2.20703125 25.23828125 C-9.24770268 25.43884011 -9.24770268 25.43884011 -13 23.25 C-16.89633357 18.86662474 -17.48802294 15.23445706 -17.39453125 9.48046875 C-16.75198843 5.44071935 -14.9613537 3.74982843 -12 1 C-8.27533151 -0.86233425 -4.05504687 -0.57130829 0 0 Z " fill="#F1EDED" transform="translate(1170,748)"/>
<path d="M0 0 C3.12578143 1.6720747 5.39281175 3.7856235 7 7 C7.42054103 11.56933999 7.56125534 15.68104995 5.75 19.9375 C3.3304191 22.78914892 1.35953733 24.75462009 -2.40234375 25.43359375 C-6.63524639 25.44011594 -9.27798326 25.42117643 -13 23.25 C-16.89633357 18.86662474 -17.48802294 15.23445706 -17.39453125 9.48046875 C-16.75198843 5.44071935 -14.9613537 3.74982843 -12 1 C-8.27533151 -0.86233425 -4.05504687 -0.57130829 0 0 Z " fill="#F3EFF0" transform="translate(489,748)"/>
<path d="M0 0 C3.62259904 1.8837515 5.68975631 4.06926894 7 8 C7.4161764 12.27381146 7.47646722 15.90412539 5.75 19.875 C3.35425145 22.78412324 1.38796225 24.74948974 -2.40234375 25.43359375 C-6.63524639 25.44011594 -9.27798326 25.42117643 -13 23.25 C-16.70767415 19.07886658 -17.44145407 15.72789368 -17.32421875 10.25390625 C-16.82304045 6.76981134 -15.25055134 4.63636014 -13 2 C-8.75417853 -0.83054764 -4.98515163 -0.77409187 0 0 Z " fill="#F3F0F0" transform="translate(1076,748)"/>
<path d="M0 0 C3.12291165 1.68012647 5.39164837 3.78329674 7 7 C7.42054103 11.56933999 7.56125534 15.68104995 5.75 19.9375 C3.3304191 22.78914892 1.35953733 24.75462009 -2.40234375 25.43359375 C-6.59527865 25.44005436 -9.28500199 25.40218638 -13 23.3125 C-16.59198007 19.15927304 -17.46005971 15.52377586 -17.32421875 9.99609375 C-16.78380244 6.66895238 -15.11883057 4.54259669 -13 2 C-8.7581081 -0.82792793 -4.98126257 -0.78122286 0 0 Z " fill="#F3F0F1" transform="translate(963,748)"/>
<path d="M0 0 C3.12001504 1.68818449 5.39047471 3.78094941 7 7 C8.03037808 16.00844834 8.03037808 16.00844834 5.953125 20.0234375 C3.55684486 22.91306943 1.56568856 24.83096106 -2.20703125 25.23828125 C-9.22118281 25.43808467 -9.22118281 25.43808467 -13 23.3125 C-16.07026801 19.76250262 -16.88844753 17.22707713 -17.3125 12.5625 C-16.90238994 7.88724527 -15.71540779 4.55946163 -12.1953125 1.359375 C-8.34841752 -1.02268809 -4.36478281 -0.75610411 0 0 Z " fill="#F3F0F0" transform="translate(695,748)"/>
<path d="M0 0 C1.65 0 3.3 0 5 0 C6.65642764 3.05688229 8.29821792 6.12139395 9.9375 9.1875 C10.40607422 10.05181641 10.87464844 10.91613281 11.35742188 11.80664062 C11.80537109 12.64775391 12.25332031 13.48886719 12.71484375 14.35546875 C13.12855225 15.12528076 13.54226074 15.89509277 13.96850586 16.68823242 C15.05434833 19.12180458 15.5759133 21.37634398 16 24 C16.66 24 17.32 24 18 24 C18.23460937 23.02933594 18.46921875 22.05867187 18.7109375 21.05859375 C20.04514102 16.38888143 22.29910019 12.30363293 24.625 8.0625 C25.04523437 7.28326172 25.46546875 6.50402344 25.8984375 5.70117188 C26.92619814 3.79747888 27.96225213 1.89826719 29 0 C30.65 0 32.3 0 34 0 C34 11.55 34 23.1 34 35 C32.68 35 31.36 35 30 35 C29.505 22.625 29.505 22.625 29 10 C27.72125 12.5575 26.4425 15.115 25.125 17.75 C23.08333333 21.83333333 21.04166667 25.91666667 19 30 C17.68 30 16.36 30 15 30 C11.7 23.4 8.4 16.8 5 10 C4.67 18.25 4.34 26.5 4 35 C2.68 35 1.36 35 0 35 C0 23.45 0 11.9 0 0 Z " fill="#F2EEEF" transform="translate(638,738)"/>
<path d="M0 0 C3.125 0.375 3.125 0.375 5.75 2 C6.53375 2.45375 7.3175 2.9075 8.125 3.375 C10.34234114 2.7248008 10.34234114 2.7248008 12.125 1.375 C14.97824437 -0.05162219 16.95954549 0.06466132 20.125 0.375 C23.29996188 2.46758851 25.00960857 4.20191286 27.125 7.375 C27.35205078 9.4597168 27.35205078 9.4597168 27.3203125 11.82421875 C27.31386719 12.67177734 27.30742188 13.51933594 27.30078125 14.39257812 C27.28402344 15.27365234 27.26726563 16.15472656 27.25 17.0625 C27.24097656 17.95517578 27.23195313 18.84785156 27.22265625 19.76757812 C27.19909748 21.97032314 27.16620329 24.17252588 27.125 26.375 C25.475 26.375 23.825 26.375 22.125 26.375 C21.795 19.775 21.465 13.175 21.125 6.375 C14.75938245 4.70442362 14.75938245 4.70442362 12.21948242 6.5480957 C10.9219845 8.7138724 10.70252137 10.08889728 10.61328125 12.60546875 C10.57783203 13.40791016 10.54238281 14.21035156 10.50585938 15.03710938 C10.48330078 15.87048828 10.46074219 16.70386719 10.4375 17.5625 C10.40333984 18.40748047 10.36917969 19.25246094 10.33398438 20.12304688 C10.25158529 22.20656649 10.18661355 24.29076216 10.125 26.375 C8.475 26.375 6.825 26.375 5.125 26.375 C5.09994385 25.77437744 5.0748877 25.17375488 5.04907227 24.55493164 C4.9334472 21.84888563 4.81057064 19.14321717 4.6875 16.4375 C4.64818359 15.49197266 4.60886719 14.54644531 4.56835938 13.57226562 C4.52646484 12.67314453 4.48457031 11.77402344 4.44140625 10.84765625 C4.40474854 10.01500244 4.36809082 9.18234863 4.33032227 8.32446289 C4.33132897 6.37161142 4.33132897 6.37161142 3.125 5.375 C0.2092309 4.95797878 0.2092309 4.95797878 -2.875 5.375 C-5.59165524 7.79622701 -6.09540491 9.99600859 -6.38671875 13.484375 C-6.45940698 15.03065179 -6.51759399 16.57766715 -6.5625 18.125 C-6.59666016 18.91777344 -6.63082031 19.71054688 -6.66601562 20.52734375 C-6.74819104 22.47607504 -6.81328045 24.42551362 -6.875 26.375 C-8.195 26.375 -9.515 26.375 -10.875 26.375 C-10.875 18.125 -10.875 9.875 -10.875 1.375 C-9.555 1.375 -8.235 1.375 -6.875 1.375 C-6.545 2.035 -6.215 2.695 -5.875 3.375 C-5.50375 2.88 -5.1325 2.385 -4.75 1.875 C-2.875 0.375 -2.875 0.375 0 0 Z " fill="#E13839" transform="translate(719.875,159.625)"/>
<path d="M0 0 C2.76171875 1.91796875 2.76171875 1.91796875 5 5 C5.59872567 8.46135968 5.47324375 11.81323219 5.3125 15.3125 C5.28994141 16.24384766 5.26738281 17.17519531 5.24414062 18.13476562 C5.18542078 20.4248396 5.10336858 22.71157875 5 25 C3.68 25 2.36 25 1 25 C0.67 24.01 0.34 23.02 0 22 C-0.60521484 22.72896484 -0.60521484 22.72896484 -1.22265625 23.47265625 C-3.96893375 25.83264417 -6.34330569 25.48026981 -9.8359375 25.34375 C-12 25 -12 25 -14.5625 23.4375 C-16.57975697 20.01693383 -16.6269883 17.90126052 -16 14 C-14.25 11.5625 -14.25 11.5625 -11 10 C-6.97670092 9.68085664 -3.02632745 9.7688233 1 10 C0.01 8.02 -0.98 6.04 -2 4 C-5.41642759 3.74984127 -5.41642759 3.74984127 -9 4 C-9.99 5.485 -9.99 5.485 -11 7 C-12.32 7 -13.64 7 -15 7 C-14.73852205 3.77510528 -14.39459008 2.3699282 -12 0.125 C-7.88377631 -1.41858388 -4.16524646 -1.48351244 0 0 Z " fill="#EF3B3C" transform="translate(799,161)"/>
<path d="M0 0 C3.9738217 2.33246057 5.80747017 4.55511608 7 9 C7 10.65 7 12.3 7 14 C0.73 14 -5.54 14 -12 14 C-11.01 16.31 -10.02 18.62 -9 21 C-5.60581779 22.41349769 -5.60581779 22.41349769 -2 22 C0.2085766 20.12491838 0.2085766 20.12491838 2 18 C3.32 18 4.64 18 6 18 C5.4376049 21.26189156 4.5859495 22.91134848 2 25 C-2.0574259 26.3524753 -5.76222922 26.67655639 -10 26 C-13.28175318 23.47031526 -14.69243777 21.92268669 -16 18 C-16.48420096 12.87223242 -16.84808044 8.48414077 -14.25 3.9375 C-9.81039152 0.11450381 -5.91349988 -0.95227334 0 0 Z " fill="#EF3B3C" transform="translate(1002,160)"/>
<path d="M0 0 C3.6578218 2.03993908 5.66946174 3.50419262 8 7 C8 9.31 8 11.62 8 14 C1.73 14 -4.54 14 -11 14 C-10.34 16.31 -9.68 18.62 -9 21 C-7.56589632 21.24954005 -6.12739928 21.47392642 -4.6875 21.6875 C-3.88699219 21.81511719 -3.08648438 21.94273437 -2.26171875 22.07421875 C0.63741213 21.97908319 1.05682503 21.02652832 3 19 C4.32 19 5.64 19 7 19 C5.52633081 23.6666191 5.52633081 23.6666191 3.19921875 25.140625 C-0.51520019 26.59208533 -4.0802193 26.57396789 -8 26 C-11.6226247 23.8418406 -13.39571861 21.84055242 -15 18 C-15.74722522 13.71063983 -15.9617225 9.68680666 -13.76171875 5.828125 C-9.73504449 0.99211919 -6.44384981 -0.63174998 0 0 Z " fill="#F03B3C" transform="translate(948,160)"/>
<path d="M0 0 C3.0625 2.4375 3.0625 2.4375 5 5 C5.33 5.33 5.66 5.66 6 6 C6 8.31 6 10.62 6 13 C-0.27 13 -6.54 13 -13 13 C-10.98848737 19.77489892 -10.98848737 19.77489892 -8 21 C-5.04195427 21.33340471 -5.04195427 21.33340471 -2 21 C-0.37485532 19.54166642 -0.37485532 19.54166642 1 18 C2.32 18 3.64 18 5 18 C4.63595523 20.63932462 4.24498227 21.77318495 2.26171875 23.609375 C-1.61539336 25.99322977 -5.59701751 25.6493864 -10 25 C-13.66054254 22.86468352 -15.39201638 20.85637631 -17 17 C-17.64095668 12.9113711 -17.95574033 8.77291608 -15.94921875 5.05078125 C-11.41055442 -0.47862397 -6.84540826 -1.00097951 0 0 Z " fill="#F3EFF0" transform="translate(794,748)"/>
<path d="M0 0 C2.82424288 2.19022918 4.41508603 3.83017207 6 7 C6 8.98 6 10.96 6 13 C-0.27 13 -6.54 13 -13 13 C-10.98848737 19.77489892 -10.98848737 19.77489892 -8 21 C-5.04195427 21.33340471 -5.04195427 21.33340471 -2 21 C-0.37485532 19.54166642 -0.37485532 19.54166642 1 18 C2.32 18 3.64 18 5 18 C3.75023244 21.65316671 3.32901247 22.78065836 0 25 C-4.06919178 25.66535838 -8.22543589 25.92277334 -11.953125 23.984375 C-15.32095712 21.27049087 -16.75655311 19.02060916 -17.2734375 14.73046875 C-17.45293545 10.23611625 -17.57886603 7.0168906 -14.625 3.4375 C-10.15565765 -0.71260361 -5.93699231 -0.85881021 0 0 Z " fill="#F1EDEE" transform="translate(1246,748)"/>
<path d="M0 0 C2.82424288 2.19022918 4.41508603 3.83017207 6 7 C6 8.98 6 10.96 6 13 C-0.27 13 -6.54 13 -13 13 C-10.98848737 19.77489892 -10.98848737 19.77489892 -8 21 C-5.04195427 21.33340471 -5.04195427 21.33340471 -2 21 C-0.37485532 19.54166642 -0.37485532 19.54166642 1 18 C2.32 18 3.64 18 5 18 C3.52559727 22.66894198 3.52559727 22.66894198 1.1953125 24.13671875 C-2.53568901 25.60389194 -6.06599255 25.68743037 -10 25 C-13.07061968 23.28631391 -15.40450726 21.19098548 -17 18 C-17.42054103 13.43066001 -17.56125534 9.31895005 -15.75 5.0625 C-11.19398003 -0.30709496 -6.84981428 -1.21922261 0 0 Z " fill="#F2EEEF" transform="translate(412,748)"/>
<path d="M0 0 C1.32 0 2.64 0 4 0 C4 5.28 4 10.56 4 16 C9.94 16 15.88 16 22 16 C22 11.05 22 6.1 22 1 C23.32 1 24.64 1 26 1 C26 12.22 26 23.44 26 35 C24.68 35 23.36 35 22 35 C22 29.72 22 24.44 22 19 C16.06 19 10.12 19 4 19 C4 24.28 4 29.56 4 35 C2.68 35 1.36 35 0 35 C0 23.45 0 11.9 0 0 Z " fill="#F6F3F3" transform="translate(914,738)"/>
<path d="M0 0 C5.94 0 11.88 0 18 0 C18 1.32 18 2.64 18 4 C13.05 4 8.1 4 3 4 C3 6.97 3 9.94 3 13 C3.33 12.67 3.66 12.34 4 12 C9.23734858 11.38487517 13.57024455 11.11355162 18.125 13.9375 C20.5895947 17.96300468 21.29015021 21.29956656 21 26 C19.49002285 30.29151399 17.85358021 32.63376654 14 35 C10.27161399 35.66677544 6.73735231 35.59797637 3 35 C-0.12912033 32.74703336 -1.54157218 31.30475611 -2.8125 27.6875 C-2.9053125 26.8521875 -2.9053125 26.8521875 -3 26 C-1.68 26 -0.36 26 1 26 C1.78375 26.825 2.5675 27.65 3.375 28.5 C5.78526564 31.23845806 5.78526564 31.23845806 9.0625 31.625 C12.14649412 31.22322306 12.14649412 31.22322306 14.375 28.875 C16.28071139 25.50335677 16.64850195 23.80994895 16 20 C14.56338689 17.47993156 14.56338689 17.47993156 12 16 C8.45769191 15.41657647 8.45769191 15.41657647 5 16 C3.31201173 17.43750191 3.31201173 17.43750191 2 19 C0.68 19 -0.64 19 -2 19 C-1.85913398 16.39547729 -1.71251536 13.79149803 -1.5625 11.1875 C-1.50352539 10.08051758 -1.50352539 10.08051758 -1.44335938 8.95117188 C-1.25618965 5.76928658 -1.01279207 3.03837622 0 0 Z " fill="#F0ECEC" transform="translate(331,738)"/>
<path d="M0 0 C3.57503216 1.82296257 5.97819744 3.48844819 8 7 C8 8.32 8 9.64 8 11 C6.35 11 4.7 11 3 11 C2.71125 10.195625 2.4225 9.39125 2.125 8.5625 C1.26737432 5.8673532 1.26737432 5.8673532 -1 5 C-6.20671061 4.35492081 -9.81709835 4.0826477 -14.0625 7.375 C-17.75098356 12.3723003 -17.63539367 16.91224175 -17 23 C-15.01031547 26.91075925 -13.63466354 28.57689098 -10 31 C-5.00726409 31.46229036 -2.00009315 31.08578614 2 28 C2.66 27.01 3.32 26.02 4 25 C5.32 25 6.64 25 8 25 C7.70179167 28.57849992 7.25754642 29.76226484 4.5625 32.25 C-0.72620511 35.86179861 -5.71754234 35.57561785 -12 35 C-16.31128696 33.07531832 -19.11665251 30.51046171 -21.3046875 26.25390625 C-23.17558351 20.1892602 -23.3217124 12.66996992 -20.375 6.9375 C-14.65027061 -0.14308635 -8.83436928 -1.31980483 0 0 Z " fill="#EFEAEB" transform="translate(1140,738)"/>
<path d="M0 0 C3.35763038 1.70714962 4.70271357 3.12118259 6.2265625 6.56640625 C6.4121875 7.47390625 6.5978125 8.38140625 6.7890625 9.31640625 C2.43331614 8.83243443 0.6977366 7.52597767 -2.2109375 4.31640625 C-5.31142678 2.76616161 -7.78987968 3.0264861 -11.2109375 3.31640625 C-14.18424708 5.100392 -15.78067264 6.57880934 -17.5234375 9.56640625 C-19.21612417 16.33715291 -18.46343412 21.29326437 -15.2109375 27.31640625 C-11.99263685 29.46194002 -10.94307243 29.61224493 -7.2109375 29.62890625 C-5.9115625 29.65404297 -5.9115625 29.65404297 -4.5859375 29.6796875 C-1.76087558 29.24756454 -0.9411651 28.53866732 0.7890625 26.31640625 C1.1190625 25.65640625 1.4490625 24.99640625 1.7890625 24.31640625 C3.4390625 24.31640625 5.0890625 24.31640625 6.7890625 24.31640625 C5.69615625 28.14157814 4.00504673 30.89755482 0.82421875 33.359375 C-3.647641 35.4622649 -8.43641878 35.10362582 -13.2109375 34.31640625 C-17.55037691 32.58824354 -19.6771665 30.1601088 -22.1484375 26.25390625 C-24.33252551 20.06791784 -24.10597088 12.95439937 -22.0234375 6.81640625 C-16.53063737 -0.75986979 -8.90709706 -2.75396111 0 0 Z " fill="#F03B3C" transform="translate(667.2109375,151.68359375)"/>
<path d="M0 0 C2.96858157 2.20740681 3.82865791 3.48597373 5 7 C5.0806622 8.48123547 5.10761193 9.96582204 5.09765625 11.44921875 C5.09443359 12.29677734 5.09121094 13.14433594 5.08789062 14.01757812 C5.07951172 14.89865234 5.07113281 15.77972656 5.0625 16.6875 C5.05798828 17.58017578 5.05347656 18.47285156 5.04882812 19.39257812 C5.03704983 21.59511987 5.02060164 23.79752599 5 26 C3.68 26 2.36 26 1 26 C0.98018066 25.43490723 0.96036133 24.86981445 0.93994141 24.28759766 C0.84481764 21.73292003 0.73508942 19.17907459 0.625 16.625 C0.5940625 15.73554688 0.563125 14.84609375 0.53125 13.9296875 C0.49257812 13.07890625 0.45390625 12.228125 0.4140625 11.3515625 C0.36693115 10.17327881 0.36693115 10.17327881 0.31884766 8.97119141 C0.1600535 6.76997061 0.1600535 6.76997061 -2 5 C-6.05261287 4.65509678 -7.54754176 4.69836118 -11 7 C-11.50621513 9.02276681 -11.50621513 9.02276681 -11.51171875 11.3515625 C-11.54716797 12.20234375 -11.58261719 13.053125 -11.61914062 13.9296875 C-11.64169922 14.81914062 -11.66425781 15.70859375 -11.6875 16.625 C-11.72166016 17.5221875 -11.75582031 18.419375 -11.79101562 19.34375 C-11.87362402 21.56237538 -11.94272719 23.7805994 -12 26 C-13.65 26 -15.3 26 -17 26 C-17 17.75 -17 9.5 -17 1 C-15.68 1 -14.36 1 -13 1 C-13 1.99 -13 2.98 -13 4 C-12.34 4 -11.68 4 -11 4 C-11 3.34 -11 2.68 -11 2 C-7.32807887 -0.44794742 -4.26893972 -0.71435887 0 0 Z " fill="#EE3B3B" transform="translate(1031,160)"/>
<path d="M0 0 C1.32 0 2.64 0 4 0 C4.33 0.66 4.66 1.32 5 2 C5.99 1.34 6.98 0.68 8 0 C10.0859375 -0.40625 10.0859375 -0.40625 12.375 -0.5 C13.50035156 -0.57734375 13.50035156 -0.57734375 14.6484375 -0.65625 C17.60212589 0.16803513 19.17986771 1.64173145 21.02734375 4.06152344 C22.91713025 7.8278148 22.51394827 11.75925694 22.3125 15.875 C22.28994141 16.75414062 22.26738281 17.63328125 22.24414062 18.5390625 C22.18559748 20.69345007 22.09592783 22.8469531 22 25 C20.35 25 18.7 25 17 25 C16.98018066 24.43490723 16.96036133 23.86981445 16.93994141 23.28759766 C16.84481764 20.73292003 16.73508942 18.17907459 16.625 15.625 C16.5940625 14.73554687 16.563125 13.84609375 16.53125 12.9296875 C16.49257812 12.07890625 16.45390625 11.228125 16.4140625 10.3515625 C16.36693115 9.17327881 16.36693115 9.17327881 16.31884766 7.97119141 C16.1600535 5.76997061 16.1600535 5.76997061 14 4 C9.90022225 3.50590969 9.90022225 3.50590969 6.34057617 5.25512695 C4.70402255 7.38523964 4.58273802 8.56678788 4.48828125 11.23046875 C4.45283203 12.03291016 4.41738281 12.83535156 4.38085938 13.66210938 C4.35830078 14.49548828 4.33574219 15.32886719 4.3125 16.1875 C4.27833984 17.03248047 4.24417969 17.87746094 4.20898438 18.74804688 C4.12658529 20.83156649 4.06161355 22.91576216 4 25 C2.68 25 1.36 25 0 25 C0 16.75 0 8.5 0 0 Z " fill="#D3C8C9" transform="translate(1258,748)"/>
<path d="M0 0 C2.98356441 1.81608269 4.61660986 2.93830422 5.8125 6.25 C5.874375 6.8275 5.93625 7.405 6 8 C4.35 8 2.7 8 1 8 C1 7.01 1 6.02 1 5 C-1.64 5 -4.28 5 -7 5 C-7 6.32 -7 7.64 -7 9 C-6.24074219 9.25394531 -5.48148438 9.50789062 -4.69921875 9.76953125 C-3.70535156 10.11371094 -2.71148438 10.45789063 -1.6875 10.8125 C-0.20830078 11.31716797 -0.20830078 11.31716797 1.30078125 11.83203125 C3.89853848 12.95609697 5.2795581 13.78800328 7 16 C7.5 18.375 7.5 18.375 7 21 C4.92299543 24.11550686 3.35032111 25.72329486 -0.3828125 26.48828125 C-5.03486949 26.73129915 -7.30490092 26.51437332 -11.125 23.6875 C-13 21 -13 21 -13 18 C-11.68 18 -10.36 18 -9 18 C-8.54625 18.66 -8.0925 19.32 -7.625 20 C-7.08875 20.66 -6.5525 21.32 -6 22 C-2.87413125 22.33397787 -2.87413125 22.33397787 0 22 C0.66 20.02 1.32 18.04 2 16 C0.98679687 15.83564453 0.98679687 15.83564453 -0.046875 15.66796875 C-0.93890625 15.50941406 -1.8309375 15.35085937 -2.75 15.1875 C-4.07257812 14.96126953 -4.07257812 14.96126953 -5.421875 14.73046875 C-8.25604443 13.92745408 -9.88012353 13.03740988 -12 11 C-12.5625 7.5625 -12.5625 7.5625 -12 4 C-8.45552524 -0.18892472 -5.33665143 -0.76237878 0 0 Z " fill="#EB3A3B" transform="translate(974,160)"/>
<path d="M0 0 C3.15720498 2.67148113 4.28114142 4.95775138 4.625 9 C4.4287278 12.56673963 3.91429757 13.10242485 1.4375 16.0625 C-2 18 -2 18 -5.6875 18 C-8.98474712 17.00460464 -10.01205421 16.66818683 -12 14 C-12.68180519 10.27848002 -12.58587664 6.73287117 -12 3 C-8.53621244 -1.61838341 -5.34035607 -1.65065551 0 0 Z " fill="#3C0D11" transform="translate(724,752)"/>
<path d="M0 0 C5.57894737 3.15789474 5.57894737 3.15789474 7 6 C7.08372659 7.52148326 7.10730027 9.04655778 7.09765625 10.5703125 C7.09443359 11.46621094 7.09121094 12.36210937 7.08789062 13.28515625 C7.07951172 14.22230469 7.07113281 15.15945312 7.0625 16.125 C7.05798828 17.06988281 7.05347656 18.01476562 7.04882812 18.98828125 C7.03702357 21.32558387 7.02055759 23.66276061 7 26 C5.68 26 4.36 26 3 26 C2.96261719 24.73542969 2.92523437 23.47085938 2.88671875 22.16796875 C2.82106167 20.5077827 2.75461424 18.84762778 2.6875 17.1875 C2.66494141 16.35412109 2.64238281 15.52074219 2.61914062 14.66210938 C2.5659668 13.45844727 2.5659668 13.45844727 2.51171875 12.23046875 C2.48553467 11.49207764 2.45935059 10.75368652 2.43237305 9.99291992 C1.88464597 7.46830327 1.03755092 6.55438002 -1 5 C-4 4.41666667 -4 4.41666667 -7 5 C-9.7045057 7.43469753 -10.22096879 9.61764726 -10.51171875 13.109375 C-10.58440698 14.65565179 -10.64259399 16.20266715 -10.6875 17.75 C-10.72166016 18.54277344 -10.75582031 19.33554688 -10.79101562 20.15234375 C-10.87319104 22.10107504 -10.93828045 24.05051362 -11 26 C-12.32 26 -13.64 26 -15 26 C-15 17.75 -15 9.5 -15 1 C-13.68 1 -12.36 1 -11 1 C-10.67 1.66 -10.34 2.32 -10 3 C-9.46375 2.505 -8.9275 2.01 -8.375 1.5 C-5.26366038 -0.4650566 -3.63288013 -0.50860322 0 0 Z " fill="#EE3B3C" transform="translate(825,160)"/>
<path d="M0 0 C4.17862962 0.87054784 5.56887157 2.12131491 8 5.625 C8.70716845 8.77874317 8.70716845 11.47125683 8 14.625 C5.5422681 18.16702539 4.18675879 19.4070239 -0.0625 20.1875 C-3.63665177 19.50308796 -4.80003128 18.47681131 -7 15.625 C-8.21260877 11.98717368 -8.39544552 9.44764001 -8 5.625 C-5.55401113 2.24378009 -4.10703441 0.85563217 0 0 Z " fill="#3C0F13" transform="translate(1071,750.375)"/>
<path d="M0 0 C4.14958016 0.95094545 5.57198867 2.1883072 8 5.6875 C8.70716845 8.84124317 8.70716845 11.53375683 8 14.6875 C5.56887157 18.19118509 4.17862962 19.44195216 0 20.3125 C-4.14182881 19.449619 -5.56226471 18.12900865 -8 14.6875 C-8.62596522 10.7439191 -8.85288065 8.3968752 -7.078125 4.83984375 C-5.0161915 2.00803248 -3.40863486 0.78114549 0 0 Z " fill="#3E1014" transform="translate(958,750.3125)"/>
<path d="M0 0 C4.17862962 0.87054784 5.56887157 2.12131491 8 5.625 C8.70716845 8.77874317 8.70716845 11.47125683 8 14.625 C5.57198867 18.1241928 4.14958016 19.36155455 0 20.3125 C-3.40863486 19.53135451 -5.0161915 18.30446752 -7.078125 15.47265625 C-8.85288065 11.9156248 -8.62596522 9.5685809 -8 5.625 C-5.56226471 2.18349135 -4.14182881 0.862881 0 0 Z " fill="#3C0F13" transform="translate(484,750.375)"/>
<path d="M0 0 C4.11224846 0.94239027 5.56584727 2.25104909 8 5.6875 C8.87666257 9.78961917 8.39413429 12.84548583 6.625 16.625 C4.52626183 19.28878306 3.53785974 19.60383293 0.1875 20.125 C-3 19.6875 -3 19.6875 -5.875 17.125 C-7.69202754 14.61773797 -8.05538516 13.37734309 -8.625 10.1875 C-7.67602856 4.87325992 -5.61556676 1.28690072 0 0 Z " fill="#3A0E11" transform="translate(1165,750.3125)"/>
<path d="M0 0 C4.11224846 0.94239027 5.56584727 2.25104909 8 5.6875 C8.87666257 9.78961917 8.39413429 12.84548583 6.625 16.625 C4.52626183 19.28878306 3.53785974 19.60383293 0.1875 20.125 C-3 19.6875 -3 19.6875 -5.875 17.125 C-7.69202754 14.61773797 -8.05538516 13.37734309 -8.625 10.1875 C-7.67602856 4.87325992 -5.61556676 1.28690072 0 0 Z " fill="#3D0F13" transform="translate(690,750.3125)"/>
<path d="M0 0 C2.85272289 1.98450288 4.64267017 3.4588209 5.44921875 6.9375 C5.64930532 10.58045553 5.16907691 12.68213542 3.4375 15.9375 C0.17374749 18.69913674 -1.73216193 19.22462306 -6 19 C-9.74820437 15.81003883 -10.81650946 14.30737012 -11.5 9.4375 C-10.97728874 5.84386009 -10.19241377 3.86700262 -8 1 C-5.11138291 -0.44430855 -3.20352299 -0.37688506 0 0 Z " fill="#47151A" transform="translate(694,164)"/>
<path d="M0 0 C3.92509607 0.73595551 5.46508106 1.43112955 8 4.5625 C8.87736727 9.1553269 8.84029724 13.09197982 6.5 17.1875 C2.94971029 19.14015934 -0.0449129 19.4783296 -4 18.5625 C-6.63683762 16.4530299 -7.7081633 14.94108099 -8.41015625 11.625 C-8.70661131 7.61145461 -8.25523966 5.92283834 -5.875 2.5625 C-3 0.5625 -3 0.5625 0 0 Z " fill="#47151A" transform="translate(765,163.4375)"/>
<path d="M0 0 C1.32 0 2.64 0 4 0 C4.33 0.66 4.66 1.32 5 2 C5.99 1.34 6.98 0.68 8 0 C10.0859375 -0.37109375 10.0859375 -0.37109375 12.375 -0.4375 C13.50035156 -0.49744141 13.50035156 -0.49744141 14.6484375 -0.55859375 C18.42824804 0.33926822 19.74969307 1.85508769 22 5 C22.59747088 8.46170783 22.47325277 11.81303576 22.3125 15.3125 C22.28994141 16.24384766 22.26738281 17.17519531 22.24414062 18.13476562 C22.18542078 20.4248396 22.10336858 22.71157875 22 25 C20.68 25 19.36 25 18 25 C17.96261719 23.73542969 17.92523437 22.47085938 17.88671875 21.16796875 C17.82106167 19.5077827 17.75461424 17.84762778 17.6875 16.1875 C17.66494141 15.35412109 17.64238281 14.52074219 17.61914062 13.66210938 C17.5659668 12.45844727 17.5659668 12.45844727 17.51171875 11.23046875 C17.48553467 10.49207764 17.45935059 9.75368652 17.43237305 8.99291992 C16.88147685 6.45369595 16.09120465 5.51865245 14 4 C10.42243314 3.99917465 10.42243314 3.99917465 7 5 C5.0243438 7.96348429 4.73623141 8.68020373 4.5859375 12.01171875 C4.54726562 12.76904297 4.50859375 13.52636719 4.46875 14.30664062 C4.4378125 15.09232422 4.406875 15.87800781 4.375 16.6875 C4.33632812 17.48478516 4.29765625 18.28207031 4.2578125 19.10351562 C4.16367506 21.06863475 4.08075368 23.0342854 4 25 C2.68 25 1.36 25 0 25 C0 16.75 0 8.5 0 0 Z " fill="#ECE7E7" transform="translate(1183,748)"/>
<path d="M0 0 C2.5 1.875 2.5 1.875 4 4 C4 4.99 4 5.98 4 7 C2.35 7 0.7 7 -1 7 C-1.33 6.01 -1.66 5.02 -2 4 C-4.31 4 -6.62 4 -9 4 C-9 5.32 -9 6.64 -9 8 C-7.84371094 8.39832031 -7.84371094 8.39832031 -6.6640625 8.8046875 C-5.66117188 9.15789062 -4.65828125 9.51109375 -3.625 9.875 C-2.12839844 10.39707031 -2.12839844 10.39707031 -0.6015625 10.9296875 C2 12 2 12 4 14 C4.41652031 17.74868276 4.4979164 20.11733001 2.625 23.4375 C-1.45932128 25.86864362 -5.37682791 25.88131552 -10 25 C-13.125 22.6875 -13.125 22.6875 -15 20 C-15 19.01 -15 18.02 -15 17 C-13.68 17 -12.36 17 -11 17 C-10.360625 17.66 -9.72125 18.32 -9.0625 19 C-7.14646589 21.27703164 -7.14646589 21.27703164 -4.25 21.25 C-3.13625 21.12625 -3.13625 21.12625 -2 21 C-1.34 19.02 -0.68 17.04 0 15 C-1.01320313 14.83564453 -1.01320313 14.83564453 -2.046875 14.66796875 C-2.93890625 14.50941406 -3.8309375 14.35085937 -4.75 14.1875 C-6.07257813 13.96126953 -6.07257813 13.96126953 -7.421875 13.73046875 C-10.25738304 12.9270748 -11.88555229 12.04639652 -14 10 C-14.74242424 4.06060606 -14.74242424 4.06060606 -12.6875 1.125 C-8.61846096 -1.58769269 -4.54700216 -1.1985056 0 0 Z " fill="#EF3B3C" transform="translate(1076,161)"/>
<path d="M0 0 C1.28197266 -0.01160156 1.28197266 -0.01160156 2.58984375 -0.0234375 C5.56853662 0.45654145 6.96008046 1.21892242 9.0625 3.375 C9.0625 4.695 9.0625 6.015 9.0625 7.375 C6.19525314 6.80155063 5.2010485 6.5135485 3.0625 4.375 C-0.02097826 4.20818891 -0.02097826 4.20818891 -2.9375 4.375 C-2.6075 6.025 -2.2775 7.675 -1.9375 9.375 C-1.23882812 9.56835938 -0.54015625 9.76171875 0.1796875 9.9609375 C1.08976562 10.22132813 1.99984375 10.48171875 2.9375 10.75 C3.84242188 11.00523437 4.74734375 11.26046875 5.6796875 11.5234375 C8.0625 12.375 8.0625 12.375 10.0625 14.375 C10.47902031 18.12368276 10.5604164 20.49233001 8.6875 23.8125 C4.60253426 26.24402722 0.69169885 26.1240613 -3.9375 25.375 C-7.09775526 23.56913985 -8.51471965 22.54577636 -9.75 19.125 C-9.8428125 18.25875 -9.8428125 18.25875 -9.9375 17.375 C-7.625 17.125 -7.625 17.125 -4.9375 17.375 C-4.463125 18.035 -3.98875 18.695 -3.5 19.375 C-2.7265625 20.365 -2.7265625 20.365 -1.9375 21.375 C1.18836875 21.70897787 1.18836875 21.70897787 4.0625 21.375 C4.3925 19.725 4.7225 18.075 5.0625 16.375 C4.010625 16.106875 2.95875 15.83875 1.875 15.5625 C-2.52486623 14.19204986 -5.68133937 12.63116063 -8.9375 9.375 C-8.7447907 6.35588766 -8.52751205 4.16724888 -6.6953125 1.70703125 C-4.36969545 -0.05526967 -2.89423507 -0.0261134 0 0 Z " fill="#EEEAEB" transform="translate(431.9375,747.625)"/>
<path d="M0 0 C1.32 0 2.64 0 4 0 C4.33 0.66 4.66 1.32 5 2 C5.99 1.34 6.98 0.68 8 0 C10.0859375 -0.40625 10.0859375 -0.40625 12.375 -0.5 C13.50035156 -0.57734375 13.50035156 -0.57734375 14.6484375 -0.65625 C17.60212589 0.16803513 19.17986771 1.64173145 21.02734375 4.06152344 C22.91713025 7.8278148 22.51394827 11.75925694 22.3125 15.875 C22.28994141 16.75414062 22.26738281 17.63328125 22.24414062 18.5390625 C22.18559748 20.69345007 22.09592783 22.8469531 22 25 C20.68 25 19.36 25 18 25 C17.96261719 23.73542969 17.92523437 22.47085938 17.88671875 21.16796875 C17.82106167 19.5077827 17.75461424 17.84762778 17.6875 16.1875 C17.66494141 15.35412109 17.64238281 14.52074219 17.61914062 13.66210938 C17.5659668 12.45844727 17.5659668 12.45844727 17.51171875 11.23046875 C17.48553467 10.49207764 17.45935059 9.75368652 17.43237305 8.99291992 C16.88147685 6.45369595 16.09120465 5.51865245 14 4 C10.42243314 3.99917465 10.42243314 3.99917465 7 5 C5.0243438 7.96348429 4.73623141 8.68020373 4.5859375 12.01171875 C4.54726563 12.76904297 4.50859375 13.52636719 4.46875 14.30664062 C4.4378125 15.09232422 4.406875 15.87800781 4.375 16.6875 C4.33632813 17.48478516 4.29765625 18.28207031 4.2578125 19.10351562 C4.16367506 21.06863475 4.08075368 23.0342854 4 25 C2.68 25 1.36 25 0 25 C0 16.75 0 8.5 0 0 Z " fill="#EEE9EA" transform="translate(502,748)"/>
<path d="M0 0 C1.32 0 2.64 0 4 0 C4.04898438 1.26457031 4.09796875 2.52914062 4.1484375 3.83203125 C4.2234738 5.49220947 4.29902127 7.15236464 4.375 8.8125 C4.4059375 9.64587891 4.436875 10.47925781 4.46875 11.33789062 C4.50742187 12.14033203 4.54609375 12.94277344 4.5859375 13.76953125 C4.6173584 14.50792236 4.6487793 15.24631348 4.68115234 16.00708008 C4.90834614 18.31349588 4.90834614 18.31349588 7 21 C9.95746492 21.58345476 9.95746492 21.58345476 13 21 C15.70778043 18.56813084 16.2205931 16.38218421 16.51171875 12.890625 C16.58440698 11.34434821 16.64259399 9.79733285 16.6875 8.25 C16.72166016 7.45722656 16.75582031 6.66445313 16.79101562 5.84765625 C16.87319104 3.89892496 16.93828045 1.94948638 17 0 C18.32 0 19.64 0 21 0 C21 8.25 21 16.5 21 25 C19.68 25 18.36 25 17 25 C16.67 24.34 16.34 23.68 16 23 C15.34 23.66 14.68 24.32 14 25 C11.7578125 25.37109375 11.7578125 25.37109375 9.125 25.4375 C8.26132812 25.47746094 7.39765625 25.51742187 6.5078125 25.55859375 C4 25 4 25 1.6953125 23.1171875 C-0.74761316 18.62535645 -0.43454738 14.70931819 -0.25 9.6875 C-0.23195313 8.75615234 -0.21390625 7.82480469 -0.1953125 6.86523438 C-0.14834888 4.57575803 -0.08269475 2.28841816 0 0 Z " fill="#F1EDED" transform="translate(976,748)"/>
<path d="M0 0 C3.0625 2.375 3.0625 2.375 5 5 C5 5.66 5 6.32 5 7 C2.525 6.505 2.525 6.505 0 6 C0 5.34 0 4.68 0 4 C-2.97 4 -5.94 4 -9 4 C-8.67613187 6.52985528 -8.67613187 6.52985528 -7 9 C-4.7530971 9.71672245 -2.52394042 10.08042993 -0.203125 10.4921875 C2 11 2 11 4.625 12.6875 C6 15 6 15 6 18.5625 C4.88369229 22.39980774 4.33744191 23.04396883 1 25 C-2.4025395 25.66391015 -5.58820473 25.60078463 -9 25 C-12.125 22.6875 -12.125 22.6875 -14 20 C-14 19.01 -14 18.02 -14 17 C-12.68 17 -11.36 17 -10 17 C-9.54625 17.66 -9.0925 18.32 -8.625 19 C-8.08875 19.66 -7.5525 20.32 -7 21 C-3.87413125 21.33397787 -3.87413125 21.33397787 -1 21 C-0.67 19.35 -0.34 17.7 0 16 C-0.60328125 15.81824219 -1.2065625 15.63648438 -1.828125 15.44921875 C-10.85631068 12.60970874 -10.85631068 12.60970874 -13 10 C-13.52134619 6.35057669 -13.81151056 4.09377511 -11.5625 1.0625 C-7.68584487 -0.54489359 -4.12400981 -0.80719053 0 0 Z " fill="#EFEBEC" transform="translate(819,748)"/>
<path d="M0 0 C2.875 1.375 2.875 1.375 5 4 C6.06667948 9.10113654 5.78077121 12.79335358 2.9375 17.1875 C0 19 0 19 -3.625 19.0625 C-7.37787459 17.88103948 -8.06957777 17.29374713 -10 14 C-10.80971291 9.44810038 -10.83244866 5.34472475 -8.375 1.375 C-5.25214775 -0.43296709 -3.56003292 -0.58122986 0 0 Z " fill="#46151A" transform="translate(570,164)"/>
<path d="M0 0 C1.32 0 2.64 0 4 0 C4.06058594 1.26457031 4.12117187 2.52914062 4.18359375 3.83203125 C4.26800904 5.49219871 4.35265655 7.15235437 4.4375 8.8125 C4.47681641 9.64587891 4.51613281 10.47925781 4.55664062 11.33789062 C4.59853516 12.14033203 4.64042969 12.94277344 4.68359375 13.76953125 C4.72025146 14.50792236 4.75690918 15.24631348 4.79467773 16.00708008 C4.94842141 18.207495 4.94842141 18.207495 6 21 C10.86382427 21.44247074 10.86382427 21.44247074 15.1875 19.53125 C17.80050776 15.8820495 17.66991494 12.64011736 17.75 8.25 C17.79447266 7.06083984 17.79447266 7.06083984 17.83984375 5.84765625 C17.91027787 3.89897906 17.95743482 1.94948505 18 0 C19.32 0 20.64 0 22 0 C22 8.25 22 16.5 22 25 C20.68 25 19.36 25 18 25 C17.67 24.01 17.34 23.02 17 22 C16.39478516 22.72896484 16.39478516 22.72896484 15.77734375 23.47265625 C13.03072842 25.83293448 10.65303306 25.47296449 7.16015625 25.359375 C5 25 5 25 2.5 23.1875 C0.32664625 20.01802578 -0.12422473 17.51568704 -0.09765625 13.76953125 C-0.09282227 12.56586914 -0.09282227 12.56586914 -0.08789062 11.33789062 C-0.07951172 10.50451172 -0.07113281 9.67113281 -0.0625 8.8125 C-0.05798828 7.96751953 -0.05347656 7.12253906 -0.04882812 6.25195312 C-0.03705403 4.16793845 -0.0191189 2.08396023 0 0 Z " fill="#F33C3D" transform="translate(585,161)"/>
<path d="M0 0 C1.32 0 2.64 0 4 0 C4.01981934 0.56509277 4.03963867 1.13018555 4.06005859 1.71240234 C4.15518236 4.26707997 4.26491058 6.82092541 4.375 9.375 C4.4059375 10.26445313 4.436875 11.15390625 4.46875 12.0703125 C4.50742187 12.92109375 4.54609375 13.771875 4.5859375 14.6484375 C4.6173584 15.43395996 4.6487793 16.21948242 4.68115234 17.02880859 C4.8399465 19.23002939 4.8399465 19.23002939 7 21 C10.52894948 20.91256309 10.52894948 20.91256309 14 20 C15.9756562 17.03651571 16.26376859 16.31979627 16.4140625 12.98828125 C16.45273437 12.23095703 16.49140625 11.47363281 16.53125 10.69335938 C16.57765625 9.51483398 16.57765625 9.51483398 16.625 8.3125 C16.66367187 7.51521484 16.70234375 6.71792969 16.7421875 5.89648438 C16.83632494 3.93136525 16.91924632 1.9657146 17 0 C18.32 0 19.64 0 21 0 C21 8.25 21 16.5 21 25 C19.68 25 18.36 25 17 25 C16.67 24.34 16.34 23.68 16 23 C15.01 23.66 14.02 24.32 13 25 C10.87890625 25.37109375 10.87890625 25.37109375 8.5625 25.4375 C7.80066406 25.47746094 7.03882813 25.51742187 6.25390625 25.55859375 C4 25 4 25 1.73046875 23.1171875 C-0.76144603 18.62836584 -0.43519049 14.7268181 -0.25 9.6875 C-0.23195313 8.75615234 -0.21390625 7.82480469 -0.1953125 6.86523438 C-0.14834888 4.57575803 -0.08269475 2.28841816 0 0 Z " fill="#E8E2E3" transform="translate(739,748)"/>
<path d="M0 0 C2.625 1.8125 2.625 1.8125 4 4 C4 4.99 4 5.98 4 7 C2.68 7 1.36 7 0 7 C-0.474375 6.505 -0.94875 6.01 -1.4375 5.5 C-2.96378798 3.714174 -2.96378798 3.714174 -5.6875 3.8125 C-6.450625 3.874375 -7.21375 3.93625 -8 4 C-8.33 5.32 -8.66 6.64 -9 8 C-8.24074219 8.25394531 -7.48148438 8.50789062 -6.69921875 8.76953125 C-5.70535156 9.11371094 -4.71148438 9.45789063 -3.6875 9.8125 C-2.20830078 10.31716797 -2.20830078 10.31716797 -0.69921875 10.83203125 C1.9088947 11.96057817 3.34816709 12.70893038 5 15 C4.9375 18.5 4.9375 18.5 4 22 C1.1390539 24.75876946 -1.00034607 25.45146806 -4.9375 25.5 C-8.86814648 25.38968644 -9.82661539 25.12830461 -13.125 22.6875 C-15 20 -15 20 -15 17 C-12.625 17.3125 -12.625 17.3125 -10 18 C-9.34 18.99 -8.68 19.98 -8 21 C-6.02252878 21.36297936 -6.02252878 21.36297936 -3.875 21.1875 C-2.59625 21.125625 -1.3175 21.06375 0 21 C0 19.02 0 17.04 0 15 C-1.01320313 14.83564453 -1.01320313 14.83564453 -2.046875 14.66796875 C-2.93890625 14.50941406 -3.8309375 14.35085938 -4.75 14.1875 C-6.07257812 13.96126953 -6.07257812 13.96126953 -7.421875 13.73046875 C-10.24371826 12.93094649 -11.87390362 12.00906355 -14 10 C-14.59713581 6.49182714 -14.41142544 4.71064394 -12.625 1.625 C-8.5742497 -0.88260733 -4.63521444 -0.77766887 0 0 Z " fill="#EFEBEB" transform="translate(544,748)"/>
<path d="M0 0 C1.65 0 3.3 0 5 0 C6.17407021 2.26727333 7.33939739 4.53834624 8.5 6.8125 C8.83386719 7.45509766 9.16773438 8.09769531 9.51171875 8.75976562 C11.00239084 11.69547699 12 13.66126517 12 17 C12.66 17 13.32 17 14 17 C14.10183594 16.30519531 14.20367188 15.61039063 14.30859375 14.89453125 C15.11717006 11.50947448 16.46675713 8.77712981 18.0625 5.6875 C18.61035156 4.61886719 19.15820312 3.55023438 19.72265625 2.44921875 C20.14417969 1.64097656 20.56570313 0.83273438 21 0 C22.65 0 24.3 0 26 0 C24.70310927 3.59870202 22.99107431 6.73702459 21.02929688 10.01342773 C16.09036887 18.43456503 14.77851646 25.24088162 15 35 C13.68 35 12.36 35 11 35 C11.04382813 34.20980469 11.08765625 33.41960937 11.1328125 32.60546875 C11.10684756 21.24580682 6.58186769 13.3361969 0.90209961 3.74902344 C0 2 0 2 0 0 Z " fill="#EE3B3C" transform="translate(530,151)"/>
<path d="M0 0 C2.625 1.8125 2.625 1.8125 4 4 C4 4.99 4 5.98 4 7 C2.68 7 1.36 7 0 7 C-0.66 6.01 -1.32 5.02 -2 4 C-5.08365871 3.7497843 -5.08365871 3.7497843 -8 4 C-8.33 5.32 -8.66 6.64 -9 8 C-8.07316406 8.33773437 -7.14632813 8.67546875 -6.19140625 9.0234375 C-4.99386719 9.46945312 -3.79632812 9.91546875 -2.5625 10.375 C-1.36753906 10.81585937 -0.17257812 11.25671875 1.05859375 11.7109375 C4 13 4 13 5 15 C5.36849051 18.39011269 5.35014495 20.36640438 3.6875 23.375 C-0.64418049 25.99415565 -5.07776245 25.74806042 -10 25 C-12.8744164 23.0837224 -13.67422195 21.97733416 -14.75 18.75 C-14.8325 18.1725 -14.915 17.595 -15 17 C-10.34074074 17.62962963 -10.34074074 17.62962963 -8.5625 19.5625 C-6.96161036 21.33952866 -6.96161036 21.33952866 -3.8125 21.1875 C-2.884375 21.125625 -1.95625 21.06375 -1 21 C-0.67 19.35 -0.34 17.7 0 16 C-0.67546875 15.82984375 -1.3509375 15.6596875 -2.046875 15.484375 C-11.45874587 12.92739274 -11.45874587 12.92739274 -14 9 C-14.6407669 5.79616552 -14.2921273 4.49130501 -12.625 1.6875 C-8.59066116 -0.90600354 -4.66139075 -0.78206057 0 0 Z " fill="#F1EDEE" transform="translate(1036,748)"/>
<path d="M0 0 C2.625 1.8125 2.625 1.8125 4 4 C4 4.99 4 5.98 4 7 C2.68 7 1.36 7 0 7 C-0.66 6.01 -1.32 5.02 -2 4 C-5.08365871 3.7497843 -5.08365871 3.7497843 -8 4 C-8.33 5.32 -8.66 6.64 -9 8 C-8.07316406 8.33773437 -7.14632813 8.67546875 -6.19140625 9.0234375 C-4.99386719 9.46945312 -3.79632813 9.91546875 -2.5625 10.375 C-1.36753906 10.81585937 -0.17257812 11.25671875 1.05859375 11.7109375 C4 13 4 13 5 15 C5.375 17.875 5.375 17.875 5 21 C2.81135039 23.7722895 1.10120108 24.8068385 -2.3828125 25.41796875 C-7.04127188 25.67522695 -9.29305051 25.52314262 -13.125 22.6875 C-15 20 -15 20 -15 17 C-12.625 17.3125 -12.625 17.3125 -10 18 C-9.34 18.99 -8.68 19.98 -8 21 C-4.92078868 21.25660094 -2.78863007 21.39431504 0 20 C0 18.68 0 17.36 0 16 C-0.67546875 15.82984375 -1.3509375 15.6596875 -2.046875 15.484375 C-11.45874587 12.92739274 -11.45874587 12.92739274 -14 9 C-14.6407669 5.79616552 -14.2921273 4.49130501 -12.625 1.6875 C-8.59066116 -0.90600354 -4.66139075 -0.78206057 0 0 Z " fill="#F1EEEE" transform="translate(462,748)"/>
<path d="M0 0 C2.296875 0.03125 2.296875 0.03125 5 1 C6.35167296 3.55980542 7.32628983 5.79342987 8.25 8.5 C9.5795984 13.09440539 9.5795984 13.09440539 12 17 C12.44730469 15.85660156 12.89460937 14.71320313 13.35546875 13.53515625 C13.96512156 12.04385169 14.57585513 10.55298864 15.1875 9.0625 C15.47947266 8.30775391 15.77144531 7.55300781 16.07226562 6.77539062 C16.93089048 4.71653747 17.75094228 2.8493358 19 1 C21.73828125 -0.00390625 21.73828125 -0.00390625 24 0 C22.59300254 4.45846032 20.88370604 8.66943564 18.9609375 12.9296875 C18.67521881 13.56488312 18.38950012 14.20007874 18.09512329 14.85452271 C17.19112893 16.86258462 16.28313664 18.86880854 15.375 20.875 C14.7575463 22.24467169 14.14035619 23.61446225 13.5234375 24.984375 C12.01866963 28.32429612 10.51031328 31.66258221 9 35 C7.68 35 6.36 35 5 35 C5.45553647 32.85992761 5.94747985 31.09621856 7 29.16796875 C8.2821818 26.62864775 8.82226814 24.86345774 9 22 C7.59033859 17.99247316 5.82995333 14.3846507 3.83203125 10.6484375 C1.9895483 7.18408346 0.95274161 3.80119475 0 0 Z " fill="#F23C3C" transform="translate(836,161)"/>
<path d="M0 0 C7.92 0 15.84 0 24 0 C24 5.02079764 23.52932672 6.46171853 21.25 10.6875 C18.46799074 16.02241188 16.11719056 21.37297797 14 27 C13.69964844 27.79148437 13.39929688 28.58296875 13.08984375 29.3984375 C12.38650517 31.26310258 11.69216371 33.13115799 11 35 C9.35 35 7.7 35 6 35 C8.16453871 28.0506915 10.91775631 21.58683563 14 15 C14.93981466 12.93855368 15.87739564 10.87608725 16.8125 8.8125 C17.534375 7.224375 18.25625 5.63625 19 4 C12.73 4 6.46 4 0 4 C0 2.68 0 1.36 0 0 Z " fill="#E0D9D9" transform="translate(596,738)"/>
<path d="M0 0 C7.59 0 15.18 0 23 0 C21.8795243 8.96380558 21.8795243 8.96380558 19.6875 13.375 C17.95048488 16.98418704 16.32883849 20.57967143 14.875 24.3125 C13.43067619 27.99376434 11.84127914 31.50156963 10 35 C8.68 35 7.36 35 6 35 C9.26506063 24.68928223 13.56570702 14.8539844 18 5 C12.06 4.67 6.12 4.34 0 4 C0 2.68 0 1.36 0 0 Z " fill="#EBE6E7" transform="translate(872,738)"/>
<path d="M0 0 C7.59 0 15.18 0 23 0 C22.26809944 5.12330391 21.82567873 7.98711044 19.875 12.4375 C19.43542969 13.45199219 18.99585938 14.46648438 18.54296875 15.51171875 C18.03378906 16.66285156 17.52460938 17.81398438 17 19 C16.37029897 20.44366401 15.74143372 21.88769278 15.11328125 23.33203125 C13.41785337 27.22534706 11.71136781 31.11366618 10 35 C8.68 35 7.36 35 6 35 C8.1802629 28.12052968 10.80254035 21.54944102 13.6875 14.9375 C14.10322266 13.97650391 14.51894531 13.01550781 14.94726562 12.02539062 C15.96150578 9.68214613 16.98028061 7.34086527 18 5 C12.06 4.67 6.12 4.34 0 4 C0 2.68 0 1.36 0 0 Z " fill="#EAE5E6" transform="translate(301,738)"/>
<path d="M0 0 C1.670625 0.061875 1.670625 0.061875 3.375 0.125 C3.375 1.115 3.375 2.105 3.375 3.125 C2.055 3.455 0.735 3.785 -0.625 4.125 C-0.955 6.105 -1.285 8.085 -1.625 10.125 C0.355 10.125 2.335 10.125 4.375 10.125 C4.375 11.445 4.375 12.765 4.375 14.125 C2.395 14.125 0.415 14.125 -1.625 14.125 C-1.625 21.055 -1.625 27.985 -1.625 35.125 C-3.275 35.125 -4.925 35.125 -6.625 35.125 C-6.625 28.195 -6.625 21.265 -6.625 14.125 C-7.615 14.125 -8.605 14.125 -9.625 14.125 C-9.625 12.805 -9.625 11.485 -9.625 10.125 C-8.305 10.125 -6.985 10.125 -5.625 10.125 C-5.686875 8.206875 -5.686875 8.206875 -5.75 6.25 C-5.8203125 4.0703125 -5.8203125 4.0703125 -5.625 2.125 C-3.625 0.125 -3.625 0.125 0 0 Z " fill="#CFC2C3" transform="translate(1096.625,737.875)"/>
<path d="M0 0 C1.32 0 2.64 0 4 0 C4 1.98 4 3.96 4 6 C6.31 6 8.62 6 11 6 C11 7.32 11 8.64 11 10 C8.69 10 6.38 10 4 10 C4.33 15.28 4.66 20.56 5 26 C6.98 26.33 8.96 26.66 11 27 C11 28.32 11 29.64 11 31 C9.7625 31.103125 8.525 31.20625 7.25 31.3125 C6.55390625 31.37050781 5.8578125 31.42851563 5.140625 31.48828125 C3 31 3 31 0.75 29 C-1.55200718 25.05370198 -1.4576353 22.15565202 -1.25 17.6875 C-1.23195313 16.94693359 -1.21390625 16.20636719 -1.1953125 15.44335938 C-1.14847337 13.6283429 -1.07673789 11.81399834 -1 10 C-2.32 10 -3.64 10 -5 10 C-5 8.68 -5 7.36 -5 6 C-3.35 6 -1.7 6 0 6 C0 4.02 0 2.04 0 0 Z " fill="#E1D9DA" transform="translate(1289,742)"/>
<path d="M0 0 C0.99 0.103125 1.98 0.20625 3 0.3125 C3.66 1.3025 4.32 2.2925 5 3.3125 C9.65145592 3.69274775 9.65145592 3.69274775 14 2.3125 C16.34087842 2.58789746 18.67402489 2.9311926 21 3.3125 C22.299375 3.498125 23.59875 3.68375 24.9375 3.875 C25.948125 4.019375 26.95875 4.16375 28 4.3125 C28 4.6425 28 4.9725 28 5.3125 C2.26 5.6425 -23.48 5.9725 -50 6.3125 C-50 5.6525 -50 4.9925 -50 4.3125 C-48.7315625 4.3434375 -48.7315625 4.3434375 -47.4375 4.375 C-43.24257924 4.29872871 -39.16805629 3.88351071 -35.1015625 2.8125 C-32.73251494 2.24886043 -30.42355189 1.98274965 -28 1.75 C-27.154375 1.66621094 -26.30875 1.58242188 -25.4375 1.49609375 C-23.29685772 1.33485948 -21.14670582 1.3125 -19 1.3125 C-19 1.9725 -19 2.6325 -19 3.3125 C-18.2575 2.9825 -17.515 2.6525 -16.75 2.3125 C-13.41859614 1.10108042 -10.51150327 1.3125 -7 1.3125 C-7 1.9725 -7 2.6325 -7 3.3125 C-0.47368421 0.04934211 -0.47368421 0.04934211 0 0 Z " fill="#5C161C" transform="translate(501,310.6875)"/>
<path d="M0 0 C1.32 0 2.64 0 4 0 C4 1.98 4 3.96 4 6 C6.31 6 8.62 6 11 6 C11 7.32 11 8.64 11 10 C8.69 10 6.38 10 4 10 C4.33 15.28 4.66 20.56 5 26 C6.98 26.33 8.96 26.66 11 27 C11 28.32 11 29.64 11 31 C4.728739 31.48240469 4.728739 31.48240469 1.78125 29.53125 C-0.82316537 25.83023869 -0.4399867 22.65623008 -0.25 18.25 C-0.23195313 17.45722656 -0.21390625 16.66445313 -0.1953125 15.84765625 C-0.14833082 13.89791652 -0.07659044 11.94880122 0 10 C-1.32 10 -2.64 10 -4 10 C-4 8.68 -4 7.36 -4 6 C-2.68 6 -1.36 6 0 6 C0 4.02 0 2.04 0 0 Z " fill="#F0ECED" transform="translate(1214,742)"/>
<path d="M0 0 C1.32 0 2.64 0 4 0 C4 10.23 4 20.46 4 31 C9.28 31 14.56 31 20 31 C20 31.99 20 32.98 20 34 C13.4 34 6.8 34 0 34 C0 22.78 0 11.56 0 0 Z " fill="#EFEAEB" transform="translate(371,739)"/>
<path d="M0 0 C1.32 0 2.64 0 4 0 C4 1.98 4 3.96 4 6 C6.31 6 8.62 6 11 6 C11 6.99 11 7.98 11 9 C8.69 9 6.38 9 4 9 C4.33 14.28 4.66 19.56 5 25 C6.98 25.66 8.96 26.32 11 27 C11 28.32 11 29.64 11 31 C7.75 31.3125 7.75 31.3125 4 31 C1.61640441 28.88497856 0.18954228 27.20488446 -0.31542969 23.99487305 C-0.3933689 21.71262058 -0.34943504 19.46876936 -0.25 17.1875 C-0.23195313 16.39923828 -0.21390625 15.61097656 -0.1953125 14.79882812 C-0.14844048 12.86535739 -0.0767041 10.93251715 0 9 C-1.32 9 -2.64 9 -4 9 C-4 8.01 -4 7.02 -4 6 C-2.68 6 -1.36 6 0 6 C0 4.02 0 2.04 0 0 Z " fill="#F23C3D" transform="translate(1045,155)"/>
<path d="M0 0 C10.47610182 -0.36974477 10.47610182 -0.36974477 12.83203125 1.29296875 C14.78547961 4.14800867 14.35745403 6.66376235 14 10 C12.83203125 11.70703125 12.83203125 11.70703125 11 13 C7.29631297 13.40199208 3.73655831 13.13187853 0 13 C0 8.71 0 4.42 0 0 Z " fill="#461519" transform="translate(893,155)"/>
<path d="M0 0 C1.32 0 2.64 0 4 0 C4 11.55 4 23.1 4 35 C2.68 35 1.36 35 0 35 C0 34.01 0 33.02 0 32 C-0.99 31.67 -1.98 31.34 -3 31 C-2.67 30.505 -2.34 30.01 -2 29.5 C-0.17640527 24.94101317 -0.48146864 20.55559408 -2 16 C-2.33 15.34 -2.66 14.68 -3 14 C-2.01 13.67 -1.02 13.34 0 13 C0 8.71 0 4.42 0 0 Z " fill="#F5F3F3" transform="translate(728,738)"/>
<path d="M0 0 C0 1.65 0 3.3 0 5 C-1.134375 5.28875 -2.26875 5.5775 -3.4375 5.875 C-4.613125 6.24625 -5.78875 6.6175 -7 7 C-8.6498007 10.29960141 -8.38258361 13.99127884 -8.5625 17.625 C-8.62727539 18.82769531 -8.62727539 18.82769531 -8.69335938 20.0546875 C-8.79951457 22.0362511 -8.90026855 24.01810271 -9 26 C-10.65 26 -12.3 26 -14 26 C-14 17.75 -14 9.5 -14 1 C-12.68 1 -11.36 1 -10 1 C-10 2.32 -10 3.64 -10 5 C-9.34 5 -8.68 5 -8 5 C-7.731875 4.360625 -7.46375 3.72125 -7.1875 3.0625 C-5.37365074 -0.08786977 -3.47812867 0 0 0 Z " fill="#E23839" transform="translate(627,160)"/>
<path d="M0 0 C0 1.65 0 3.3 0 5 C-1.11375 5.12375 -2.2275 5.2475 -3.375 5.375 C-7.03103677 5.6465813 -7.03103677 5.6465813 -9 8 C-9.36831081 9.93257855 -9.36831081 9.93257855 -9.4140625 12.1328125 C-9.45273437 12.93847656 -9.49140625 13.74414062 -9.53125 14.57421875 C-9.5621875 15.41597656 -9.593125 16.25773437 -9.625 17.125 C-9.66367187 17.97449219 -9.70234375 18.82398438 -9.7421875 19.69921875 C-9.83656494 21.79911684 -9.91937586 23.89952891 -10 26 C-11.32 26 -12.64 26 -14 26 C-14 17.75 -14 9.5 -14 1 C-12.68 1 -11.36 1 -10 1 C-9.67 1.66 -9.34 2.32 -9 3 C-8.2575 2.505 -7.515 2.01 -6.75 1.5 C-4 0 -4 0 0 0 Z " fill="#F03C3C" transform="translate(931,160)"/>
<path d="M0 0 C0 1.65 0 3.3 0 5 C-1.670625 5.4021875 -1.670625 5.4021875 -3.375 5.8125 C-7.21840951 6.65809019 -7.21840951 6.65809019 -9 10 C-9.30066154 12.75417318 -9.50925299 15.42645147 -9.625 18.1875 C-9.66367187 18.93708984 -9.70234375 19.68667969 -9.7421875 20.45898438 C-9.83628216 22.30559199 -9.91922319 24.1527619 -10 26 C-11.32 26 -12.64 26 -14 26 C-14 17.75 -14 9.5 -14 1 C-12.68 1 -11.36 1 -10 1 C-9.67 1.99 -9.34 2.98 -9 4 C-8.071875 3.34 -7.14375 2.68 -6.1875 2 C-3 0 -3 0 0 0 Z " fill="#EDE8E9" transform="translate(1018,747)"/>
<path d="M0 0 C5.94 0 11.88 0 18 0 C18 1.32 18 2.64 18 4 C13.05 4 8.1 4 3 4 C3 6.97 3 9.94 3 13 C3.66 13.33 4.32 13.66 5 14 C3.75 16.5 3.75 16.5 2 19 C0.68 19 -0.64 19 -2 19 C-1.85913398 16.39547729 -1.71251536 13.79149803 -1.5625 11.1875 C-1.50352539 10.08051758 -1.50352539 10.08051758 -1.44335938 8.95117188 C-1.25618965 5.76928658 -1.01279207 3.03837622 0 0 Z " fill="#E7E1E2" transform="translate(331,738)"/>
<path d="M0 0 C1.32 0 2.64 0 4 0 C4 11.55 4 23.1 4 35 C2.68 35 1.36 35 0 35 C0 23.45 0 11.9 0 0 Z " fill="#F5F2F2" transform="translate(767,738)"/>
<path d="M0 0 C1.32 0 2.64 0 4 0 C4 1.32 4 2.64 4 4 C4.99 4.33 5.98 4.66 7 5 C6.67 5.33 6.34 5.66 6 6 C5.84379445 7.41327947 5.74943827 8.8335459 5.68359375 10.25390625 C5.64169922 11.10791016 5.59980469 11.96191406 5.55664062 12.84179688 C5.49766602 14.18854492 5.49766602 14.18854492 5.4375 15.5625 C5.39431641 16.46419922 5.35113281 17.36589844 5.30664062 18.29492188 C5.20021858 20.52978485 5.09820012 22.76476308 5 25 C3.35 25 1.7 25 0 25 C0 16.75 0 8.5 0 0 Z " fill="#E23839" transform="translate(1014,161)"/>
<path d="M0 0 C19.8 0 39.6 0 60 0 C59.67 0.99 59.34 1.98 59 3 C39.53 3 20.06 3 0 3 C0 2.01 0 1.02 0 0 Z " fill="#592E33" transform="translate(771,565)"/>
<path d="M0 0 C1.32 0 2.64 0 4 0 C4.33 0.66 4.66 1.32 5 2 C6.32 1.34 7.64 0.68 9 0 C8.360625 0.969375 7.72125 1.93875 7.0625 2.9375 C3.61555158 9.6486964 4.16767149 17.62245442 4 25 C2.68 25 1.36 25 0 25 C0 16.75 0 8.5 0 0 Z " fill="#F13C3C" transform="translate(709,161)"/>
<path d="M0 0 C0.99 0.33 1.98 0.66 3 1 C2.42427428 5.31154592 1.36686851 8.89509439 -0.375 12.875 C-2.38401418 17.54523006 -4.25541208 22.22533833 -6 27 C-7.65 27 -9.3 27 -11 27 C-9.12256629 20.97244968 -6.87101576 15.31999156 -4.20703125 9.59765625 C-2.73342948 6.42631264 -1.36011307 3.22132043 0 0 Z " fill="#EDE9E9" transform="translate(613,746)"/>
<path d="M0 0 C1.875 1.1875 1.875 1.1875 3 3 C3.42822025 5.85480169 3.40659584 7.34492892 1.875 9.8125 C-0.87155972 11.55198782 -2.81846974 11.39769128 -6 11 C-7.875 9.8125 -7.875 9.8125 -9 8 C-9.42822025 5.14519831 -9.40659584 3.65507108 -7.875 1.1875 C-5.12844028 -0.55198782 -3.18153026 -0.39769128 0 0 Z " fill="#F6F4F4" transform="translate(852,751)"/>
<path d="M0 0 C3.0625 0.3125 3.0625 0.3125 5 1.375 C6.71037795 4.49392449 5.86763863 6.96807801 5.0625 10.3125 C2.29999964 11.69375018 0.11518901 11.50329306 -2.9375 11.3125 C-4.9375 9.3125 -4.9375 9.3125 -5.1875 5.8125 C-4.87458101 1.43163414 -4.40975115 0.46912246 0 0 Z " fill="#F9F8F8" transform="translate(572.9375,750.6875)"/>
<path d="M0 0 C0.99 0 1.98 0 3 0 C3 1.32 3 2.64 3 4 C3.99 4 4.98 4 6 4 C5.84152588 4.57524414 5.68305176 5.15048828 5.51977539 5.74316406 C5.02086674 7.90939777 4.80111676 9.89322683 4.68359375 12.109375 C4.64169922 12.86347656 4.59980469 13.61757813 4.55664062 14.39453125 C4.49766602 15.56048828 4.49766602 15.56048828 4.4375 16.75 C4.39431641 17.54277344 4.35113281 18.33554687 4.30664062 19.15234375 C4.20097009 21.10137815 4.10002034 23.05066748 4 25 C2.68 25 1.36 25 0 25 C0 16.75 0 8.5 0 0 Z " fill="#F5F2F2" transform="translate(502,748)"/>
<path d="M0 0 C7.59 0 15.18 0 23 0 C22.67 2.64 22.34 5.28 22 8 C21.59676514 7.5155542 21.19353027 7.0311084 20.77807617 6.53198242 C18.57152555 4.63082835 17.42967446 4.5848884 14.55078125 4.48828125 C13.70322266 4.45283203 12.85566406 4.41738281 11.98242188 4.38085938 C10.66081055 4.34702148 10.66081055 4.34702148 9.3125 4.3125 C8.41982422 4.27833984 7.52714844 4.24417969 6.60742188 4.20898438 C4.40507329 4.12654352 2.20312062 4.05738449 0 4 C0 2.68 0 1.36 0 0 Z " fill="#E3DCDD" transform="translate(872,738)"/>
<path d="M0 0 C0.99 0 1.98 0 3 0 C3 1.65 3 3.3 3 5 C3.66 5 4.32 5 5 5 C4.67 11.6 4.34 18.2 4 25 C2.68 25 1.36 25 0 25 C0 16.75 0 8.5 0 0 Z " fill="#F5F3F3" transform="translate(1258,748)"/>
<path d="M0 0 C0.33 0 0.66 0 1 0 C1.66 3.3 2.32 6.6 3 10 C3.99 10.33 4.98 10.66 6 11 C6.433125 11.515625 6.86625 12.03125 7.3125 12.5625 C9.01697531 14.28093043 9.01697531 14.28093043 12 14.375 C15.37752136 13.95280983 15.80909482 13.39007838 18 11 C19.32 11 20.64 11 22 11 C21.63595523 13.63932462 21.24498227 14.77318495 19.26171875 16.609375 C15.38460664 18.99322977 11.40298249 18.6493864 7 18 C3.35794155 15.8754659 1.56014431 13.8658443 0 10 C-0.1953125 7.421875 -0.1953125 7.421875 -0.125 4.75 C-0.09792969 3.41195312 -0.09792969 3.41195312 -0.0703125 2.046875 C-0.04710937 1.37140625 -0.02390625 0.6959375 0 0 Z " fill="#ECE8E8" transform="translate(777,755)"/>
<path d="M0 0 C0.90492188 0.02320313 1.80984375 0.04640625 2.7421875 0.0703125 C4.10730469 0.09738281 4.10730469 0.09738281 5.5 0.125 C6.19867187 0.14820313 6.89734375 0.17140625 7.6171875 0.1953125 C7.8203125 4.90625 7.8203125 4.90625 5.9921875 7.5078125 C2.97098314 9.6544577 1.24991123 9.66914603 -2.3828125 9.1953125 C-4.3828125 7.1953125 -4.3828125 7.1953125 -4.6328125 4.6953125 C-4.29201434 1.28733086 -3.44583467 0.28244546 0 0 Z " fill="#4F171C" transform="translate(791.3828125,173.8046875)"/>
<path d="M0 0 C5.28 0 10.56 0 16 0 C16.33 1.32 16.66 2.64 17 4 C16.236875 3.938125 15.47375 3.87625 14.6875 3.8125 C11.9652429 3.69992287 11.9652429 3.69992287 10.5625 5.5 C9 7 9 7 6.0625 7.4375 C2.38948075 6.91278296 1.29767085 5.82790258 -1 3 C-0.67 2.01 -0.34 1.02 0 0 Z " fill="#50171C" transform="translate(939,176)"/>
<path d="M0 0 C2.4375 1.8125 2.4375 1.8125 4 4 C4 4.99 4 5.98 4 7 C-0.95 7 -5.9 7 -11 7 C-10.67 5.35 -10.34 3.7 -10 2 C-6.2794164 -0.48038907 -4.40203429 -0.46337203 0 0 Z " fill="#4D161B" transform="translate(1001,164)"/>
<path d="M0 0 C5.94 0 11.88 0 18 0 C18 0.66 18 1.32 18 2 C16.68 2 15.36 2 14 2 C13.814375 2.639375 13.62875 3.27875 13.4375 3.9375 C12 6 12 6 8.6875 7.0625 C5 7 5 7 2.0625 4.6875 C0 2 0 2 0 0 Z " fill="#4A161B" transform="translate(990,176)"/>
<path d="M0 0 C3.3125 -0.25 3.3125 -0.25 7 0 C8.9375 1.8125 8.9375 1.8125 10 4 C10 4.99 10 5.98 10 7 C7.73122896 7.24875561 5.45980265 7.47339246 3.1875 7.6875 C1.92292969 7.81511719 0.65835938 7.94273437 -0.64453125 8.07421875 C-4 8 -4 8 -5.94921875 6.51953125 C-6.29597656 6.01808594 -6.64273438 5.51664063 -7 5 C-6.67 4.01 -6.34 3.02 -6 2 C-6 2.66 -6 3.32 -6 4 C-4.68 4 -3.36 4 -2 4 C-1.34 2.68 -0.68 1.36 0 0 Z " fill="#54181C" transform="translate(790,164)"/>
<path d="M0 0 C3.71323768 0.3201067 5.16622284 0.55866958 7.625 3.3125 C7.625 4.6325 7.625 5.9525 7.625 7.3125 C2.675 7.3125 -2.275 7.3125 -7.375 7.3125 C-4.62115385 0.42788462 -4.62115385 0.42788462 0 0 Z " fill="#4C161A" transform="translate(944.375,163.6875)"/>
<path d="M0 0 C2.27057377 -0.05398987 4.54151288 -0.09278742 6.8125 -0.125 C8.07707031 -0.14820313 9.34164062 -0.17140625 10.64453125 -0.1953125 C14 0 14 0 17 2 C16.67 2.66 16.34 3.32 16 4 C14.68 3.67 13.36 3.34 12 3 C11.67 3.99 11.34 4.98 11 6 C8.15916359 7.42041821 6.14522722 7.31452272 3 7 C0.625 5 0.625 5 -1 3 C-0.67 2.01 -0.34 1.02 0 0 Z " fill="#421418" transform="translate(783,763)"/>
<path d="M0 0 C2.375 1.8125 2.375 1.8125 4 4 C4 4.99 4 5.98 4 7 C-0.95 7 -5.9 7 -11 7 C-8.49235175 0.73087936 -6.6312331 -0.81198773 0 0 Z " fill="#3F1014" transform="translate(792,751)"/>
<path d="M0 0 C2.375 1.8125 2.375 1.8125 4 4 C4 4.99 4 5.98 4 7 C-0.95 7 -5.9 7 -11 7 C-10 3 -10 3 -8.3125 1.25 C-5.2658625 -0.39683108 -3.41842532 -0.49852036 0 0 Z " fill="#370B0D" transform="translate(1244,751)"/>
<path d="M0 0 C2.375 1.8125 2.375 1.8125 4 4 C4 4.99 4 5.98 4 7 C-0.95 7 -5.9 7 -11 7 C-10 3 -10 3 -8.3125 1.25 C-5.2658625 -0.39683108 -3.41842532 -0.49852036 0 0 Z " fill="#3B0E11" transform="translate(410,751)"/>
<path d="M0 0 C3.125 0.3125 3.125 0.3125 5 2.0625 C6.125 4.3125 6.125 4.3125 6.125 8.3125 C1.45038149 8.63863618 -1.04174383 8.01832788 -4.875 5.3125 C-3.76788282 0.40955248 -3.76788282 0.40955248 0 0 Z " fill="#44181C" transform="translate(1030.875,750.6875)"/>
<path d="M0 0 C3.125 0.375 3.125 0.375 5 2.6875 C6.125 5.375 6.125 5.375 6.125 8.375 C1.45038149 8.70113618 -1.04174383 8.08082788 -4.875 5.375 C-3.77239884 0.49205202 -3.77239884 0.49205202 0 0 Z " fill="#42181B" transform="translate(456.875,750.625)"/>
<path d="M0 0 C3.4375 0.1875 3.4375 0.1875 7 1 C8.94241961 3.5335908 9 4.78187214 9 8 C4.32538149 8.32613618 1.83325617 7.70582788 -2 5 C-1.125 1.125 -1.125 1.125 0 0 Z " fill="#411518" transform="translate(536,751)"/>
<path d="M0 0 C0.99 0 1.98 0 3 0 C1.22447196 7.3980335 -0.88590358 14.69302596 -3 22 C-4.65 22 -6.3 22 -8 22 C-7.38511719 20.37191406 -7.38511719 20.37191406 -6.7578125 18.7109375 C-6.21348243 17.26564731 -5.66921491 15.82033356 -5.125 14.375 C-4.85558594 13.66214844 -4.58617187 12.94929688 -4.30859375 12.21484375 C-2.7865816 8.16851878 -1.33627828 4.11262344 0 0 Z " fill="#62171D" transform="translate(728,401)"/>
<path d="M0 0 C0.99 0.33 1.98 0.66 3 1 C3 7.6 3 14.2 3 21 C2.01 21 1.02 21 0 21 C0 14.07 0 7.14 0 0 Z " fill="#FBFAFA" transform="translate(1091,752)"/>
<path d="M0 0 C1.67542976 0.28604898 3.34385343 0.61781233 5 1 C5 1.66 5 2.32 5 3 C6.98 3.66 8.96 4.32 11 5 C10.01 5.495 10.01 5.495 9 6 C8.01 5.67 7.02 5.34 6 5 C4.15533558 4.85110253 2.30642725 4.7520899 0.45703125 4.68359375 C-0.61611328 4.64169922 -1.68925781 4.59980469 -2.79492188 4.55664062 C-3.91447266 4.51732422 -5.03402344 4.47800781 -6.1875 4.4375 C-7.31865234 4.39431641 -8.44980469 4.35113281 -9.61523438 4.30664062 C-12.41003354 4.20050901 -15.20492162 4.09845615 -18 4 C-17.67 3.34 -17.34 2.68 -17 2 C-14.30847736 1.7137306 -11.69902132 1.53256862 -9 1.4375 C-4.10931377 1.67969985 -4.10931377 1.67969985 0 0 Z " fill="#65181E" transform="translate(577,313)"/>
<path d="M0 0 C0.99 0.33 1.98 0.66 3 1 C3 6.28 3 11.56 3 17 C2.01 17 1.02 17 0 17 C0 11.39 0 5.78 0 0 Z " fill="#FBFAFA" transform="translate(1276,756)"/>
<path d="M0 0 C0.99 0 1.98 0 3 0 C3 5.28 3 10.56 3 16 C2.01 16.33 1.02 16.66 0 17 C0 11.39 0 5.78 0 0 Z " fill="#FBFAFA" transform="translate(739,748)"/>
<path d="M0 0 C0.99 0.33 1.98 0.66 3 1 C3 6.28 3 11.56 3 17 C2.01 17.33 1.02 17.66 0 18 C0 12.06 0 6.12 0 0 Z " fill="#FCFBFB" transform="translate(1201,755)"/>
<path d="M0 0 C0.99 0 1.98 0 3 0 C2 8.57142857 2 8.57142857 1 12 C-0.65 12 -2.3 12 -4 12 C-3.33501617 7.61110675 -1.81242323 4.0188515 0 0 Z " fill="#DF3738" transform="translate(524,151)"/>
<path d="M0 0 C-1.875 3.875 -1.875 3.875 -3 5 C-3.23701239 7.85877909 -3.42219182 10.69883297 -3.5625 13.5625 C-3.60568359 14.36880859 -3.64886719 15.17511719 -3.69335938 16.00585938 C-3.79975262 18.00368805 -3.90040888 20.0018207 -4 22 C-4.66 22 -5.32 22 -6 22 C-6.1083667 19.2697611 -6.18746694 16.54385457 -6.25 13.8125 C-6.28351562 13.04357422 -6.31703125 12.27464844 -6.3515625 11.48242188 C-6.4209807 7.43881179 -6.2957051 5.4771605 -4.109375 1.94921875 C-2 0 -2 0 0 0 Z " fill="#5D1A1D" transform="translate(820,164)"/>
<path d="M0 0 C1.65 0 3.3 0 5 0 C4.39301257 4.12751449 2.96189209 7.3321148 1 11 C0.01 11 -0.98 11 -2 11 C-1 3.57142857 -1 3.57142857 0 0 Z " fill="#DF3738" transform="translate(865,151)"/>
<path d="M0 0 C1.670625 0.061875 1.670625 0.061875 3.375 0.125 C3.375 1.115 3.375 2.105 3.375 3.125 C2.055 3.455 0.735 3.785 -0.625 4.125 C-0.955 6.105 -1.285 8.085 -1.625 10.125 C-2.615 10.125 -3.605 10.125 -4.625 10.125 C-5.6015625 4.0703125 -5.6015625 4.0703125 -5.625 2.125 C-3.625 0.125 -3.625 0.125 0 0 Z " fill="#ECE7E8" transform="translate(1096.625,737.875)"/>
<path d="M0 0 C0.99 0 1.98 0 3 0 C3 4.62 3 9.24 3 14 C2.01 14.33 1.02 14.66 0 15 C0 10.05 0 5.1 0 0 Z " fill="#FBFAFA" transform="translate(757,748)"/>
<path d="M0 0 C-0.875 5.75 -0.875 5.75 -2 8 C-3.32 8 -4.64 8 -6 8 C-5.40138258 5.64828869 -4.73075648 3.3140622 -4 1 C-2 0 -2 0 0 0 Z " fill="#F2EFEF" transform="translate(884,765)"/>
<path d="M0 0 C0.66 0.33 1.32 0.66 2 1 C1.35546875 1.47953125 0.7109375 1.9590625 0.046875 2.453125 C-2.87111577 6.08390741 -2.66727241 9.2150239 -2.75 13.75 C-2.77964844 14.54277344 -2.80929687 15.33554688 -2.83984375 16.15234375 C-2.91027787 18.10102094 -2.95743482 20.05051495 -3 22 C-3.33 22 -3.66 22 -4 22 C-4.11613204 18.89614789 -4.18722029 15.79285338 -4.25 12.6875 C-4.28351562 11.80642578 -4.31703125 10.92535156 -4.3515625 10.01757812 C-4.45112665 3.47123501 -4.45112665 3.47123501 -1.984375 0.89453125 C-1.32953125 0.59933594 -0.6746875 0.30414063 0 0 Z " fill="#451419" transform="translate(1023,164)"/>
<path d="M0 0 C1.32 0 2.64 0 4 0 C4 1.65 4 3.3 4 5 C1.36 5 -1.28 5 -4 5 C-2.25 2.5 -2.25 2.5 0 0 Z " fill="#D63537" transform="translate(927,160)"/>
<path d="M0 0 C0.99 0.33 1.98 0.66 3 1 C2.5020163 4.73487777 2.12508244 6.81237635 0 10 C-1.60339848 6.88228073 -2.18974141 5.60988311 -1.125 2.1875 C-0.75375 1.465625 -0.3825 0.74375 0 0 Z " fill="#F1EDED" transform="translate(890,743)"/>
<path d="M0 0 C0.33 0 0.66 0 1 0 C1 6.93 1 13.86 1 21 C-0.32 19.35 -1.64 17.7 -3 16 C-2.34 15.67 -1.68 15.34 -1 15 C-0.68758629 12.45058627 -0.48696579 9.99638487 -0.375 7.4375 C-0.33632812 6.72658203 -0.29765625 6.01566406 -0.2578125 5.28320312 C-0.16328217 3.52257575 -0.08054183 1.76132272 0 0 Z " fill="#451116" transform="translate(1073,319)"/>
<path d="M0 0 C0 1.65 0 3.3 0 5 C-2.31 5 -4.62 5 -7 5 C-5.22678182 1.07358831 -4.52021524 0 0 0 Z " fill="#E0D8D9" transform="translate(1018,747)"/>
<path d="M0 0 C0.66 0 1.32 0 2 0 C1.67 2.64 1.34 5.28 1 8 C-0.65 8 -2.3 8 -4 8 C-2.68 5.36 -1.36 2.72 0 0 Z " fill="#55131B" transform="translate(724,415)"/>
<path d="M0 0 C0.66 0.33 1.32 0.66 2 1 C1.01 2.485 1.01 2.485 0 4 C-0.66 4 -1.32 4 -2 4 C-2 9.28 -2 14.56 -2 20 C-2.33 20 -2.66 20 -3 20 C-3.08089542 17.22858283 -3.14044062 14.45952181 -3.1875 11.6875 C-3.22520508 10.50897461 -3.22520508 10.50897461 -3.26367188 9.30664062 C-3.27333984 8.54931641 -3.28300781 7.79199219 -3.29296875 7.01171875 C-3.3086792 6.31522217 -3.32438965 5.61872559 -3.34057617 4.90112305 C-2.90238443 2.45510217 -1.86562642 1.57297914 0 0 Z " fill="#59191F" transform="translate(924,165)"/>
<path d="M0 0 C0.66 0 1.32 0 2 0 C1.5359375 0.7425 1.5359375 0.7425 1.0625 1.5 C-0.41644382 4.97986781 -0.62402851 8.24028509 -1 12 C-1.66 12 -2.32 12 -3 12 C-3.29162929 7.04230204 -3.12940055 3.97193147 0 0 Z " fill="#5B1A1D" transform="translate(686,165)"/>
<path d="M0 0 C1.32 0.33 2.64 0.66 4 1 C4.1875 3.375 4.1875 3.375 4 6 C3.01 6.66 2.02 7.32 1 8 C0 7 0 7 -0.0625 3.4375 C-0.041875 2.303125 -0.02125 1.16875 0 0 Z " fill="#EEE9EA" transform="translate(678,757)"/>
<path d="M0 0 C1.36125 0.12375 1.36125 0.12375 2.75 0.25 C2.75 0.91 2.75 1.57 2.75 2.25 C-3.875 4.25 -3.875 4.25 -7.25 4.25 C-4.83923194 1.28290085 -3.90322061 0.30024774 0 0 Z " fill="#42181B" transform="translate(1241.25,750.75)"/>
<path d="M0 0 C1.98 0.99 1.98 0.99 4 2 C3.01 2.33 2.02 2.66 1 3 C1 6.3 1 9.6 1 13 C0.67 13 0.34 13 0 13 C0 8.71 0 4.42 0 0 Z " fill="#5A181D" transform="translate(757,183)"/>
<path d="M0 0 C0.99 0.33 1.98 0.66 3 1 C3 2.98 3 4.96 3 7 C2.01 7.33 1.02 7.66 0 8 C0 5.36 0 2.72 0 0 Z " fill="#FEFDFD" transform="translate(1154,757)"/>
<path d="M0 0 C0.66 0.66 1.32 1.32 2 2 C2.99 2 3.98 2 5 2 C4.34 3.32 3.68 4.64 3 6 C2.01 5.67 1.02 5.34 0 5 C0 3.35 0 1.7 0 0 Z " fill="#D7CDCE" transform="translate(1261,748)"/>
</svg>
